%TF.GenerationSoftware,KiCad,Pcbnew,10.0.4*%
%TF.CreationDate,2026-09-20T11:36:47+02:00*%
%TF.ProjectId,stepsew,73746570-7365-4772-9e6b-696361645f70,rev?*%
%TF.SameCoordinates,Original*%
%TF.FileFunction,Paste,Top*%
%TF.FilePolarity,Positive*%
%FSLAX46Y46*%
G04 Gerber Fmt 4.6, Leading zero omitted, Abs format (unit mm)*
G04 Created by KiCad (PCBNEW 10.0.4) date 2026-09-20 11:36:47*
%MOMM*%
%LPD*%
G01*
G04 APERTURE LIST*
G04 Aperture macros list*
%AMRoundRect*
0 Rectangle with rounded corners*
0 $1 Rounding radius*
0 $2 $3 $4 $5 $6 $7 $8 $9 X,Y pos of 4 corners*
0 Add a 4 corners polygon primitive as box body*
4,1,4,$2,$3,$4,$5,$6,$7,$8,$9,$2,$3,0*
0 Add four circle primitives for the rounded corners*
1,1,$1+$1,$2,$3*
1,1,$1+$1,$4,$5*
1,1,$1+$1,$6,$7*
1,1,$1+$1,$8,$9*
0 Add four rect primitives between the rounded corners*
20,1,$1+$1,$2,$3,$4,$5,0*
20,1,$1+$1,$4,$5,$6,$7,0*
20,1,$1+$1,$6,$7,$8,$9,0*
20,1,$1+$1,$8,$9,$2,$3,0*%
G04 Aperture macros list end*
%ADD10RoundRect,0.200000X-0.275000X0.200000X-0.275000X-0.200000X0.275000X-0.200000X0.275000X0.200000X0*%
%ADD11RoundRect,0.200000X0.200000X1.150000X-0.200000X1.150000X-0.200000X-1.150000X0.200000X-1.150000X0*%
%ADD12RoundRect,0.200000X-0.200000X-0.275000X0.200000X-0.275000X0.200000X0.275000X-0.200000X0.275000X0*%
%ADD13RoundRect,0.200000X0.275000X-0.200000X0.275000X0.200000X-0.275000X0.200000X-0.275000X-0.200000X0*%
%ADD14RoundRect,0.150000X-0.150000X-0.700000X0.150000X-0.700000X0.150000X0.700000X-0.150000X0.700000X0*%
%ADD15RoundRect,0.250000X-0.250000X-1.150000X0.250000X-1.150000X0.250000X1.150000X-0.250000X1.150000X0*%
%ADD16RoundRect,0.225000X-0.225000X-0.250000X0.225000X-0.250000X0.225000X0.250000X-0.225000X0.250000X0*%
%ADD17RoundRect,0.225000X0.250000X-0.225000X0.250000X0.225000X-0.250000X0.225000X-0.250000X-0.225000X0*%
%ADD18RoundRect,0.250000X0.900000X-1.000000X0.900000X1.000000X-0.900000X1.000000X-0.900000X-1.000000X0*%
%ADD19RoundRect,0.200000X0.200000X0.275000X-0.200000X0.275000X-0.200000X-0.275000X0.200000X-0.275000X0*%
%ADD20RoundRect,0.150000X0.150000X-0.512500X0.150000X0.512500X-0.150000X0.512500X-0.150000X-0.512500X0*%
%ADD21RoundRect,0.150000X0.150000X-0.587500X0.150000X0.587500X-0.150000X0.587500X-0.150000X-0.587500X0*%
G04 APERTURE END LIST*
D10*
%TO.C,R6*%
X68585000Y-50892500D03*
X68585000Y-49242500D03*
%TD*%
D11*
%TO.C,L1*%
X63135000Y-46267500D03*
X60835000Y-46267500D03*
%TD*%
D12*
%TO.C,R8*%
X69175000Y-56500000D03*
X70825000Y-56500000D03*
%TD*%
D13*
%TO.C,R3*%
X60500000Y-32825000D03*
X60500000Y-31175000D03*
%TD*%
%TO.C,R2*%
X65500000Y-32825000D03*
X65500000Y-31175000D03*
%TD*%
D14*
%TO.C,J5*%
X58935000Y-81855000D03*
X60185000Y-81855000D03*
X61435000Y-81855000D03*
D15*
X57085000Y-78505000D03*
X63285000Y-78505000D03*
%TD*%
D16*
%TO.C,C4*%
X61210000Y-43405000D03*
X62760000Y-43405000D03*
%TD*%
D17*
%TO.C,C3*%
X62985000Y-50442500D03*
X62985000Y-48892500D03*
%TD*%
D16*
%TO.C,C2*%
X66610000Y-46067500D03*
X68160000Y-46067500D03*
%TD*%
D14*
%TO.C,J7*%
X58310000Y-72355000D03*
X59560000Y-72355000D03*
X60810000Y-72355000D03*
X62060000Y-72355000D03*
D15*
X56460000Y-69005000D03*
X63910000Y-69005000D03*
%TD*%
D10*
%TO.C,R5*%
X77500000Y-25180000D03*
X77500000Y-26830000D03*
%TD*%
D18*
%TO.C,D1*%
X73000000Y-51150000D03*
X73000000Y-46850000D03*
%TD*%
D13*
%TO.C,R1*%
X70500000Y-32825000D03*
X70500000Y-31175000D03*
%TD*%
D19*
%TO.C,R9*%
X70825000Y-59500000D03*
X69175000Y-59500000D03*
%TD*%
D10*
%TO.C,R4*%
X74500000Y-25180000D03*
X74500000Y-26830000D03*
%TD*%
D20*
%TO.C,U2*%
X64635000Y-50605000D03*
X65585000Y-50605000D03*
X66535000Y-50605000D03*
X66535000Y-48330000D03*
X65585000Y-48330000D03*
X64635000Y-48330000D03*
%TD*%
D21*
%TO.C,Q3*%
X60550000Y-28437500D03*
X62450000Y-28437500D03*
X61500000Y-26562500D03*
%TD*%
%TO.C,Q1*%
X70550000Y-28437500D03*
X72450000Y-28437500D03*
X71500000Y-26562500D03*
%TD*%
D14*
%TO.C,J6*%
X58310000Y-62855000D03*
X59560000Y-62855000D03*
X60810000Y-62855000D03*
X62060000Y-62855000D03*
D15*
X56460000Y-59505000D03*
X63910000Y-59505000D03*
%TD*%
D19*
%TO.C,R7*%
X67810000Y-52667500D03*
X66160000Y-52667500D03*
%TD*%
D21*
%TO.C,Q2*%
X65550000Y-28437500D03*
X67450000Y-28437500D03*
X66500000Y-26562500D03*
%TD*%
M02*
