%TF.GenerationSoftware,KiCad,Pcbnew,10.0.4*%
%TF.CreationDate,2026-09-20T11:36:47+02:00*%
%TF.ProjectId,stepsew,73746570-7365-4772-9e6b-696361645f70,rev?*%
%TF.SameCoordinates,Original*%
%TF.FileFunction,Legend,Top*%
%TF.FilePolarity,Positive*%
%FSLAX46Y46*%
G04 Gerber Fmt 4.6, Leading zero omitted, Abs format (unit mm)*
G04 Created by KiCad (PCBNEW 10.0.4) date 2026-09-20 11:36:47*
%MOMM*%
%LPD*%
G01*
G04 APERTURE LIST*
%ADD10C,0.300000*%
%ADD11C,0.150000*%
%ADD12C,0.160000*%
%ADD13C,0.120000*%
G04 APERTURE END LIST*
D10*
X53070516Y-24688082D02*
X52999087Y-24902368D01*
X52999087Y-24902368D02*
X52999087Y-25259510D01*
X52999087Y-25259510D02*
X53070516Y-25402368D01*
X53070516Y-25402368D02*
X53141944Y-25473796D01*
X53141944Y-25473796D02*
X53284801Y-25545225D01*
X53284801Y-25545225D02*
X53427658Y-25545225D01*
X53427658Y-25545225D02*
X53570516Y-25473796D01*
X53570516Y-25473796D02*
X53641944Y-25402368D01*
X53641944Y-25402368D02*
X53713373Y-25259510D01*
X53713373Y-25259510D02*
X53784801Y-24973796D01*
X53784801Y-24973796D02*
X53856230Y-24830939D01*
X53856230Y-24830939D02*
X53927658Y-24759510D01*
X53927658Y-24759510D02*
X54070516Y-24688082D01*
X54070516Y-24688082D02*
X54213373Y-24688082D01*
X54213373Y-24688082D02*
X54356230Y-24759510D01*
X54356230Y-24759510D02*
X54427658Y-24830939D01*
X54427658Y-24830939D02*
X54499087Y-24973796D01*
X54499087Y-24973796D02*
X54499087Y-25330939D01*
X54499087Y-25330939D02*
X54427658Y-25545225D01*
X53999087Y-25973796D02*
X53999087Y-26545224D01*
X54499087Y-26188081D02*
X53213373Y-26188081D01*
X53213373Y-26188081D02*
X53070516Y-26259510D01*
X53070516Y-26259510D02*
X52999087Y-26402367D01*
X52999087Y-26402367D02*
X52999087Y-26545224D01*
X53070516Y-27616653D02*
X52999087Y-27473796D01*
X52999087Y-27473796D02*
X52999087Y-27188082D01*
X52999087Y-27188082D02*
X53070516Y-27045224D01*
X53070516Y-27045224D02*
X53213373Y-26973796D01*
X53213373Y-26973796D02*
X53784801Y-26973796D01*
X53784801Y-26973796D02*
X53927658Y-27045224D01*
X53927658Y-27045224D02*
X53999087Y-27188082D01*
X53999087Y-27188082D02*
X53999087Y-27473796D01*
X53999087Y-27473796D02*
X53927658Y-27616653D01*
X53927658Y-27616653D02*
X53784801Y-27688082D01*
X53784801Y-27688082D02*
X53641944Y-27688082D01*
X53641944Y-27688082D02*
X53499087Y-26973796D01*
X53999087Y-28330938D02*
X52499087Y-28330938D01*
X53927658Y-28330938D02*
X53999087Y-28473796D01*
X53999087Y-28473796D02*
X53999087Y-28759510D01*
X53999087Y-28759510D02*
X53927658Y-28902367D01*
X53927658Y-28902367D02*
X53856230Y-28973796D01*
X53856230Y-28973796D02*
X53713373Y-29045224D01*
X53713373Y-29045224D02*
X53284801Y-29045224D01*
X53284801Y-29045224D02*
X53141944Y-28973796D01*
X53141944Y-28973796D02*
X53070516Y-28902367D01*
X53070516Y-28902367D02*
X52999087Y-28759510D01*
X52999087Y-28759510D02*
X52999087Y-28473796D01*
X52999087Y-28473796D02*
X53070516Y-28330938D01*
X53070516Y-29616653D02*
X52999087Y-29759510D01*
X52999087Y-29759510D02*
X52999087Y-30045224D01*
X52999087Y-30045224D02*
X53070516Y-30188081D01*
X53070516Y-30188081D02*
X53213373Y-30259510D01*
X53213373Y-30259510D02*
X53284801Y-30259510D01*
X53284801Y-30259510D02*
X53427658Y-30188081D01*
X53427658Y-30188081D02*
X53499087Y-30045224D01*
X53499087Y-30045224D02*
X53499087Y-29830939D01*
X53499087Y-29830939D02*
X53570516Y-29688081D01*
X53570516Y-29688081D02*
X53713373Y-29616653D01*
X53713373Y-29616653D02*
X53784801Y-29616653D01*
X53784801Y-29616653D02*
X53927658Y-29688081D01*
X53927658Y-29688081D02*
X53999087Y-29830939D01*
X53999087Y-29830939D02*
X53999087Y-30045224D01*
X53999087Y-30045224D02*
X53927658Y-30188081D01*
X53070516Y-31473796D02*
X52999087Y-31330939D01*
X52999087Y-31330939D02*
X52999087Y-31045225D01*
X52999087Y-31045225D02*
X53070516Y-30902367D01*
X53070516Y-30902367D02*
X53213373Y-30830939D01*
X53213373Y-30830939D02*
X53784801Y-30830939D01*
X53784801Y-30830939D02*
X53927658Y-30902367D01*
X53927658Y-30902367D02*
X53999087Y-31045225D01*
X53999087Y-31045225D02*
X53999087Y-31330939D01*
X53999087Y-31330939D02*
X53927658Y-31473796D01*
X53927658Y-31473796D02*
X53784801Y-31545225D01*
X53784801Y-31545225D02*
X53641944Y-31545225D01*
X53641944Y-31545225D02*
X53499087Y-30830939D01*
X53999087Y-32045224D02*
X52999087Y-32330939D01*
X52999087Y-32330939D02*
X53713373Y-32616653D01*
X53713373Y-32616653D02*
X52999087Y-32902367D01*
X52999087Y-32902367D02*
X53999087Y-33188081D01*
X52999087Y-34902367D02*
X53999087Y-34902367D01*
X53713373Y-34902367D02*
X53856230Y-34973796D01*
X53856230Y-34973796D02*
X53927658Y-35045225D01*
X53927658Y-35045225D02*
X53999087Y-35188082D01*
X53999087Y-35188082D02*
X53999087Y-35330939D01*
X53070516Y-36402367D02*
X52999087Y-36259510D01*
X52999087Y-36259510D02*
X52999087Y-35973796D01*
X52999087Y-35973796D02*
X53070516Y-35830938D01*
X53070516Y-35830938D02*
X53213373Y-35759510D01*
X53213373Y-35759510D02*
X53784801Y-35759510D01*
X53784801Y-35759510D02*
X53927658Y-35830938D01*
X53927658Y-35830938D02*
X53999087Y-35973796D01*
X53999087Y-35973796D02*
X53999087Y-36259510D01*
X53999087Y-36259510D02*
X53927658Y-36402367D01*
X53927658Y-36402367D02*
X53784801Y-36473796D01*
X53784801Y-36473796D02*
X53641944Y-36473796D01*
X53641944Y-36473796D02*
X53499087Y-35759510D01*
X53999087Y-36973795D02*
X52999087Y-37330938D01*
X52999087Y-37330938D02*
X53999087Y-37688081D01*
X54499087Y-39688081D02*
X54499087Y-39830938D01*
X54499087Y-39830938D02*
X54427658Y-39973795D01*
X54427658Y-39973795D02*
X54356230Y-40045224D01*
X54356230Y-40045224D02*
X54213373Y-40116652D01*
X54213373Y-40116652D02*
X53927658Y-40188081D01*
X53927658Y-40188081D02*
X53570516Y-40188081D01*
X53570516Y-40188081D02*
X53284801Y-40116652D01*
X53284801Y-40116652D02*
X53141944Y-40045224D01*
X53141944Y-40045224D02*
X53070516Y-39973795D01*
X53070516Y-39973795D02*
X52999087Y-39830938D01*
X52999087Y-39830938D02*
X52999087Y-39688081D01*
X52999087Y-39688081D02*
X53070516Y-39545224D01*
X53070516Y-39545224D02*
X53141944Y-39473795D01*
X53141944Y-39473795D02*
X53284801Y-39402366D01*
X53284801Y-39402366D02*
X53570516Y-39330938D01*
X53570516Y-39330938D02*
X53927658Y-39330938D01*
X53927658Y-39330938D02*
X54213373Y-39402366D01*
X54213373Y-39402366D02*
X54356230Y-39473795D01*
X54356230Y-39473795D02*
X54427658Y-39545224D01*
X54427658Y-39545224D02*
X54499087Y-39688081D01*
X53141944Y-40830937D02*
X53070516Y-40902366D01*
X53070516Y-40902366D02*
X52999087Y-40830937D01*
X52999087Y-40830937D02*
X53070516Y-40759509D01*
X53070516Y-40759509D02*
X53141944Y-40830937D01*
X53141944Y-40830937D02*
X52999087Y-40830937D01*
X52999087Y-42330938D02*
X52999087Y-41473795D01*
X52999087Y-41902366D02*
X54499087Y-41902366D01*
X54499087Y-41902366D02*
X54284801Y-41759509D01*
X54284801Y-41759509D02*
X54141944Y-41616652D01*
X54141944Y-41616652D02*
X54070516Y-41473795D01*
X50584171Y-24759510D02*
X52084171Y-24759510D01*
X51512742Y-24759510D02*
X51584171Y-24902368D01*
X51584171Y-24902368D02*
X51584171Y-25188082D01*
X51584171Y-25188082D02*
X51512742Y-25330939D01*
X51512742Y-25330939D02*
X51441314Y-25402368D01*
X51441314Y-25402368D02*
X51298457Y-25473796D01*
X51298457Y-25473796D02*
X50869885Y-25473796D01*
X50869885Y-25473796D02*
X50727028Y-25402368D01*
X50727028Y-25402368D02*
X50655600Y-25330939D01*
X50655600Y-25330939D02*
X50584171Y-25188082D01*
X50584171Y-25188082D02*
X50584171Y-24902368D01*
X50584171Y-24902368D02*
X50655600Y-24759510D01*
X51584171Y-25973796D02*
X50584171Y-26330939D01*
X51584171Y-26688082D02*
X50584171Y-26330939D01*
X50584171Y-26330939D02*
X50227028Y-26188082D01*
X50227028Y-26188082D02*
X50155600Y-26116653D01*
X50155600Y-26116653D02*
X50084171Y-25973796D01*
X50584171Y-28402367D02*
X52084171Y-28402367D01*
X52084171Y-28402367D02*
X51012742Y-28902367D01*
X51012742Y-28902367D02*
X52084171Y-29402367D01*
X52084171Y-29402367D02*
X50584171Y-29402367D01*
X50584171Y-30759511D02*
X51369885Y-30759511D01*
X51369885Y-30759511D02*
X51512742Y-30688082D01*
X51512742Y-30688082D02*
X51584171Y-30545225D01*
X51584171Y-30545225D02*
X51584171Y-30259511D01*
X51584171Y-30259511D02*
X51512742Y-30116653D01*
X50655600Y-30759511D02*
X50584171Y-30616653D01*
X50584171Y-30616653D02*
X50584171Y-30259511D01*
X50584171Y-30259511D02*
X50655600Y-30116653D01*
X50655600Y-30116653D02*
X50798457Y-30045225D01*
X50798457Y-30045225D02*
X50941314Y-30045225D01*
X50941314Y-30045225D02*
X51084171Y-30116653D01*
X51084171Y-30116653D02*
X51155600Y-30259511D01*
X51155600Y-30259511D02*
X51155600Y-30616653D01*
X51155600Y-30616653D02*
X51227028Y-30759511D01*
X50584171Y-31473796D02*
X51584171Y-31473796D01*
X51298457Y-31473796D02*
X51441314Y-31545225D01*
X51441314Y-31545225D02*
X51512742Y-31616654D01*
X51512742Y-31616654D02*
X51584171Y-31759511D01*
X51584171Y-31759511D02*
X51584171Y-31902368D01*
X50584171Y-32402367D02*
X52084171Y-32402367D01*
X51512742Y-32402367D02*
X51584171Y-32545225D01*
X51584171Y-32545225D02*
X51584171Y-32830939D01*
X51584171Y-32830939D02*
X51512742Y-32973796D01*
X51512742Y-32973796D02*
X51441314Y-33045225D01*
X51441314Y-33045225D02*
X51298457Y-33116653D01*
X51298457Y-33116653D02*
X50869885Y-33116653D01*
X50869885Y-33116653D02*
X50727028Y-33045225D01*
X50727028Y-33045225D02*
X50655600Y-32973796D01*
X50655600Y-32973796D02*
X50584171Y-32830939D01*
X50584171Y-32830939D02*
X50584171Y-32545225D01*
X50584171Y-32545225D02*
X50655600Y-32402367D01*
X50584171Y-33973796D02*
X50655600Y-33830939D01*
X50655600Y-33830939D02*
X50798457Y-33759510D01*
X50798457Y-33759510D02*
X52084171Y-33759510D01*
X50655600Y-35116653D02*
X50584171Y-34973796D01*
X50584171Y-34973796D02*
X50584171Y-34688082D01*
X50584171Y-34688082D02*
X50655600Y-34545224D01*
X50655600Y-34545224D02*
X50798457Y-34473796D01*
X50798457Y-34473796D02*
X51369885Y-34473796D01*
X51369885Y-34473796D02*
X51512742Y-34545224D01*
X51512742Y-34545224D02*
X51584171Y-34688082D01*
X51584171Y-34688082D02*
X51584171Y-34973796D01*
X51584171Y-34973796D02*
X51512742Y-35116653D01*
X51512742Y-35116653D02*
X51369885Y-35188082D01*
X51369885Y-35188082D02*
X51227028Y-35188082D01*
X51227028Y-35188082D02*
X51084171Y-34473796D01*
G36*
X55599035Y-81122495D02*
G01*
X49751415Y-81122495D01*
X49751415Y-79591542D01*
X49918082Y-79591542D01*
X49918082Y-79734400D01*
X49920964Y-79763664D01*
X49923026Y-79768642D01*
X49923408Y-79774018D01*
X49933918Y-79801482D01*
X50005346Y-79944339D01*
X50013274Y-79956934D01*
X50014790Y-79960593D01*
X50018169Y-79964710D01*
X50021011Y-79969225D01*
X50024005Y-79971821D01*
X50033445Y-79983324D01*
X50104874Y-80054752D01*
X50116374Y-80064190D01*
X50118971Y-80067184D01*
X50123483Y-80070024D01*
X50127604Y-80073406D01*
X50131263Y-80074921D01*
X50143857Y-80082849D01*
X50286713Y-80154278D01*
X50288855Y-80155097D01*
X50289725Y-80155742D01*
X50301996Y-80160126D01*
X50314177Y-80164787D01*
X50315257Y-80164863D01*
X50317416Y-80165635D01*
X50587154Y-80233069D01*
X50693513Y-80286248D01*
X50730517Y-80323253D01*
X50775225Y-80412667D01*
X50775225Y-80484703D01*
X50730517Y-80574117D01*
X50693514Y-80611121D01*
X50604101Y-80655828D01*
X50306711Y-80655828D01*
X50115516Y-80592097D01*
X50086842Y-80585577D01*
X50028462Y-80589727D01*
X49976115Y-80615901D01*
X49937767Y-80660115D01*
X49919259Y-80715640D01*
X49923409Y-80774020D01*
X49949583Y-80826367D01*
X49993797Y-80864715D01*
X50020648Y-80876703D01*
X50234934Y-80948131D01*
X50249446Y-80951430D01*
X50253104Y-80952946D01*
X50258406Y-80953468D01*
X50263608Y-80954651D01*
X50267562Y-80954369D01*
X50282368Y-80955828D01*
X50639510Y-80955828D01*
X50668774Y-80952946D01*
X50673752Y-80950883D01*
X50679128Y-80950502D01*
X50706591Y-80939992D01*
X50849450Y-80868564D01*
X50862044Y-80860635D01*
X50865704Y-80859120D01*
X50869824Y-80855738D01*
X50874335Y-80852899D01*
X50876929Y-80849907D01*
X50888435Y-80840465D01*
X50959863Y-80769036D01*
X50969301Y-80757535D01*
X50972295Y-80754939D01*
X50975135Y-80750426D01*
X50978517Y-80746306D01*
X50980032Y-80742646D01*
X50987960Y-80730053D01*
X51059389Y-80587197D01*
X51069898Y-80559733D01*
X51070279Y-80554358D01*
X51072343Y-80549378D01*
X51075225Y-80520114D01*
X51075225Y-80377257D01*
X51072343Y-80347993D01*
X51070279Y-80343012D01*
X51069898Y-80337638D01*
X51059389Y-80310174D01*
X50987960Y-80167318D01*
X50980032Y-80154724D01*
X50978517Y-80151065D01*
X50975135Y-80146944D01*
X50972295Y-80142432D01*
X50969301Y-80139835D01*
X50959863Y-80128335D01*
X50888435Y-80056906D01*
X50876932Y-80047466D01*
X50874336Y-80044472D01*
X50869821Y-80041630D01*
X50865704Y-80038251D01*
X50862045Y-80036735D01*
X50849450Y-80028807D01*
X50706592Y-79957378D01*
X50704451Y-79956558D01*
X50703581Y-79955914D01*
X50691325Y-79951535D01*
X50679129Y-79946868D01*
X50678045Y-79946791D01*
X50675890Y-79946021D01*
X50406152Y-79878586D01*
X50299792Y-79825406D01*
X50262787Y-79788401D01*
X50218082Y-79698990D01*
X50218082Y-79626951D01*
X50262787Y-79537540D01*
X50299792Y-79500535D01*
X50389206Y-79455828D01*
X50686599Y-79455828D01*
X50877790Y-79519559D01*
X50906464Y-79526079D01*
X50964844Y-79521930D01*
X51017191Y-79495756D01*
X51055539Y-79451542D01*
X51074047Y-79396018D01*
X51069898Y-79337638D01*
X51053993Y-79305828D01*
X51418081Y-79305828D01*
X51418081Y-80805828D01*
X51420963Y-80835092D01*
X51443361Y-80889164D01*
X51484745Y-80930548D01*
X51538817Y-80952946D01*
X51568081Y-80955828D01*
X52282367Y-80955828D01*
X52311631Y-80952946D01*
X52365703Y-80930548D01*
X52407087Y-80889164D01*
X52429485Y-80835092D01*
X52429485Y-80776564D01*
X52407087Y-80722492D01*
X52365703Y-80681108D01*
X52311631Y-80658710D01*
X52282367Y-80655828D01*
X51718081Y-80655828D01*
X51718081Y-80170114D01*
X52068081Y-80170114D01*
X52097345Y-80167232D01*
X52151417Y-80144834D01*
X52192801Y-80103450D01*
X52215199Y-80049378D01*
X52215199Y-79990850D01*
X52192801Y-79936778D01*
X52151417Y-79895394D01*
X52097345Y-79872996D01*
X52068081Y-79870114D01*
X51718081Y-79870114D01*
X51718081Y-79455828D01*
X52282367Y-79455828D01*
X52311631Y-79452946D01*
X52365703Y-79430548D01*
X52407087Y-79389164D01*
X52429485Y-79335092D01*
X52429485Y-79305828D01*
X52775224Y-79305828D01*
X52775224Y-80805828D01*
X52778106Y-80835092D01*
X52800504Y-80889164D01*
X52841888Y-80930548D01*
X52895960Y-80952946D01*
X52954488Y-80952946D01*
X53008560Y-80930548D01*
X53049944Y-80889164D01*
X53072342Y-80835092D01*
X53075224Y-80805828D01*
X53075224Y-79870661D01*
X53652131Y-80880249D01*
X53656508Y-80886416D01*
X53657647Y-80889164D01*
X53660446Y-80891963D01*
X53669152Y-80904227D01*
X53684925Y-80916442D01*
X53699031Y-80930548D01*
X53707864Y-80934206D01*
X53715426Y-80940063D01*
X53734674Y-80945312D01*
X53753103Y-80952946D01*
X53762665Y-80952946D01*
X53771890Y-80955462D01*
X53791681Y-80952946D01*
X53811631Y-80952946D01*
X53820464Y-80949286D01*
X53829950Y-80948081D01*
X53847272Y-80938182D01*
X53865703Y-80930548D01*
X53872463Y-80923787D01*
X53880766Y-80919043D01*
X53892979Y-80903271D01*
X53907087Y-80889164D01*
X53910746Y-80880328D01*
X53916601Y-80872769D01*
X53921849Y-80853524D01*
X53929485Y-80835092D01*
X53930958Y-80820127D01*
X53932001Y-80816306D01*
X53931625Y-80813354D01*
X53932367Y-80805828D01*
X53932367Y-79591542D01*
X54275225Y-79591542D01*
X54275225Y-79734400D01*
X54278107Y-79763664D01*
X54280169Y-79768642D01*
X54280551Y-79774018D01*
X54291061Y-79801482D01*
X54362489Y-79944339D01*
X54370417Y-79956934D01*
X54371933Y-79960593D01*
X54375312Y-79964710D01*
X54378154Y-79969225D01*
X54381148Y-79971821D01*
X54390588Y-79983324D01*
X54462017Y-80054752D01*
X54473517Y-80064190D01*
X54476114Y-80067184D01*
X54480626Y-80070024D01*
X54484747Y-80073406D01*
X54488406Y-80074921D01*
X54501000Y-80082849D01*
X54643856Y-80154278D01*
X54645998Y-80155097D01*
X54646868Y-80155742D01*
X54659139Y-80160126D01*
X54671320Y-80164787D01*
X54672400Y-80164863D01*
X54674559Y-80165635D01*
X54944297Y-80233069D01*
X55050656Y-80286248D01*
X55087660Y-80323253D01*
X55132368Y-80412667D01*
X55132368Y-80484703D01*
X55087660Y-80574117D01*
X55050657Y-80611121D01*
X54961244Y-80655828D01*
X54663854Y-80655828D01*
X54472659Y-80592097D01*
X54443985Y-80585577D01*
X54385605Y-80589727D01*
X54333258Y-80615901D01*
X54294910Y-80660115D01*
X54276402Y-80715640D01*
X54280552Y-80774020D01*
X54306726Y-80826367D01*
X54350940Y-80864715D01*
X54377791Y-80876703D01*
X54592077Y-80948131D01*
X54606589Y-80951430D01*
X54610247Y-80952946D01*
X54615549Y-80953468D01*
X54620751Y-80954651D01*
X54624705Y-80954369D01*
X54639511Y-80955828D01*
X54996653Y-80955828D01*
X55025917Y-80952946D01*
X55030895Y-80950883D01*
X55036271Y-80950502D01*
X55063734Y-80939992D01*
X55206593Y-80868564D01*
X55219187Y-80860635D01*
X55222847Y-80859120D01*
X55226967Y-80855738D01*
X55231478Y-80852899D01*
X55234072Y-80849907D01*
X55245578Y-80840465D01*
X55317006Y-80769036D01*
X55326444Y-80757535D01*
X55329438Y-80754939D01*
X55332278Y-80750426D01*
X55335660Y-80746306D01*
X55337175Y-80742646D01*
X55345103Y-80730053D01*
X55416532Y-80587197D01*
X55427041Y-80559733D01*
X55427422Y-80554358D01*
X55429486Y-80549378D01*
X55432368Y-80520114D01*
X55432368Y-80377257D01*
X55429486Y-80347993D01*
X55427422Y-80343012D01*
X55427041Y-80337638D01*
X55416532Y-80310174D01*
X55345103Y-80167318D01*
X55337175Y-80154724D01*
X55335660Y-80151065D01*
X55332278Y-80146944D01*
X55329438Y-80142432D01*
X55326444Y-80139835D01*
X55317006Y-80128335D01*
X55245578Y-80056906D01*
X55234075Y-80047466D01*
X55231479Y-80044472D01*
X55226964Y-80041630D01*
X55222847Y-80038251D01*
X55219188Y-80036735D01*
X55206593Y-80028807D01*
X55063735Y-79957378D01*
X55061594Y-79956558D01*
X55060724Y-79955914D01*
X55048468Y-79951535D01*
X55036272Y-79946868D01*
X55035188Y-79946791D01*
X55033033Y-79946021D01*
X54763295Y-79878586D01*
X54656935Y-79825406D01*
X54619930Y-79788401D01*
X54575225Y-79698990D01*
X54575225Y-79626951D01*
X54619930Y-79537540D01*
X54656935Y-79500535D01*
X54746349Y-79455828D01*
X55043742Y-79455828D01*
X55234933Y-79519559D01*
X55263607Y-79526079D01*
X55321987Y-79521930D01*
X55374334Y-79495756D01*
X55412682Y-79451542D01*
X55431190Y-79396018D01*
X55427041Y-79337638D01*
X55400867Y-79285290D01*
X55356653Y-79246943D01*
X55329802Y-79234954D01*
X55115516Y-79163526D01*
X55101008Y-79160227D01*
X55097346Y-79158710D01*
X55092037Y-79158187D01*
X55086843Y-79157006D01*
X55082893Y-79157286D01*
X55068082Y-79155828D01*
X54710939Y-79155828D01*
X54681675Y-79158710D01*
X54676694Y-79160773D01*
X54671320Y-79161155D01*
X54643856Y-79171664D01*
X54501000Y-79243093D01*
X54488406Y-79251020D01*
X54484747Y-79252536D01*
X54480626Y-79255917D01*
X54476114Y-79258758D01*
X54473517Y-79261751D01*
X54462017Y-79271190D01*
X54390588Y-79342618D01*
X54381148Y-79354120D01*
X54378154Y-79356717D01*
X54375312Y-79361231D01*
X54371933Y-79365349D01*
X54370417Y-79369007D01*
X54362489Y-79381603D01*
X54291061Y-79524460D01*
X54280551Y-79551924D01*
X54280169Y-79557299D01*
X54278107Y-79562278D01*
X54275225Y-79591542D01*
X53932367Y-79591542D01*
X53932367Y-79305828D01*
X53929485Y-79276564D01*
X53907087Y-79222492D01*
X53865703Y-79181108D01*
X53811631Y-79158710D01*
X53753103Y-79158710D01*
X53699031Y-79181108D01*
X53657647Y-79222492D01*
X53635249Y-79276564D01*
X53632367Y-79305828D01*
X53632367Y-80240992D01*
X53055460Y-79231407D01*
X53051082Y-79225239D01*
X53049944Y-79222492D01*
X53047144Y-79219692D01*
X53038439Y-79207429D01*
X53022667Y-79195215D01*
X53008560Y-79181108D01*
X52999724Y-79177448D01*
X52992165Y-79171594D01*
X52972920Y-79166345D01*
X52954488Y-79158710D01*
X52944926Y-79158710D01*
X52935701Y-79156194D01*
X52915910Y-79158710D01*
X52895960Y-79158710D01*
X52887126Y-79162369D01*
X52877641Y-79163575D01*
X52860318Y-79173473D01*
X52841888Y-79181108D01*
X52835127Y-79187868D01*
X52826825Y-79192613D01*
X52814611Y-79208384D01*
X52800504Y-79222492D01*
X52796844Y-79231327D01*
X52790990Y-79238887D01*
X52785741Y-79258131D01*
X52778106Y-79276564D01*
X52776632Y-79291530D01*
X52775590Y-79295351D01*
X52775965Y-79298302D01*
X52775224Y-79305828D01*
X52429485Y-79305828D01*
X52429485Y-79276564D01*
X52407087Y-79222492D01*
X52365703Y-79181108D01*
X52311631Y-79158710D01*
X52282367Y-79155828D01*
X51568081Y-79155828D01*
X51538817Y-79158710D01*
X51484745Y-79181108D01*
X51443361Y-79222492D01*
X51420963Y-79276564D01*
X51418081Y-79305828D01*
X51053993Y-79305828D01*
X51043724Y-79285290D01*
X50999510Y-79246943D01*
X50972659Y-79234954D01*
X50758373Y-79163526D01*
X50743865Y-79160227D01*
X50740203Y-79158710D01*
X50734894Y-79158187D01*
X50729700Y-79157006D01*
X50725750Y-79157286D01*
X50710939Y-79155828D01*
X50353796Y-79155828D01*
X50324532Y-79158710D01*
X50319551Y-79160773D01*
X50314177Y-79161155D01*
X50286713Y-79171664D01*
X50143857Y-79243093D01*
X50131263Y-79251020D01*
X50127604Y-79252536D01*
X50123483Y-79255917D01*
X50118971Y-79258758D01*
X50116374Y-79261751D01*
X50104874Y-79271190D01*
X50033445Y-79342618D01*
X50024005Y-79354120D01*
X50021011Y-79356717D01*
X50018169Y-79361231D01*
X50014790Y-79365349D01*
X50013274Y-79369007D01*
X50005346Y-79381603D01*
X49933918Y-79524460D01*
X49923408Y-79551924D01*
X49923026Y-79557299D01*
X49920964Y-79562278D01*
X49918082Y-79591542D01*
X49751415Y-79591542D01*
X49751415Y-78989161D01*
X55599035Y-78989161D01*
X55599035Y-81122495D01*
G37*
G36*
X54839010Y-71322495D02*
G01*
X50422843Y-71322495D01*
X50422843Y-69505828D01*
X50589510Y-69505828D01*
X50589510Y-71005828D01*
X50592392Y-71035092D01*
X50614790Y-71089164D01*
X50656174Y-71130548D01*
X50710246Y-71152946D01*
X50739510Y-71155828D01*
X51453796Y-71155828D01*
X51483060Y-71152946D01*
X51537132Y-71130548D01*
X51578516Y-71089164D01*
X51600914Y-71035092D01*
X51600914Y-70976564D01*
X51578516Y-70922492D01*
X51537132Y-70881108D01*
X51483060Y-70858710D01*
X51453796Y-70855828D01*
X50889510Y-70855828D01*
X50889510Y-70370114D01*
X51239510Y-70370114D01*
X51268774Y-70367232D01*
X51322846Y-70344834D01*
X51364230Y-70303450D01*
X51386628Y-70249378D01*
X51386628Y-70190850D01*
X51364230Y-70136778D01*
X51322846Y-70095394D01*
X51268774Y-70072996D01*
X51239510Y-70070114D01*
X50889510Y-70070114D01*
X50889510Y-69655828D01*
X51453796Y-69655828D01*
X51483060Y-69652946D01*
X51537132Y-69630548D01*
X51578516Y-69589164D01*
X51600914Y-69535092D01*
X51600914Y-69505828D01*
X51946653Y-69505828D01*
X51946653Y-71005828D01*
X51949535Y-71035092D01*
X51971933Y-71089164D01*
X52013317Y-71130548D01*
X52067389Y-71152946D01*
X52125917Y-71152946D01*
X52179989Y-71130548D01*
X52221373Y-71089164D01*
X52243771Y-71035092D01*
X52246653Y-71005828D01*
X52246653Y-70070661D01*
X52823560Y-71080249D01*
X52827937Y-71086416D01*
X52829076Y-71089164D01*
X52831875Y-71091963D01*
X52840581Y-71104227D01*
X52856354Y-71116442D01*
X52870460Y-71130548D01*
X52879293Y-71134206D01*
X52886855Y-71140063D01*
X52906103Y-71145312D01*
X52924532Y-71152946D01*
X52934094Y-71152946D01*
X52943319Y-71155462D01*
X52963110Y-71152946D01*
X52983060Y-71152946D01*
X52991893Y-71149286D01*
X53001379Y-71148081D01*
X53018701Y-71138182D01*
X53037132Y-71130548D01*
X53043892Y-71123787D01*
X53052195Y-71119043D01*
X53064408Y-71103271D01*
X53078516Y-71089164D01*
X53082175Y-71080328D01*
X53088030Y-71072769D01*
X53093278Y-71053524D01*
X53100914Y-71035092D01*
X53102387Y-71020127D01*
X53103430Y-71016306D01*
X53103054Y-71013354D01*
X53103796Y-71005828D01*
X53103796Y-70148685D01*
X53446654Y-70148685D01*
X53446654Y-70362971D01*
X53447156Y-70368074D01*
X53446831Y-70370262D01*
X53448450Y-70381212D01*
X53449536Y-70392235D01*
X53450383Y-70394279D01*
X53451133Y-70399351D01*
X53522561Y-70685065D01*
X53523332Y-70687223D01*
X53523409Y-70688304D01*
X53528067Y-70700478D01*
X53532454Y-70712756D01*
X53533098Y-70713626D01*
X53533918Y-70715767D01*
X53605347Y-70858624D01*
X53613274Y-70871217D01*
X53614790Y-70874877D01*
X53618171Y-70878996D01*
X53621012Y-70883510D01*
X53624005Y-70886106D01*
X53633445Y-70897608D01*
X53776302Y-71040466D01*
X53799032Y-71059121D01*
X53804011Y-71061183D01*
X53808083Y-71064715D01*
X53834934Y-71076703D01*
X54049220Y-71148131D01*
X54063732Y-71151430D01*
X54067390Y-71152946D01*
X54072692Y-71153468D01*
X54077894Y-71154651D01*
X54081848Y-71154369D01*
X54096654Y-71155828D01*
X54239511Y-71155828D01*
X54254316Y-71154369D01*
X54258271Y-71154651D01*
X54263472Y-71153468D01*
X54268775Y-71152946D01*
X54272432Y-71151430D01*
X54286945Y-71148131D01*
X54501231Y-71076703D01*
X54528082Y-71064715D01*
X54532155Y-71061181D01*
X54537133Y-71059120D01*
X54559864Y-71040465D01*
X54631292Y-70969036D01*
X54649946Y-70946306D01*
X54672343Y-70892233D01*
X54672342Y-70833707D01*
X54649945Y-70779635D01*
X54608559Y-70738250D01*
X54554487Y-70715853D01*
X54495961Y-70715854D01*
X54441889Y-70738251D01*
X54419158Y-70756906D01*
X54372770Y-70803294D01*
X54215168Y-70855828D01*
X54120997Y-70855828D01*
X53963394Y-70803294D01*
X53862789Y-70702688D01*
X53809608Y-70596328D01*
X53746654Y-70344507D01*
X53746654Y-70167148D01*
X53809608Y-69915327D01*
X53862789Y-69808967D01*
X53963395Y-69708361D01*
X54120997Y-69655828D01*
X54215171Y-69655828D01*
X54372769Y-69708361D01*
X54419159Y-69754751D01*
X54441889Y-69773406D01*
X54495962Y-69795802D01*
X54554488Y-69795802D01*
X54608560Y-69773406D01*
X54649946Y-69732020D01*
X54672342Y-69677948D01*
X54672342Y-69619422D01*
X54649946Y-69565349D01*
X54631291Y-69542619D01*
X54559863Y-69471191D01*
X54537132Y-69452536D01*
X54532152Y-69450473D01*
X54528082Y-69446943D01*
X54501231Y-69434954D01*
X54286945Y-69363526D01*
X54272437Y-69360227D01*
X54268775Y-69358710D01*
X54263466Y-69358187D01*
X54258272Y-69357006D01*
X54254322Y-69357286D01*
X54239511Y-69355828D01*
X54096654Y-69355828D01*
X54081842Y-69357286D01*
X54077893Y-69357006D01*
X54072698Y-69358187D01*
X54067390Y-69358710D01*
X54063728Y-69360226D01*
X54049219Y-69363526D01*
X53834934Y-69434955D01*
X53808083Y-69446943D01*
X53804013Y-69450472D01*
X53799032Y-69452536D01*
X53776302Y-69471191D01*
X53633445Y-69614048D01*
X53624005Y-69625549D01*
X53621012Y-69628146D01*
X53618171Y-69632659D01*
X53614790Y-69636779D01*
X53613274Y-69640438D01*
X53605347Y-69653032D01*
X53533918Y-69795889D01*
X53533098Y-69798029D01*
X53532454Y-69798900D01*
X53528067Y-69811177D01*
X53523409Y-69823352D01*
X53523332Y-69824432D01*
X53522561Y-69826591D01*
X53451133Y-70112305D01*
X53450383Y-70117376D01*
X53449536Y-70119421D01*
X53448450Y-70130443D01*
X53446831Y-70141394D01*
X53447156Y-70143581D01*
X53446654Y-70148685D01*
X53103796Y-70148685D01*
X53103796Y-69505828D01*
X53100914Y-69476564D01*
X53078516Y-69422492D01*
X53037132Y-69381108D01*
X52983060Y-69358710D01*
X52924532Y-69358710D01*
X52870460Y-69381108D01*
X52829076Y-69422492D01*
X52806678Y-69476564D01*
X52803796Y-69505828D01*
X52803796Y-70440992D01*
X52226889Y-69431407D01*
X52222511Y-69425239D01*
X52221373Y-69422492D01*
X52218573Y-69419692D01*
X52209868Y-69407429D01*
X52194096Y-69395215D01*
X52179989Y-69381108D01*
X52171153Y-69377448D01*
X52163594Y-69371594D01*
X52144349Y-69366345D01*
X52125917Y-69358710D01*
X52116355Y-69358710D01*
X52107130Y-69356194D01*
X52087339Y-69358710D01*
X52067389Y-69358710D01*
X52058555Y-69362369D01*
X52049070Y-69363575D01*
X52031747Y-69373473D01*
X52013317Y-69381108D01*
X52006556Y-69387868D01*
X51998254Y-69392613D01*
X51986040Y-69408384D01*
X51971933Y-69422492D01*
X51968273Y-69431327D01*
X51962419Y-69438887D01*
X51957170Y-69458131D01*
X51949535Y-69476564D01*
X51948061Y-69491530D01*
X51947019Y-69495351D01*
X51947394Y-69498302D01*
X51946653Y-69505828D01*
X51600914Y-69505828D01*
X51600914Y-69476564D01*
X51578516Y-69422492D01*
X51537132Y-69381108D01*
X51483060Y-69358710D01*
X51453796Y-69355828D01*
X50739510Y-69355828D01*
X50710246Y-69358710D01*
X50656174Y-69381108D01*
X50614790Y-69422492D01*
X50592392Y-69476564D01*
X50589510Y-69505828D01*
X50422843Y-69505828D01*
X50422843Y-69189161D01*
X54839010Y-69189161D01*
X54839010Y-71322495D01*
G37*
G36*
X50164942Y-60300535D02*
G01*
X50261208Y-60396801D01*
X50318082Y-60624292D01*
X50318082Y-61087363D01*
X50261208Y-61314854D01*
X50164941Y-61411122D01*
X50075529Y-61455828D01*
X49860635Y-61455828D01*
X49771221Y-61411121D01*
X49674954Y-61314854D01*
X49618082Y-61087364D01*
X49618082Y-60624291D01*
X49674954Y-60396802D01*
X49771221Y-60300534D01*
X49860635Y-60255828D01*
X50075529Y-60255828D01*
X50164942Y-60300535D01*
G37*
G36*
X54172769Y-60308361D02*
G01*
X54273376Y-60408968D01*
X54326555Y-60515327D01*
X54389511Y-60767148D01*
X54389511Y-60944507D01*
X54326555Y-61196328D01*
X54273376Y-61302688D01*
X54172770Y-61403294D01*
X54015168Y-61455828D01*
X53832368Y-61455828D01*
X53832368Y-60255828D01*
X54015171Y-60255828D01*
X54172769Y-60308361D01*
G37*
G36*
X54856178Y-61922495D02*
G01*
X49151415Y-61922495D01*
X49151415Y-60605828D01*
X49318082Y-60605828D01*
X49318082Y-61105828D01*
X49318584Y-61110931D01*
X49318259Y-61113119D01*
X49319878Y-61124069D01*
X49320964Y-61135092D01*
X49321811Y-61137136D01*
X49322561Y-61142208D01*
X49393989Y-61427922D01*
X49403882Y-61455613D01*
X49410521Y-61464573D01*
X49414789Y-61474877D01*
X49433444Y-61497608D01*
X49576302Y-61640466D01*
X49587806Y-61649907D01*
X49590401Y-61652899D01*
X49594910Y-61655737D01*
X49599033Y-61659121D01*
X49602694Y-61660637D01*
X49615286Y-61668564D01*
X49758144Y-61739992D01*
X49785607Y-61750502D01*
X49790982Y-61750883D01*
X49795961Y-61752946D01*
X49825225Y-61755828D01*
X50110939Y-61755828D01*
X50140203Y-61752946D01*
X50145181Y-61750883D01*
X50150557Y-61750502D01*
X50178021Y-61739992D01*
X50320878Y-61668564D01*
X50333469Y-61660637D01*
X50337132Y-61659121D01*
X50341254Y-61655737D01*
X50345764Y-61652899D01*
X50348359Y-61649906D01*
X50359862Y-61640466D01*
X50502719Y-61497608D01*
X50521374Y-61474877D01*
X50525640Y-61464575D01*
X50532281Y-61455614D01*
X50542174Y-61427923D01*
X50613603Y-61142209D01*
X50614353Y-61137136D01*
X50615200Y-61135092D01*
X50616285Y-61124072D01*
X50617905Y-61113120D01*
X50617579Y-61110931D01*
X50618082Y-61105828D01*
X50618082Y-60605828D01*
X50617579Y-60600724D01*
X50617905Y-60598536D01*
X50616285Y-60587583D01*
X50615200Y-60576564D01*
X50614353Y-60574519D01*
X50613603Y-60569447D01*
X50542174Y-60283733D01*
X50532281Y-60256042D01*
X50525641Y-60247081D01*
X50521374Y-60236778D01*
X50502719Y-60214048D01*
X50394499Y-60105828D01*
X50960939Y-60105828D01*
X50960939Y-61605828D01*
X50963821Y-61635092D01*
X50986219Y-61689164D01*
X51027603Y-61730548D01*
X51081675Y-61752946D01*
X51110939Y-61755828D01*
X51825225Y-61755828D01*
X51854489Y-61752946D01*
X51908561Y-61730548D01*
X51949945Y-61689164D01*
X51972343Y-61635092D01*
X51972343Y-61576564D01*
X51949945Y-61522492D01*
X51908561Y-61481108D01*
X51854489Y-61458710D01*
X51825225Y-61455828D01*
X51260939Y-61455828D01*
X51260939Y-60105828D01*
X52175225Y-60105828D01*
X52175225Y-61605828D01*
X52178107Y-61635092D01*
X52200505Y-61689164D01*
X52241889Y-61730548D01*
X52295961Y-61752946D01*
X52325225Y-61755828D01*
X53039511Y-61755828D01*
X53068775Y-61752946D01*
X53122847Y-61730548D01*
X53164231Y-61689164D01*
X53186629Y-61635092D01*
X53186629Y-61576564D01*
X53164231Y-61522492D01*
X53122847Y-61481108D01*
X53068775Y-61458710D01*
X53039511Y-61455828D01*
X52475225Y-61455828D01*
X52475225Y-60970114D01*
X52825225Y-60970114D01*
X52854489Y-60967232D01*
X52908561Y-60944834D01*
X52949945Y-60903450D01*
X52972343Y-60849378D01*
X52972343Y-60790850D01*
X52949945Y-60736778D01*
X52908561Y-60695394D01*
X52854489Y-60672996D01*
X52825225Y-60670114D01*
X52475225Y-60670114D01*
X52475225Y-60255828D01*
X53039511Y-60255828D01*
X53068775Y-60252946D01*
X53122847Y-60230548D01*
X53164231Y-60189164D01*
X53186629Y-60135092D01*
X53186629Y-60105828D01*
X53532368Y-60105828D01*
X53532368Y-61605828D01*
X53535250Y-61635092D01*
X53557648Y-61689164D01*
X53599032Y-61730548D01*
X53653104Y-61752946D01*
X53682368Y-61755828D01*
X54039511Y-61755828D01*
X54054316Y-61754369D01*
X54058271Y-61754651D01*
X54063472Y-61753468D01*
X54068775Y-61752946D01*
X54072432Y-61751430D01*
X54086945Y-61748131D01*
X54301231Y-61676703D01*
X54328082Y-61664715D01*
X54332153Y-61661183D01*
X54337133Y-61659121D01*
X54359863Y-61640466D01*
X54502720Y-61497608D01*
X54512158Y-61486106D01*
X54515153Y-61483510D01*
X54517993Y-61478996D01*
X54521375Y-61474877D01*
X54522890Y-61471217D01*
X54530818Y-61458624D01*
X54602247Y-61315768D01*
X54603066Y-61313625D01*
X54603711Y-61312756D01*
X54608095Y-61300484D01*
X54612756Y-61288304D01*
X54612832Y-61287223D01*
X54613604Y-61285065D01*
X54685032Y-60999351D01*
X54685781Y-60994279D01*
X54686629Y-60992235D01*
X54687714Y-60981212D01*
X54689334Y-60970262D01*
X54689008Y-60968074D01*
X54689511Y-60962971D01*
X54689511Y-60748685D01*
X54689008Y-60743581D01*
X54689334Y-60741394D01*
X54687714Y-60730443D01*
X54686629Y-60719421D01*
X54685781Y-60717376D01*
X54685032Y-60712305D01*
X54613604Y-60426591D01*
X54612832Y-60424432D01*
X54612756Y-60423352D01*
X54608095Y-60411171D01*
X54603711Y-60398900D01*
X54603066Y-60398030D01*
X54602247Y-60395888D01*
X54530818Y-60253032D01*
X54522891Y-60240440D01*
X54521375Y-60236778D01*
X54517991Y-60232655D01*
X54515153Y-60228146D01*
X54512160Y-60225550D01*
X54502720Y-60214048D01*
X54359863Y-60071191D01*
X54337132Y-60052536D01*
X54332152Y-60050473D01*
X54328082Y-60046943D01*
X54301231Y-60034954D01*
X54086945Y-59963526D01*
X54072437Y-59960227D01*
X54068775Y-59958710D01*
X54063466Y-59958187D01*
X54058272Y-59957006D01*
X54054322Y-59957286D01*
X54039511Y-59955828D01*
X53682368Y-59955828D01*
X53653104Y-59958710D01*
X53599032Y-59981108D01*
X53557648Y-60022492D01*
X53535250Y-60076564D01*
X53532368Y-60105828D01*
X53186629Y-60105828D01*
X53186629Y-60076564D01*
X53164231Y-60022492D01*
X53122847Y-59981108D01*
X53068775Y-59958710D01*
X53039511Y-59955828D01*
X52325225Y-59955828D01*
X52295961Y-59958710D01*
X52241889Y-59981108D01*
X52200505Y-60022492D01*
X52178107Y-60076564D01*
X52175225Y-60105828D01*
X51260939Y-60105828D01*
X51258057Y-60076564D01*
X51235659Y-60022492D01*
X51194275Y-59981108D01*
X51140203Y-59958710D01*
X51081675Y-59958710D01*
X51027603Y-59981108D01*
X50986219Y-60022492D01*
X50963821Y-60076564D01*
X50960939Y-60105828D01*
X50394499Y-60105828D01*
X50359862Y-60071191D01*
X50348360Y-60061751D01*
X50345764Y-60058758D01*
X50341250Y-60055917D01*
X50337131Y-60052536D01*
X50333471Y-60051020D01*
X50320878Y-60043093D01*
X50178021Y-59971664D01*
X50150558Y-59961155D01*
X50145183Y-59960773D01*
X50140203Y-59958710D01*
X50110939Y-59955828D01*
X49825225Y-59955828D01*
X49795961Y-59958710D01*
X49790980Y-59960773D01*
X49785606Y-59961155D01*
X49758142Y-59971664D01*
X49615286Y-60043093D01*
X49602692Y-60051020D01*
X49599033Y-60052536D01*
X49594913Y-60055917D01*
X49590400Y-60058758D01*
X49587803Y-60061752D01*
X49576302Y-60071191D01*
X49433444Y-60214048D01*
X49414789Y-60236778D01*
X49410520Y-60247083D01*
X49403882Y-60256043D01*
X49393989Y-60283734D01*
X49322561Y-60569448D01*
X49321811Y-60574519D01*
X49320964Y-60576564D01*
X49319878Y-60587586D01*
X49318259Y-60598537D01*
X49318584Y-60600724D01*
X49318082Y-60605828D01*
X49151415Y-60605828D01*
X49151415Y-59789161D01*
X54856178Y-59789161D01*
X54856178Y-61922495D01*
G37*
D11*
X70377295Y-50200832D02*
X69996342Y-50467499D01*
X70377295Y-50657975D02*
X69577295Y-50657975D01*
X69577295Y-50657975D02*
X69577295Y-50353213D01*
X69577295Y-50353213D02*
X69615390Y-50277023D01*
X69615390Y-50277023D02*
X69653485Y-50238928D01*
X69653485Y-50238928D02*
X69729676Y-50200832D01*
X69729676Y-50200832D02*
X69843961Y-50200832D01*
X69843961Y-50200832D02*
X69920152Y-50238928D01*
X69920152Y-50238928D02*
X69958247Y-50277023D01*
X69958247Y-50277023D02*
X69996342Y-50353213D01*
X69996342Y-50353213D02*
X69996342Y-50657975D01*
X69577295Y-49515118D02*
X69577295Y-49667499D01*
X69577295Y-49667499D02*
X69615390Y-49743690D01*
X69615390Y-49743690D02*
X69653485Y-49781785D01*
X69653485Y-49781785D02*
X69767771Y-49857975D01*
X69767771Y-49857975D02*
X69920152Y-49896071D01*
X69920152Y-49896071D02*
X70224914Y-49896071D01*
X70224914Y-49896071D02*
X70301104Y-49857975D01*
X70301104Y-49857975D02*
X70339200Y-49819880D01*
X70339200Y-49819880D02*
X70377295Y-49743690D01*
X70377295Y-49743690D02*
X70377295Y-49591309D01*
X70377295Y-49591309D02*
X70339200Y-49515118D01*
X70339200Y-49515118D02*
X70301104Y-49477023D01*
X70301104Y-49477023D02*
X70224914Y-49438928D01*
X70224914Y-49438928D02*
X70034438Y-49438928D01*
X70034438Y-49438928D02*
X69958247Y-49477023D01*
X69958247Y-49477023D02*
X69920152Y-49515118D01*
X69920152Y-49515118D02*
X69882057Y-49591309D01*
X69882057Y-49591309D02*
X69882057Y-49743690D01*
X69882057Y-49743690D02*
X69920152Y-49819880D01*
X69920152Y-49819880D02*
X69958247Y-49857975D01*
X69958247Y-49857975D02*
X70034438Y-49896071D01*
X59947295Y-45338333D02*
X59947295Y-45719285D01*
X59947295Y-45719285D02*
X59147295Y-45719285D01*
X59947295Y-44652619D02*
X59947295Y-45109762D01*
X59947295Y-44881190D02*
X59147295Y-44881190D01*
X59147295Y-44881190D02*
X59261580Y-44957381D01*
X59261580Y-44957381D02*
X59337771Y-45033571D01*
X59337771Y-45033571D02*
X59375866Y-45109762D01*
X83372295Y-22266666D02*
X83943723Y-22266666D01*
X83943723Y-22266666D02*
X84058009Y-22304761D01*
X84058009Y-22304761D02*
X84134200Y-22380952D01*
X84134200Y-22380952D02*
X84172295Y-22495237D01*
X84172295Y-22495237D02*
X84172295Y-22571428D01*
X83372295Y-21961904D02*
X83372295Y-21466666D01*
X83372295Y-21466666D02*
X83677057Y-21733332D01*
X83677057Y-21733332D02*
X83677057Y-21619047D01*
X83677057Y-21619047D02*
X83715152Y-21542856D01*
X83715152Y-21542856D02*
X83753247Y-21504761D01*
X83753247Y-21504761D02*
X83829438Y-21466666D01*
X83829438Y-21466666D02*
X84019914Y-21466666D01*
X84019914Y-21466666D02*
X84096104Y-21504761D01*
X84096104Y-21504761D02*
X84134200Y-21542856D01*
X84134200Y-21542856D02*
X84172295Y-21619047D01*
X84172295Y-21619047D02*
X84172295Y-21847618D01*
X84172295Y-21847618D02*
X84134200Y-21923809D01*
X84134200Y-21923809D02*
X84096104Y-21961904D01*
X69866667Y-55432295D02*
X69600000Y-55051342D01*
X69409524Y-55432295D02*
X69409524Y-54632295D01*
X69409524Y-54632295D02*
X69714286Y-54632295D01*
X69714286Y-54632295D02*
X69790476Y-54670390D01*
X69790476Y-54670390D02*
X69828571Y-54708485D01*
X69828571Y-54708485D02*
X69866667Y-54784676D01*
X69866667Y-54784676D02*
X69866667Y-54898961D01*
X69866667Y-54898961D02*
X69828571Y-54975152D01*
X69828571Y-54975152D02*
X69790476Y-55013247D01*
X69790476Y-55013247D02*
X69714286Y-55051342D01*
X69714286Y-55051342D02*
X69409524Y-55051342D01*
X70323809Y-54975152D02*
X70247619Y-54937057D01*
X70247619Y-54937057D02*
X70209524Y-54898961D01*
X70209524Y-54898961D02*
X70171428Y-54822771D01*
X70171428Y-54822771D02*
X70171428Y-54784676D01*
X70171428Y-54784676D02*
X70209524Y-54708485D01*
X70209524Y-54708485D02*
X70247619Y-54670390D01*
X70247619Y-54670390D02*
X70323809Y-54632295D01*
X70323809Y-54632295D02*
X70476190Y-54632295D01*
X70476190Y-54632295D02*
X70552381Y-54670390D01*
X70552381Y-54670390D02*
X70590476Y-54708485D01*
X70590476Y-54708485D02*
X70628571Y-54784676D01*
X70628571Y-54784676D02*
X70628571Y-54822771D01*
X70628571Y-54822771D02*
X70590476Y-54898961D01*
X70590476Y-54898961D02*
X70552381Y-54937057D01*
X70552381Y-54937057D02*
X70476190Y-54975152D01*
X70476190Y-54975152D02*
X70323809Y-54975152D01*
X70323809Y-54975152D02*
X70247619Y-55013247D01*
X70247619Y-55013247D02*
X70209524Y-55051342D01*
X70209524Y-55051342D02*
X70171428Y-55127533D01*
X70171428Y-55127533D02*
X70171428Y-55279914D01*
X70171428Y-55279914D02*
X70209524Y-55356104D01*
X70209524Y-55356104D02*
X70247619Y-55394200D01*
X70247619Y-55394200D02*
X70323809Y-55432295D01*
X70323809Y-55432295D02*
X70476190Y-55432295D01*
X70476190Y-55432295D02*
X70552381Y-55394200D01*
X70552381Y-55394200D02*
X70590476Y-55356104D01*
X70590476Y-55356104D02*
X70628571Y-55279914D01*
X70628571Y-55279914D02*
X70628571Y-55127533D01*
X70628571Y-55127533D02*
X70590476Y-55051342D01*
X70590476Y-55051342D02*
X70552381Y-55013247D01*
X70552381Y-55013247D02*
X70476190Y-54975152D01*
X59432295Y-32133332D02*
X59051342Y-32399999D01*
X59432295Y-32590475D02*
X58632295Y-32590475D01*
X58632295Y-32590475D02*
X58632295Y-32285713D01*
X58632295Y-32285713D02*
X58670390Y-32209523D01*
X58670390Y-32209523D02*
X58708485Y-32171428D01*
X58708485Y-32171428D02*
X58784676Y-32133332D01*
X58784676Y-32133332D02*
X58898961Y-32133332D01*
X58898961Y-32133332D02*
X58975152Y-32171428D01*
X58975152Y-32171428D02*
X59013247Y-32209523D01*
X59013247Y-32209523D02*
X59051342Y-32285713D01*
X59051342Y-32285713D02*
X59051342Y-32590475D01*
X58632295Y-31866666D02*
X58632295Y-31371428D01*
X58632295Y-31371428D02*
X58937057Y-31638094D01*
X58937057Y-31638094D02*
X58937057Y-31523809D01*
X58937057Y-31523809D02*
X58975152Y-31447618D01*
X58975152Y-31447618D02*
X59013247Y-31409523D01*
X59013247Y-31409523D02*
X59089438Y-31371428D01*
X59089438Y-31371428D02*
X59279914Y-31371428D01*
X59279914Y-31371428D02*
X59356104Y-31409523D01*
X59356104Y-31409523D02*
X59394200Y-31447618D01*
X59394200Y-31447618D02*
X59432295Y-31523809D01*
X59432295Y-31523809D02*
X59432295Y-31752380D01*
X59432295Y-31752380D02*
X59394200Y-31828571D01*
X59394200Y-31828571D02*
X59356104Y-31866666D01*
X64432295Y-32133332D02*
X64051342Y-32399999D01*
X64432295Y-32590475D02*
X63632295Y-32590475D01*
X63632295Y-32590475D02*
X63632295Y-32285713D01*
X63632295Y-32285713D02*
X63670390Y-32209523D01*
X63670390Y-32209523D02*
X63708485Y-32171428D01*
X63708485Y-32171428D02*
X63784676Y-32133332D01*
X63784676Y-32133332D02*
X63898961Y-32133332D01*
X63898961Y-32133332D02*
X63975152Y-32171428D01*
X63975152Y-32171428D02*
X64013247Y-32209523D01*
X64013247Y-32209523D02*
X64051342Y-32285713D01*
X64051342Y-32285713D02*
X64051342Y-32590475D01*
X63708485Y-31828571D02*
X63670390Y-31790475D01*
X63670390Y-31790475D02*
X63632295Y-31714285D01*
X63632295Y-31714285D02*
X63632295Y-31523809D01*
X63632295Y-31523809D02*
X63670390Y-31447618D01*
X63670390Y-31447618D02*
X63708485Y-31409523D01*
X63708485Y-31409523D02*
X63784676Y-31371428D01*
X63784676Y-31371428D02*
X63860866Y-31371428D01*
X63860866Y-31371428D02*
X63975152Y-31409523D01*
X63975152Y-31409523D02*
X64432295Y-31866666D01*
X64432295Y-31866666D02*
X64432295Y-31371428D01*
X59918333Y-75467295D02*
X59918333Y-76038723D01*
X59918333Y-76038723D02*
X59880238Y-76153009D01*
X59880238Y-76153009D02*
X59804047Y-76229200D01*
X59804047Y-76229200D02*
X59689762Y-76267295D01*
X59689762Y-76267295D02*
X59613571Y-76267295D01*
X60680238Y-75467295D02*
X60299286Y-75467295D01*
X60299286Y-75467295D02*
X60261190Y-75848247D01*
X60261190Y-75848247D02*
X60299286Y-75810152D01*
X60299286Y-75810152D02*
X60375476Y-75772057D01*
X60375476Y-75772057D02*
X60565952Y-75772057D01*
X60565952Y-75772057D02*
X60642143Y-75810152D01*
X60642143Y-75810152D02*
X60680238Y-75848247D01*
X60680238Y-75848247D02*
X60718333Y-75924438D01*
X60718333Y-75924438D02*
X60718333Y-76114914D01*
X60718333Y-76114914D02*
X60680238Y-76191104D01*
X60680238Y-76191104D02*
X60642143Y-76229200D01*
X60642143Y-76229200D02*
X60565952Y-76267295D01*
X60565952Y-76267295D02*
X60375476Y-76267295D01*
X60375476Y-76267295D02*
X60299286Y-76229200D01*
X60299286Y-76229200D02*
X60261190Y-76191104D01*
D12*
X68575476Y-62966775D02*
X68575476Y-63614394D01*
X68575476Y-63614394D02*
X68613571Y-63690584D01*
X68613571Y-63690584D02*
X68651666Y-63728680D01*
X68651666Y-63728680D02*
X68727857Y-63766775D01*
X68727857Y-63766775D02*
X68880238Y-63766775D01*
X68880238Y-63766775D02*
X68956428Y-63728680D01*
X68956428Y-63728680D02*
X68994523Y-63690584D01*
X68994523Y-63690584D02*
X69032619Y-63614394D01*
X69032619Y-63614394D02*
X69032619Y-62966775D01*
X69832618Y-63766775D02*
X69375475Y-63766775D01*
X69604047Y-63766775D02*
X69604047Y-62966775D01*
X69604047Y-62966775D02*
X69527856Y-63081060D01*
X69527856Y-63081060D02*
X69451666Y-63157251D01*
X69451666Y-63157251D02*
X69375475Y-63195346D01*
D11*
X77318333Y-51367295D02*
X77318333Y-51938723D01*
X77318333Y-51938723D02*
X77280238Y-52053009D01*
X77280238Y-52053009D02*
X77204047Y-52129200D01*
X77204047Y-52129200D02*
X77089762Y-52167295D01*
X77089762Y-52167295D02*
X77013571Y-52167295D01*
X78118333Y-52167295D02*
X77661190Y-52167295D01*
X77889762Y-52167295D02*
X77889762Y-51367295D01*
X77889762Y-51367295D02*
X77813571Y-51481580D01*
X77813571Y-51481580D02*
X77737381Y-51557771D01*
X77737381Y-51557771D02*
X77661190Y-51595866D01*
X61851667Y-42261104D02*
X61813571Y-42299200D01*
X61813571Y-42299200D02*
X61699286Y-42337295D01*
X61699286Y-42337295D02*
X61623095Y-42337295D01*
X61623095Y-42337295D02*
X61508809Y-42299200D01*
X61508809Y-42299200D02*
X61432619Y-42223009D01*
X61432619Y-42223009D02*
X61394524Y-42146819D01*
X61394524Y-42146819D02*
X61356428Y-41994438D01*
X61356428Y-41994438D02*
X61356428Y-41880152D01*
X61356428Y-41880152D02*
X61394524Y-41727771D01*
X61394524Y-41727771D02*
X61432619Y-41651580D01*
X61432619Y-41651580D02*
X61508809Y-41575390D01*
X61508809Y-41575390D02*
X61623095Y-41537295D01*
X61623095Y-41537295D02*
X61699286Y-41537295D01*
X61699286Y-41537295D02*
X61813571Y-41575390D01*
X61813571Y-41575390D02*
X61851667Y-41613485D01*
X62537381Y-41803961D02*
X62537381Y-42337295D01*
X62346905Y-41499200D02*
X62156428Y-42070628D01*
X62156428Y-42070628D02*
X62651667Y-42070628D01*
X61841104Y-49800832D02*
X61879200Y-49838928D01*
X61879200Y-49838928D02*
X61917295Y-49953213D01*
X61917295Y-49953213D02*
X61917295Y-50029404D01*
X61917295Y-50029404D02*
X61879200Y-50143690D01*
X61879200Y-50143690D02*
X61803009Y-50219880D01*
X61803009Y-50219880D02*
X61726819Y-50257975D01*
X61726819Y-50257975D02*
X61574438Y-50296071D01*
X61574438Y-50296071D02*
X61460152Y-50296071D01*
X61460152Y-50296071D02*
X61307771Y-50257975D01*
X61307771Y-50257975D02*
X61231580Y-50219880D01*
X61231580Y-50219880D02*
X61155390Y-50143690D01*
X61155390Y-50143690D02*
X61117295Y-50029404D01*
X61117295Y-50029404D02*
X61117295Y-49953213D01*
X61117295Y-49953213D02*
X61155390Y-49838928D01*
X61155390Y-49838928D02*
X61193485Y-49800832D01*
X61117295Y-49534166D02*
X61117295Y-49038928D01*
X61117295Y-49038928D02*
X61422057Y-49305594D01*
X61422057Y-49305594D02*
X61422057Y-49191309D01*
X61422057Y-49191309D02*
X61460152Y-49115118D01*
X61460152Y-49115118D02*
X61498247Y-49077023D01*
X61498247Y-49077023D02*
X61574438Y-49038928D01*
X61574438Y-49038928D02*
X61764914Y-49038928D01*
X61764914Y-49038928D02*
X61841104Y-49077023D01*
X61841104Y-49077023D02*
X61879200Y-49115118D01*
X61879200Y-49115118D02*
X61917295Y-49191309D01*
X61917295Y-49191309D02*
X61917295Y-49419880D01*
X61917295Y-49419880D02*
X61879200Y-49496071D01*
X61879200Y-49496071D02*
X61841104Y-49534166D01*
X67251667Y-44923604D02*
X67213571Y-44961700D01*
X67213571Y-44961700D02*
X67099286Y-44999795D01*
X67099286Y-44999795D02*
X67023095Y-44999795D01*
X67023095Y-44999795D02*
X66908809Y-44961700D01*
X66908809Y-44961700D02*
X66832619Y-44885509D01*
X66832619Y-44885509D02*
X66794524Y-44809319D01*
X66794524Y-44809319D02*
X66756428Y-44656938D01*
X66756428Y-44656938D02*
X66756428Y-44542652D01*
X66756428Y-44542652D02*
X66794524Y-44390271D01*
X66794524Y-44390271D02*
X66832619Y-44314080D01*
X66832619Y-44314080D02*
X66908809Y-44237890D01*
X66908809Y-44237890D02*
X67023095Y-44199795D01*
X67023095Y-44199795D02*
X67099286Y-44199795D01*
X67099286Y-44199795D02*
X67213571Y-44237890D01*
X67213571Y-44237890D02*
X67251667Y-44275985D01*
X67556428Y-44275985D02*
X67594524Y-44237890D01*
X67594524Y-44237890D02*
X67670714Y-44199795D01*
X67670714Y-44199795D02*
X67861190Y-44199795D01*
X67861190Y-44199795D02*
X67937381Y-44237890D01*
X67937381Y-44237890D02*
X67975476Y-44275985D01*
X67975476Y-44275985D02*
X68013571Y-44352176D01*
X68013571Y-44352176D02*
X68013571Y-44428366D01*
X68013571Y-44428366D02*
X67975476Y-44542652D01*
X67975476Y-44542652D02*
X67518333Y-44999795D01*
X67518333Y-44999795D02*
X68013571Y-44999795D01*
X59918333Y-65967295D02*
X59918333Y-66538723D01*
X59918333Y-66538723D02*
X59880238Y-66653009D01*
X59880238Y-66653009D02*
X59804047Y-66729200D01*
X59804047Y-66729200D02*
X59689762Y-66767295D01*
X59689762Y-66767295D02*
X59613571Y-66767295D01*
X60223095Y-65967295D02*
X60756429Y-65967295D01*
X60756429Y-65967295D02*
X60413571Y-66767295D01*
X79292295Y-26138332D02*
X78911342Y-26404999D01*
X79292295Y-26595475D02*
X78492295Y-26595475D01*
X78492295Y-26595475D02*
X78492295Y-26290713D01*
X78492295Y-26290713D02*
X78530390Y-26214523D01*
X78530390Y-26214523D02*
X78568485Y-26176428D01*
X78568485Y-26176428D02*
X78644676Y-26138332D01*
X78644676Y-26138332D02*
X78758961Y-26138332D01*
X78758961Y-26138332D02*
X78835152Y-26176428D01*
X78835152Y-26176428D02*
X78873247Y-26214523D01*
X78873247Y-26214523D02*
X78911342Y-26290713D01*
X78911342Y-26290713D02*
X78911342Y-26595475D01*
X78492295Y-25414523D02*
X78492295Y-25795475D01*
X78492295Y-25795475D02*
X78873247Y-25833571D01*
X78873247Y-25833571D02*
X78835152Y-25795475D01*
X78835152Y-25795475D02*
X78797057Y-25719285D01*
X78797057Y-25719285D02*
X78797057Y-25528809D01*
X78797057Y-25528809D02*
X78835152Y-25452618D01*
X78835152Y-25452618D02*
X78873247Y-25414523D01*
X78873247Y-25414523D02*
X78949438Y-25376428D01*
X78949438Y-25376428D02*
X79139914Y-25376428D01*
X79139914Y-25376428D02*
X79216104Y-25414523D01*
X79216104Y-25414523D02*
X79254200Y-25452618D01*
X79254200Y-25452618D02*
X79292295Y-25528809D01*
X79292295Y-25528809D02*
X79292295Y-25719285D01*
X79292295Y-25719285D02*
X79254200Y-25795475D01*
X79254200Y-25795475D02*
X79216104Y-25833571D01*
X88318333Y-54967295D02*
X88318333Y-55538723D01*
X88318333Y-55538723D02*
X88280238Y-55653009D01*
X88280238Y-55653009D02*
X88204047Y-55729200D01*
X88204047Y-55729200D02*
X88089762Y-55767295D01*
X88089762Y-55767295D02*
X88013571Y-55767295D01*
X89042143Y-55233961D02*
X89042143Y-55767295D01*
X88851667Y-54929200D02*
X88661190Y-55500628D01*
X88661190Y-55500628D02*
X89156429Y-55500628D01*
X74594524Y-46367295D02*
X74594524Y-45567295D01*
X74594524Y-45567295D02*
X74785000Y-45567295D01*
X74785000Y-45567295D02*
X74899286Y-45605390D01*
X74899286Y-45605390D02*
X74975476Y-45681580D01*
X74975476Y-45681580D02*
X75013571Y-45757771D01*
X75013571Y-45757771D02*
X75051667Y-45910152D01*
X75051667Y-45910152D02*
X75051667Y-46024438D01*
X75051667Y-46024438D02*
X75013571Y-46176819D01*
X75013571Y-46176819D02*
X74975476Y-46253009D01*
X74975476Y-46253009D02*
X74899286Y-46329200D01*
X74899286Y-46329200D02*
X74785000Y-46367295D01*
X74785000Y-46367295D02*
X74594524Y-46367295D01*
X75813571Y-46367295D02*
X75356428Y-46367295D01*
X75585000Y-46367295D02*
X75585000Y-45567295D01*
X75585000Y-45567295D02*
X75508809Y-45681580D01*
X75508809Y-45681580D02*
X75432619Y-45757771D01*
X75432619Y-45757771D02*
X75356428Y-45795866D01*
X69432295Y-32133332D02*
X69051342Y-32399999D01*
X69432295Y-32590475D02*
X68632295Y-32590475D01*
X68632295Y-32590475D02*
X68632295Y-32285713D01*
X68632295Y-32285713D02*
X68670390Y-32209523D01*
X68670390Y-32209523D02*
X68708485Y-32171428D01*
X68708485Y-32171428D02*
X68784676Y-32133332D01*
X68784676Y-32133332D02*
X68898961Y-32133332D01*
X68898961Y-32133332D02*
X68975152Y-32171428D01*
X68975152Y-32171428D02*
X69013247Y-32209523D01*
X69013247Y-32209523D02*
X69051342Y-32285713D01*
X69051342Y-32285713D02*
X69051342Y-32590475D01*
X69432295Y-31371428D02*
X69432295Y-31828571D01*
X69432295Y-31599999D02*
X68632295Y-31599999D01*
X68632295Y-31599999D02*
X68746580Y-31676190D01*
X68746580Y-31676190D02*
X68822771Y-31752380D01*
X68822771Y-31752380D02*
X68860866Y-31828571D01*
X69866667Y-61292295D02*
X69600000Y-60911342D01*
X69409524Y-61292295D02*
X69409524Y-60492295D01*
X69409524Y-60492295D02*
X69714286Y-60492295D01*
X69714286Y-60492295D02*
X69790476Y-60530390D01*
X69790476Y-60530390D02*
X69828571Y-60568485D01*
X69828571Y-60568485D02*
X69866667Y-60644676D01*
X69866667Y-60644676D02*
X69866667Y-60758961D01*
X69866667Y-60758961D02*
X69828571Y-60835152D01*
X69828571Y-60835152D02*
X69790476Y-60873247D01*
X69790476Y-60873247D02*
X69714286Y-60911342D01*
X69714286Y-60911342D02*
X69409524Y-60911342D01*
X70247619Y-61292295D02*
X70400000Y-61292295D01*
X70400000Y-61292295D02*
X70476190Y-61254200D01*
X70476190Y-61254200D02*
X70514286Y-61216104D01*
X70514286Y-61216104D02*
X70590476Y-61101819D01*
X70590476Y-61101819D02*
X70628571Y-60949438D01*
X70628571Y-60949438D02*
X70628571Y-60644676D01*
X70628571Y-60644676D02*
X70590476Y-60568485D01*
X70590476Y-60568485D02*
X70552381Y-60530390D01*
X70552381Y-60530390D02*
X70476190Y-60492295D01*
X70476190Y-60492295D02*
X70323809Y-60492295D01*
X70323809Y-60492295D02*
X70247619Y-60530390D01*
X70247619Y-60530390D02*
X70209524Y-60568485D01*
X70209524Y-60568485D02*
X70171428Y-60644676D01*
X70171428Y-60644676D02*
X70171428Y-60835152D01*
X70171428Y-60835152D02*
X70209524Y-60911342D01*
X70209524Y-60911342D02*
X70247619Y-60949438D01*
X70247619Y-60949438D02*
X70323809Y-60987533D01*
X70323809Y-60987533D02*
X70476190Y-60987533D01*
X70476190Y-60987533D02*
X70552381Y-60949438D01*
X70552381Y-60949438D02*
X70590476Y-60911342D01*
X70590476Y-60911342D02*
X70628571Y-60835152D01*
X84983333Y-34714795D02*
X84983333Y-35286223D01*
X84983333Y-35286223D02*
X84945238Y-35400509D01*
X84945238Y-35400509D02*
X84869047Y-35476700D01*
X84869047Y-35476700D02*
X84754762Y-35514795D01*
X84754762Y-35514795D02*
X84678571Y-35514795D01*
X85326190Y-34790985D02*
X85364286Y-34752890D01*
X85364286Y-34752890D02*
X85440476Y-34714795D01*
X85440476Y-34714795D02*
X85630952Y-34714795D01*
X85630952Y-34714795D02*
X85707143Y-34752890D01*
X85707143Y-34752890D02*
X85745238Y-34790985D01*
X85745238Y-34790985D02*
X85783333Y-34867176D01*
X85783333Y-34867176D02*
X85783333Y-34943366D01*
X85783333Y-34943366D02*
X85745238Y-35057652D01*
X85745238Y-35057652D02*
X85288095Y-35514795D01*
X85288095Y-35514795D02*
X85783333Y-35514795D01*
X76292295Y-26138332D02*
X75911342Y-26404999D01*
X76292295Y-26595475D02*
X75492295Y-26595475D01*
X75492295Y-26595475D02*
X75492295Y-26290713D01*
X75492295Y-26290713D02*
X75530390Y-26214523D01*
X75530390Y-26214523D02*
X75568485Y-26176428D01*
X75568485Y-26176428D02*
X75644676Y-26138332D01*
X75644676Y-26138332D02*
X75758961Y-26138332D01*
X75758961Y-26138332D02*
X75835152Y-26176428D01*
X75835152Y-26176428D02*
X75873247Y-26214523D01*
X75873247Y-26214523D02*
X75911342Y-26290713D01*
X75911342Y-26290713D02*
X75911342Y-26595475D01*
X75758961Y-25452618D02*
X76292295Y-25452618D01*
X75454200Y-25643094D02*
X76025628Y-25833571D01*
X76025628Y-25833571D02*
X76025628Y-25338332D01*
X65175476Y-46367295D02*
X65175476Y-47014914D01*
X65175476Y-47014914D02*
X65213571Y-47091104D01*
X65213571Y-47091104D02*
X65251666Y-47129200D01*
X65251666Y-47129200D02*
X65327857Y-47167295D01*
X65327857Y-47167295D02*
X65480238Y-47167295D01*
X65480238Y-47167295D02*
X65556428Y-47129200D01*
X65556428Y-47129200D02*
X65594523Y-47091104D01*
X65594523Y-47091104D02*
X65632619Y-47014914D01*
X65632619Y-47014914D02*
X65632619Y-46367295D01*
X65975475Y-46443485D02*
X66013571Y-46405390D01*
X66013571Y-46405390D02*
X66089761Y-46367295D01*
X66089761Y-46367295D02*
X66280237Y-46367295D01*
X66280237Y-46367295D02*
X66356428Y-46405390D01*
X66356428Y-46405390D02*
X66394523Y-46443485D01*
X66394523Y-46443485D02*
X66432618Y-46519676D01*
X66432618Y-46519676D02*
X66432618Y-46595866D01*
X66432618Y-46595866D02*
X66394523Y-46710152D01*
X66394523Y-46710152D02*
X65937380Y-47167295D01*
X65937380Y-47167295D02*
X66432618Y-47167295D01*
X59538485Y-27576190D02*
X59500390Y-27652380D01*
X59500390Y-27652380D02*
X59424200Y-27728571D01*
X59424200Y-27728571D02*
X59309914Y-27842857D01*
X59309914Y-27842857D02*
X59271819Y-27919047D01*
X59271819Y-27919047D02*
X59271819Y-27995238D01*
X59462295Y-27957142D02*
X59424200Y-28033333D01*
X59424200Y-28033333D02*
X59348009Y-28109523D01*
X59348009Y-28109523D02*
X59195628Y-28147619D01*
X59195628Y-28147619D02*
X58928961Y-28147619D01*
X58928961Y-28147619D02*
X58776580Y-28109523D01*
X58776580Y-28109523D02*
X58700390Y-28033333D01*
X58700390Y-28033333D02*
X58662295Y-27957142D01*
X58662295Y-27957142D02*
X58662295Y-27804761D01*
X58662295Y-27804761D02*
X58700390Y-27728571D01*
X58700390Y-27728571D02*
X58776580Y-27652380D01*
X58776580Y-27652380D02*
X58928961Y-27614285D01*
X58928961Y-27614285D02*
X59195628Y-27614285D01*
X59195628Y-27614285D02*
X59348009Y-27652380D01*
X59348009Y-27652380D02*
X59424200Y-27728571D01*
X59424200Y-27728571D02*
X59462295Y-27804761D01*
X59462295Y-27804761D02*
X59462295Y-27957142D01*
X58662295Y-27347619D02*
X58662295Y-26852381D01*
X58662295Y-26852381D02*
X58967057Y-27119047D01*
X58967057Y-27119047D02*
X58967057Y-27004762D01*
X58967057Y-27004762D02*
X59005152Y-26928571D01*
X59005152Y-26928571D02*
X59043247Y-26890476D01*
X59043247Y-26890476D02*
X59119438Y-26852381D01*
X59119438Y-26852381D02*
X59309914Y-26852381D01*
X59309914Y-26852381D02*
X59386104Y-26890476D01*
X59386104Y-26890476D02*
X59424200Y-26928571D01*
X59424200Y-26928571D02*
X59462295Y-27004762D01*
X59462295Y-27004762D02*
X59462295Y-27233333D01*
X59462295Y-27233333D02*
X59424200Y-27309524D01*
X59424200Y-27309524D02*
X59386104Y-27347619D01*
X69538485Y-27576190D02*
X69500390Y-27652380D01*
X69500390Y-27652380D02*
X69424200Y-27728571D01*
X69424200Y-27728571D02*
X69309914Y-27842857D01*
X69309914Y-27842857D02*
X69271819Y-27919047D01*
X69271819Y-27919047D02*
X69271819Y-27995238D01*
X69462295Y-27957142D02*
X69424200Y-28033333D01*
X69424200Y-28033333D02*
X69348009Y-28109523D01*
X69348009Y-28109523D02*
X69195628Y-28147619D01*
X69195628Y-28147619D02*
X68928961Y-28147619D01*
X68928961Y-28147619D02*
X68776580Y-28109523D01*
X68776580Y-28109523D02*
X68700390Y-28033333D01*
X68700390Y-28033333D02*
X68662295Y-27957142D01*
X68662295Y-27957142D02*
X68662295Y-27804761D01*
X68662295Y-27804761D02*
X68700390Y-27728571D01*
X68700390Y-27728571D02*
X68776580Y-27652380D01*
X68776580Y-27652380D02*
X68928961Y-27614285D01*
X68928961Y-27614285D02*
X69195628Y-27614285D01*
X69195628Y-27614285D02*
X69348009Y-27652380D01*
X69348009Y-27652380D02*
X69424200Y-27728571D01*
X69424200Y-27728571D02*
X69462295Y-27804761D01*
X69462295Y-27804761D02*
X69462295Y-27957142D01*
X69462295Y-26852381D02*
X69462295Y-27309524D01*
X69462295Y-27080952D02*
X68662295Y-27080952D01*
X68662295Y-27080952D02*
X68776580Y-27157143D01*
X68776580Y-27157143D02*
X68852771Y-27233333D01*
X68852771Y-27233333D02*
X68890866Y-27309524D01*
X59918333Y-56467295D02*
X59918333Y-57038723D01*
X59918333Y-57038723D02*
X59880238Y-57153009D01*
X59880238Y-57153009D02*
X59804047Y-57229200D01*
X59804047Y-57229200D02*
X59689762Y-57267295D01*
X59689762Y-57267295D02*
X59613571Y-57267295D01*
X60642143Y-56467295D02*
X60489762Y-56467295D01*
X60489762Y-56467295D02*
X60413571Y-56505390D01*
X60413571Y-56505390D02*
X60375476Y-56543485D01*
X60375476Y-56543485D02*
X60299286Y-56657771D01*
X60299286Y-56657771D02*
X60261190Y-56810152D01*
X60261190Y-56810152D02*
X60261190Y-57114914D01*
X60261190Y-57114914D02*
X60299286Y-57191104D01*
X60299286Y-57191104D02*
X60337381Y-57229200D01*
X60337381Y-57229200D02*
X60413571Y-57267295D01*
X60413571Y-57267295D02*
X60565952Y-57267295D01*
X60565952Y-57267295D02*
X60642143Y-57229200D01*
X60642143Y-57229200D02*
X60680238Y-57191104D01*
X60680238Y-57191104D02*
X60718333Y-57114914D01*
X60718333Y-57114914D02*
X60718333Y-56924438D01*
X60718333Y-56924438D02*
X60680238Y-56848247D01*
X60680238Y-56848247D02*
X60642143Y-56810152D01*
X60642143Y-56810152D02*
X60565952Y-56772057D01*
X60565952Y-56772057D02*
X60413571Y-56772057D01*
X60413571Y-56772057D02*
X60337381Y-56810152D01*
X60337381Y-56810152D02*
X60299286Y-56848247D01*
X60299286Y-56848247D02*
X60261190Y-56924438D01*
X66851667Y-54459795D02*
X66585000Y-54078842D01*
X66394524Y-54459795D02*
X66394524Y-53659795D01*
X66394524Y-53659795D02*
X66699286Y-53659795D01*
X66699286Y-53659795D02*
X66775476Y-53697890D01*
X66775476Y-53697890D02*
X66813571Y-53735985D01*
X66813571Y-53735985D02*
X66851667Y-53812176D01*
X66851667Y-53812176D02*
X66851667Y-53926461D01*
X66851667Y-53926461D02*
X66813571Y-54002652D01*
X66813571Y-54002652D02*
X66775476Y-54040747D01*
X66775476Y-54040747D02*
X66699286Y-54078842D01*
X66699286Y-54078842D02*
X66394524Y-54078842D01*
X67118333Y-53659795D02*
X67651667Y-53659795D01*
X67651667Y-53659795D02*
X67308809Y-54459795D01*
X64538485Y-27576190D02*
X64500390Y-27652380D01*
X64500390Y-27652380D02*
X64424200Y-27728571D01*
X64424200Y-27728571D02*
X64309914Y-27842857D01*
X64309914Y-27842857D02*
X64271819Y-27919047D01*
X64271819Y-27919047D02*
X64271819Y-27995238D01*
X64462295Y-27957142D02*
X64424200Y-28033333D01*
X64424200Y-28033333D02*
X64348009Y-28109523D01*
X64348009Y-28109523D02*
X64195628Y-28147619D01*
X64195628Y-28147619D02*
X63928961Y-28147619D01*
X63928961Y-28147619D02*
X63776580Y-28109523D01*
X63776580Y-28109523D02*
X63700390Y-28033333D01*
X63700390Y-28033333D02*
X63662295Y-27957142D01*
X63662295Y-27957142D02*
X63662295Y-27804761D01*
X63662295Y-27804761D02*
X63700390Y-27728571D01*
X63700390Y-27728571D02*
X63776580Y-27652380D01*
X63776580Y-27652380D02*
X63928961Y-27614285D01*
X63928961Y-27614285D02*
X64195628Y-27614285D01*
X64195628Y-27614285D02*
X64348009Y-27652380D01*
X64348009Y-27652380D02*
X64424200Y-27728571D01*
X64424200Y-27728571D02*
X64462295Y-27804761D01*
X64462295Y-27804761D02*
X64462295Y-27957142D01*
X63738485Y-27309524D02*
X63700390Y-27271428D01*
X63700390Y-27271428D02*
X63662295Y-27195238D01*
X63662295Y-27195238D02*
X63662295Y-27004762D01*
X63662295Y-27004762D02*
X63700390Y-26928571D01*
X63700390Y-26928571D02*
X63738485Y-26890476D01*
X63738485Y-26890476D02*
X63814676Y-26852381D01*
X63814676Y-26852381D02*
X63890866Y-26852381D01*
X63890866Y-26852381D02*
X64005152Y-26890476D01*
X64005152Y-26890476D02*
X64462295Y-27347619D01*
X64462295Y-27347619D02*
X64462295Y-26852381D01*
%TO.C,R6*%
D13*
X68062500Y-49830242D02*
X68062500Y-50304758D01*
X69107500Y-49830242D02*
X69107500Y-50304758D01*
%TO.C,L1*%
X63595000Y-47877500D02*
X60375000Y-47877500D01*
X60375000Y-44657500D02*
X63595000Y-44657500D01*
%TO.C,J3*%
X57190000Y-20620000D02*
X57190000Y-23380000D01*
X80160000Y-20620000D02*
X57190000Y-20620000D01*
X80160000Y-20620000D02*
X80160000Y-23380000D01*
X80160000Y-23380000D02*
X57190000Y-23380000D01*
X81430000Y-20620000D02*
X82810000Y-20620000D01*
X82810000Y-20620000D02*
X82810000Y-22000000D01*
%TO.C,R8*%
X69762742Y-55977500D02*
X70237258Y-55977500D01*
X69762742Y-57022500D02*
X70237258Y-57022500D01*
%TO.C,R3*%
X59977500Y-32237258D02*
X59977500Y-31762742D01*
X61022500Y-32237258D02*
X61022500Y-31762742D01*
%TO.C,R2*%
X64977500Y-32237258D02*
X64977500Y-31762742D01*
X66022500Y-32237258D02*
X66022500Y-31762742D01*
%TO.C,J5*%
X56575000Y-80165000D02*
X56575000Y-81765000D01*
X56575000Y-81765000D02*
X58375000Y-81765000D01*
X57845000Y-77295000D02*
X62525000Y-77295000D01*
X58375000Y-81765000D02*
X58375000Y-82705000D01*
X63795000Y-80165000D02*
X63795000Y-81765000D01*
X63795000Y-81765000D02*
X61995000Y-81765000D01*
%TO.C,U1*%
X68495000Y-64180000D02*
X91455000Y-64180000D01*
X91455000Y-82620000D01*
X68495000Y-82620000D01*
X68495000Y-64180000D01*
%TO.C,J1*%
X77080000Y-41880000D02*
X77080000Y-43550000D01*
X77080000Y-49450000D02*
X77080000Y-51120000D01*
X77080000Y-51120000D02*
X91820000Y-51120000D01*
X78300000Y-41880000D02*
X77080000Y-41880000D01*
X91820000Y-41880000D02*
X83700000Y-41880000D01*
X91820000Y-51120000D02*
X91820000Y-41880000D01*
%TO.C,C4*%
X61844420Y-42895000D02*
X62125580Y-42895000D01*
X61844420Y-43915000D02*
X62125580Y-43915000D01*
%TO.C,C3*%
X62475000Y-49808080D02*
X62475000Y-49526920D01*
X63495000Y-49808080D02*
X63495000Y-49526920D01*
%TO.C,C2*%
X67244420Y-45557500D02*
X67525580Y-45557500D01*
X67244420Y-46577500D02*
X67525580Y-46577500D01*
%TO.C,J7*%
X55950000Y-70665000D02*
X55950000Y-72265000D01*
X55950000Y-72265000D02*
X57750000Y-72265000D01*
X57220000Y-67795000D02*
X63150000Y-67795000D01*
X57750000Y-72265000D02*
X57750000Y-73205000D01*
X64420000Y-70665000D02*
X64420000Y-72265000D01*
X64420000Y-72265000D02*
X62620000Y-72265000D01*
%TO.C,R5*%
X76977500Y-25767742D02*
X76977500Y-26242258D01*
X78022500Y-25767742D02*
X78022500Y-26242258D01*
%TO.C,J4*%
X73380000Y-54280000D02*
X87620000Y-54280000D01*
X73380000Y-62720000D02*
X73380000Y-54280000D01*
X87620000Y-54280000D02*
X87620000Y-56180000D01*
X87620000Y-56180000D02*
X91620000Y-56180000D01*
X87620000Y-62420000D02*
X87620000Y-62720000D01*
X87620000Y-62720000D02*
X73380000Y-62720000D01*
X91620000Y-56180000D02*
X91620000Y-62420000D01*
X91620000Y-62420000D02*
X87620000Y-62420000D01*
%TO.C,D1*%
X70850000Y-52660000D02*
X70850000Y-46850000D01*
X70850000Y-52660000D02*
X75150000Y-52660000D01*
X75150000Y-52660000D02*
X75150000Y-46850000D01*
%TO.C,R1*%
X69977500Y-32237258D02*
X69977500Y-31762742D01*
X71022500Y-32237258D02*
X71022500Y-31762742D01*
%TO.C,R9*%
X70237258Y-58977500D02*
X69762742Y-58977500D01*
X70237258Y-60022500D02*
X69762742Y-60022500D01*
%TO.C,J2*%
X79880000Y-26112500D02*
X87200000Y-26112500D01*
X79880000Y-34152500D02*
X79880000Y-26112500D01*
X80688000Y-29532500D02*
X79880000Y-29532500D01*
X80688000Y-30532500D02*
X79880000Y-30532500D01*
X81957000Y-28232500D02*
X79880000Y-28232500D01*
X85620000Y-28232500D02*
X83043000Y-28232500D01*
X85620000Y-29532500D02*
X84312000Y-29532500D01*
X85620000Y-30532500D02*
X84312000Y-30532500D01*
X87800000Y-26112500D02*
X90620000Y-26112500D01*
X90620000Y-26112500D02*
X90620000Y-34152500D01*
X90620000Y-28232500D02*
X89380000Y-28232500D01*
X90620000Y-29532500D02*
X89380000Y-29532500D01*
X90620000Y-30532500D02*
X89380000Y-30532500D01*
X90620000Y-34152500D02*
X79880000Y-34152500D01*
X87500000Y-26112500D02*
X87060000Y-25502500D01*
X87940000Y-25502500D01*
X87500000Y-26112500D01*
G36*
X87500000Y-26112500D02*
G01*
X87060000Y-25502500D01*
X87940000Y-25502500D01*
X87500000Y-26112500D01*
G37*
%TO.C,R4*%
X73977500Y-25767742D02*
X73977500Y-26242258D01*
X75022500Y-25767742D02*
X75022500Y-26242258D01*
%TO.C,U2*%
X64025000Y-50377500D02*
X64025000Y-48557500D01*
X64075000Y-50377500D02*
X64025000Y-50377500D01*
X67145000Y-50377500D02*
X67095000Y-50377500D01*
X64025000Y-48557500D02*
X64075000Y-48557500D01*
X67095000Y-48557500D02*
X67145000Y-48557500D01*
X67145000Y-48557500D02*
X67145000Y-50377500D01*
X64075000Y-50917500D02*
X63745000Y-51157500D01*
X63745000Y-50677500D01*
X64075000Y-50917500D01*
G36*
X64075000Y-50917500D02*
G01*
X63745000Y-51157500D01*
X63745000Y-50677500D01*
X64075000Y-50917500D01*
G37*
%TO.C,Q3*%
X59940000Y-26740000D02*
X60940000Y-26740000D01*
X59940000Y-28260000D02*
X59940000Y-26740000D01*
X59990000Y-28260000D02*
X59940000Y-28260000D01*
X61890000Y-28260000D02*
X61110000Y-28260000D01*
X62060000Y-26740000D02*
X63060000Y-26740000D01*
X63060000Y-26740000D02*
X63060000Y-28260000D01*
X63060000Y-28260000D02*
X63010000Y-28260000D01*
X61120000Y-28800000D02*
X61450000Y-28560000D01*
X61450000Y-29040000D01*
X61120000Y-28800000D01*
G36*
X61450000Y-29040000D02*
G01*
X61120000Y-28800000D01*
X61450000Y-28560000D01*
X61450000Y-29040000D01*
G37*
%TO.C,Q1*%
X69940000Y-26740000D02*
X70940000Y-26740000D01*
X69940000Y-28260000D02*
X69940000Y-26740000D01*
X69990000Y-28260000D02*
X69940000Y-28260000D01*
X71890000Y-28260000D02*
X71110000Y-28260000D01*
X72060000Y-26740000D02*
X73060000Y-26740000D01*
X73060000Y-26740000D02*
X73060000Y-28260000D01*
X73060000Y-28260000D02*
X73010000Y-28260000D01*
X71120000Y-28800000D02*
X71450000Y-28560000D01*
X71450000Y-29040000D01*
X71120000Y-28800000D01*
G36*
X71450000Y-29040000D02*
G01*
X71120000Y-28800000D01*
X71450000Y-28560000D01*
X71450000Y-29040000D01*
G37*
%TO.C,J6*%
X55950000Y-61165000D02*
X55950000Y-62765000D01*
X55950000Y-62765000D02*
X57750000Y-62765000D01*
X57220000Y-58295000D02*
X63150000Y-58295000D01*
X57750000Y-62765000D02*
X57750000Y-63705000D01*
X64420000Y-61165000D02*
X64420000Y-62765000D01*
X64420000Y-62765000D02*
X62620000Y-62765000D01*
%TO.C,R7*%
X67222258Y-53190000D02*
X66747742Y-53190000D01*
X67222258Y-52145000D02*
X66747742Y-52145000D01*
%TO.C,Q2*%
X64940000Y-26740000D02*
X65940000Y-26740000D01*
X64940000Y-28260000D02*
X64940000Y-26740000D01*
X64990000Y-28260000D02*
X64940000Y-28260000D01*
X66890000Y-28260000D02*
X66110000Y-28260000D01*
X67060000Y-26740000D02*
X68060000Y-26740000D01*
X68060000Y-26740000D02*
X68060000Y-28260000D01*
X68060000Y-28260000D02*
X68010000Y-28260000D01*
X66120000Y-28800000D02*
X66450000Y-28560000D01*
X66450000Y-29040000D01*
X66120000Y-28800000D01*
G36*
X66450000Y-29040000D02*
G01*
X66120000Y-28800000D01*
X66450000Y-28560000D01*
X66450000Y-29040000D01*
G37*
%TD*%
M02*
