%TF.GenerationSoftware,KiCad,Pcbnew,10.0.4*%
%TF.CreationDate,2026-09-20T11:36:47+02:00*%
%TF.ProjectId,stepsew,73746570-7365-4772-9e6b-696361645f70,rev?*%
%TF.SameCoordinates,Original*%
%TF.FileFunction,Copper,L1,Top*%
%TF.FilePolarity,Positive*%
%FSLAX46Y46*%
G04 Gerber Fmt 4.6, Leading zero omitted, Abs format (unit mm)*
G04 Created by KiCad (PCBNEW 10.0.4) date 2026-09-20 11:36:47*
%MOMM*%
%LPD*%
G01*
G04 APERTURE LIST*
G04 Aperture macros list*
%AMRoundRect*
0 Rectangle with rounded corners*
0 $1 Rounding radius*
0 $2 $3 $4 $5 $6 $7 $8 $9 X,Y pos of 4 corners*
0 Add a 4 corners polygon primitive as box body*
4,1,4,$2,$3,$4,$5,$6,$7,$8,$9,$2,$3,0*
0 Add four circle primitives for the rounded corners*
1,1,$1+$1,$2,$3*
1,1,$1+$1,$4,$5*
1,1,$1+$1,$6,$7*
1,1,$1+$1,$8,$9*
0 Add four rect primitives between the rounded corners*
20,1,$1+$1,$2,$3,$4,$5,0*
20,1,$1+$1,$4,$5,$6,$7,0*
20,1,$1+$1,$6,$7,$8,$9,0*
20,1,$1+$1,$8,$9,$2,$3,0*%
G04 Aperture macros list end*
%TA.AperFunction,SMDPad,CuDef*%
%ADD10RoundRect,0.200000X-0.275000X0.200000X-0.275000X-0.200000X0.275000X-0.200000X0.275000X0.200000X0*%
%TD*%
%TA.AperFunction,SMDPad,CuDef*%
%ADD11RoundRect,0.200000X0.200000X1.150000X-0.200000X1.150000X-0.200000X-1.150000X0.200000X-1.150000X0*%
%TD*%
%TA.AperFunction,ComponentPad*%
%ADD12R,1.700000X1.700000*%
%TD*%
%TA.AperFunction,ComponentPad*%
%ADD13C,1.700000*%
%TD*%
%TA.AperFunction,SMDPad,CuDef*%
%ADD14RoundRect,0.200000X-0.200000X-0.275000X0.200000X-0.275000X0.200000X0.275000X-0.200000X0.275000X0*%
%TD*%
%TA.AperFunction,SMDPad,CuDef*%
%ADD15RoundRect,0.200000X0.275000X-0.200000X0.275000X0.200000X-0.275000X0.200000X-0.275000X-0.200000X0*%
%TD*%
%TA.AperFunction,SMDPad,CuDef*%
%ADD16RoundRect,0.150000X-0.150000X-0.700000X0.150000X-0.700000X0.150000X0.700000X-0.150000X0.700000X0*%
%TD*%
%TA.AperFunction,SMDPad,CuDef*%
%ADD17RoundRect,0.250000X-0.250000X-1.150000X0.250000X-1.150000X0.250000X1.150000X-0.250000X1.150000X0*%
%TD*%
%TA.AperFunction,ComponentPad*%
%ADD18RoundRect,0.666667X-0.333333X0.583333X-0.333333X-0.583333X0.333333X-0.583333X0.333333X0.583333X0*%
%TD*%
%TA.AperFunction,ComponentPad*%
%ADD19R,2.000000X4.500000*%
%TD*%
%TA.AperFunction,ComponentPad*%
%ADD20O,2.000000X4.000000*%
%TD*%
%TA.AperFunction,ComponentPad*%
%ADD21O,4.000000X2.000000*%
%TD*%
%TA.AperFunction,SMDPad,CuDef*%
%ADD22RoundRect,0.225000X-0.225000X-0.250000X0.225000X-0.250000X0.225000X0.250000X-0.225000X0.250000X0*%
%TD*%
%TA.AperFunction,SMDPad,CuDef*%
%ADD23RoundRect,0.225000X0.250000X-0.225000X0.250000X0.225000X-0.250000X0.225000X-0.250000X-0.225000X0*%
%TD*%
%TA.AperFunction,ComponentPad*%
%ADD24O,1.800000X2.800000*%
%TD*%
%TA.AperFunction,SMDPad,CuDef*%
%ADD25RoundRect,0.250000X0.900000X-1.000000X0.900000X1.000000X-0.900000X1.000000X-0.900000X-1.000000X0*%
%TD*%
%TA.AperFunction,SMDPad,CuDef*%
%ADD26RoundRect,0.200000X0.200000X0.275000X-0.200000X0.275000X-0.200000X-0.275000X0.200000X-0.275000X0*%
%TD*%
%TA.AperFunction,ComponentPad*%
%ADD27RoundRect,0.250001X1.149999X1.149999X-1.149999X1.149999X-1.149999X-1.149999X1.149999X-1.149999X0*%
%TD*%
%TA.AperFunction,ComponentPad*%
%ADD28C,2.800000*%
%TD*%
%TA.AperFunction,SMDPad,CuDef*%
%ADD29RoundRect,0.150000X0.150000X-0.512500X0.150000X0.512500X-0.150000X0.512500X-0.150000X-0.512500X0*%
%TD*%
%TA.AperFunction,SMDPad,CuDef*%
%ADD30RoundRect,0.150000X0.150000X-0.587500X0.150000X0.587500X-0.150000X0.587500X-0.150000X-0.587500X0*%
%TD*%
%TA.AperFunction,ViaPad*%
%ADD31C,0.600000*%
%TD*%
%TA.AperFunction,Conductor*%
%ADD32C,0.500000*%
%TD*%
%TA.AperFunction,Conductor*%
%ADD33C,0.300000*%
%TD*%
G04 APERTURE END LIST*
D10*
%TO.P,R6,2*%
%TO.N,Net-(U2-FB)*%
X68585000Y-50892500D03*
%TO.P,R6,1*%
%TO.N,+5V*%
X68585000Y-49242500D03*
%TD*%
D11*
%TO.P,L1,1,1_1*%
%TO.N,Net-(U2-SW)*%
X63135000Y-46267500D03*
%TO.P,L1,2,2_2*%
%TO.N,+5V*%
X60835000Y-46267500D03*
%TD*%
D12*
%TO.P,J3,1,Pin_1_1*%
%TO.N,/~{ALM}*%
X81430000Y-22000000D03*
D13*
%TO.P,J3,2,Pin_2_2*%
%TO.N,Net-(J3-Pin_2)*%
X78890000Y-22000000D03*
%TO.P,J3,3,Pin_3_3*%
%TO.N,/~{PED}*%
X76350000Y-22000000D03*
%TO.P,J3,4,Pin_4_4*%
%TO.N,Net-(J3-Pin_4)*%
X73810000Y-22000000D03*
%TO.P,J3,5,Pin_5_5*%
%TO.N,Net-(J3-Pin_5)*%
X71270000Y-22000000D03*
%TO.P,J3,6,Pin_6_6*%
%TO.N,+5V*%
X68730000Y-22000000D03*
%TO.P,J3,7,Pin_7_7*%
%TO.N,Net-(J3-Pin_7)*%
X66190000Y-22000000D03*
%TO.P,J3,8,Pin_8_8*%
%TO.N,+5V*%
X63650000Y-22000000D03*
%TO.P,J3,9,Pin_9_9*%
%TO.N,Net-(J3-Pin_9)*%
X61110000Y-22000000D03*
%TO.P,J3,10,Pin_10_10*%
%TO.N,+5V*%
X58570000Y-22000000D03*
%TD*%
D14*
%TO.P,R8,1*%
%TO.N,+3V3*%
X69175000Y-56500000D03*
%TO.P,R8,2*%
%TO.N,/PEDAL*%
X70825000Y-56500000D03*
%TD*%
D15*
%TO.P,R3,1*%
%TO.N,/~{PUL}*%
X60500000Y-32825000D03*
%TO.P,R3,2*%
%TO.N,Net-(Q3-B)*%
X60500000Y-31175000D03*
%TD*%
%TO.P,R2,1*%
%TO.N,/~{DIR}*%
X65500000Y-32825000D03*
%TO.P,R2,2*%
%TO.N,Net-(Q2-B)*%
X65500000Y-31175000D03*
%TD*%
D16*
%TO.P,J5,1,Pin_1_1*%
%TO.N,+5V*%
X58935000Y-81855000D03*
%TO.P,J5,2,Pin_2_2*%
%TO.N,/Sensor*%
X60185000Y-81855000D03*
%TO.P,J5,3,Pin_3_3*%
%TO.N,GND*%
X61435000Y-81855000D03*
D17*
%TO.P,J5,MP*%
%TO.N,N/C*%
X57085000Y-78505000D03*
X63285000Y-78505000D03*
%TD*%
D18*
%TO.P,U1,0,GPIO0_0*%
%TO.N,/PEDAL*%
X71085000Y-81020000D03*
%TO.P,U1,1,GPIO1_1*%
%TO.N,/Sensor*%
X73625000Y-81020000D03*
%TO.P,U1,2,GPIO2_2*%
%TO.N,/Enc_SW*%
X76165000Y-81020000D03*
%TO.P,U1,3,GPIO3_3*%
%TO.N,/Enc_B*%
X78705000Y-81020000D03*
%TO.P,U1,3V3,3V3_3V3*%
%TO.N,+3V3*%
X83785000Y-81020000D03*
%TO.P,U1,4,GPIO4_4*%
%TO.N,/Enc_A*%
X81245000Y-81020000D03*
%TO.P,U1,5,GPIO5_5*%
%TO.N,unconnected-(U1-GPIO5-Pad5)*%
X88865000Y-65780000D03*
%TO.P,U1,5V,5V_5V*%
%TO.N,+5V*%
X88865000Y-81020000D03*
%TO.P,U1,6,GPIO6_6*%
%TO.N,/SDA*%
X86325000Y-65780000D03*
%TO.P,U1,7,GPIO7_7*%
%TO.N,/SCL*%
X83785000Y-65780000D03*
%TO.P,U1,8,GPIO8_8*%
%TO.N,/~{ENA}*%
X81245000Y-65780000D03*
%TO.P,U1,9,GPIO9_9*%
%TO.N,/~{DIR}*%
X78705000Y-65780000D03*
%TO.P,U1,10,GPIO10_10*%
%TO.N,/~{PUL}*%
X76165000Y-65780000D03*
%TO.P,U1,20,GPIO20_20*%
%TO.N,/~{ALM}*%
X73625000Y-65780000D03*
%TO.P,U1,21,GPIO21_21*%
%TO.N,/~{PED}*%
X71085000Y-65780000D03*
%TO.P,U1,GND,GND_GND*%
%TO.N,GND*%
X86325000Y-81020000D03*
%TD*%
D19*
%TO.P,J1,1*%
%TO.N,+36V*%
X77800000Y-46500000D03*
D20*
%TO.P,J1,2*%
%TO.N,GND*%
X84000000Y-46500000D03*
D21*
%TO.P,J1,3*%
%TO.N,N/C*%
X81000000Y-41800000D03*
%TD*%
D22*
%TO.P,C4,1*%
%TO.N,+5V*%
X61210000Y-43405000D03*
%TO.P,C4,2*%
%TO.N,GND*%
X62760000Y-43405000D03*
%TD*%
D23*
%TO.P,C3,1*%
%TO.N,Net-(U2-CB)*%
X62985000Y-50442500D03*
%TO.P,C3,2*%
%TO.N,Net-(U2-SW)*%
X62985000Y-48892500D03*
%TD*%
D22*
%TO.P,C2,1*%
%TO.N,+36V*%
X66610000Y-46067500D03*
%TO.P,C2,2*%
%TO.N,GND*%
X68160000Y-46067500D03*
%TD*%
D16*
%TO.P,J7,1,Pin_1_1*%
%TO.N,/Enc_A*%
X58310000Y-72355000D03*
%TO.P,J7,2,Pin_2_2*%
%TO.N,/Enc_B*%
X59560000Y-72355000D03*
%TO.P,J7,3,Pin_3_3*%
%TO.N,/Enc_SW*%
X60810000Y-72355000D03*
%TO.P,J7,4,Pin_4_4*%
%TO.N,GND*%
X62060000Y-72355000D03*
D17*
%TO.P,J7,MP*%
%TO.N,N/C*%
X56460000Y-69005000D03*
X63910000Y-69005000D03*
%TD*%
D10*
%TO.P,R5,1*%
%TO.N,Net-(J3-Pin_2)*%
X77500000Y-25180000D03*
%TO.P,R5,2*%
%TO.N,+3V3*%
X77500000Y-26830000D03*
%TD*%
D24*
%TO.P,J4,R*%
%TO.N,N/C*%
X78400000Y-60400000D03*
%TO.P,J4,S*%
%TO.N,/PEDAL*%
X86300000Y-58400000D03*
%TO.P,J4,T*%
%TO.N,Net-(J4-PadT)*%
X83900000Y-60400000D03*
%TD*%
D25*
%TO.P,D1,1,A1_1*%
%TO.N,GND*%
X73000000Y-51150000D03*
%TO.P,D1,2,A2_2*%
%TO.N,+36V*%
X73000000Y-46850000D03*
%TD*%
D15*
%TO.P,R1,1*%
%TO.N,/~{ENA}*%
X70500000Y-32825000D03*
%TO.P,R1,2*%
%TO.N,Net-(Q1-B)*%
X70500000Y-31175000D03*
%TD*%
D26*
%TO.P,R9,1*%
%TO.N,Net-(J4-PadT)*%
X70825000Y-59500000D03*
%TO.P,R9,2*%
%TO.N,GND*%
X69175000Y-59500000D03*
%TD*%
D27*
%TO.P,J2,1,Pin_1_1*%
%TO.N,GND*%
X87500000Y-30032500D03*
D28*
%TO.P,J2,2,Pin_2_2*%
%TO.N,+36V*%
X82500000Y-30032500D03*
%TD*%
D10*
%TO.P,R4,1*%
%TO.N,Net-(J3-Pin_4)*%
X74500000Y-25180000D03*
%TO.P,R4,2*%
%TO.N,+3V3*%
X74500000Y-26830000D03*
%TD*%
D29*
%TO.P,U2,1,CB_1*%
%TO.N,Net-(U2-CB)*%
X64635000Y-50605000D03*
%TO.P,U2,2,GND_2*%
%TO.N,GND*%
X65585000Y-50605000D03*
%TO.P,U2,3,FB_3*%
%TO.N,Net-(U2-FB)*%
X66535000Y-50605000D03*
%TO.P,U2,4,~{SHDN}_4*%
%TO.N,+36V*%
X66535000Y-48330000D03*
%TO.P,U2,5,VIN_5*%
X65585000Y-48330000D03*
%TO.P,U2,6,SW_6*%
%TO.N,Net-(U2-SW)*%
X64635000Y-48330000D03*
%TD*%
D30*
%TO.P,Q3,1,B_1*%
%TO.N,Net-(Q3-B)*%
X60550000Y-28437500D03*
%TO.P,Q3,2,E_2*%
%TO.N,GND*%
X62450000Y-28437500D03*
%TO.P,Q3,3,C_3*%
%TO.N,Net-(J3-Pin_9)*%
X61500000Y-26562500D03*
%TD*%
%TO.P,Q1,1,B_1*%
%TO.N,Net-(Q1-B)*%
X70550000Y-28437500D03*
%TO.P,Q1,2,E_2*%
%TO.N,GND*%
X72450000Y-28437500D03*
%TO.P,Q1,3,C_3*%
%TO.N,Net-(J3-Pin_5)*%
X71500000Y-26562500D03*
%TD*%
D16*
%TO.P,J6,1,Pin_1_1*%
%TO.N,+3V3*%
X58310000Y-62855000D03*
%TO.P,J6,2,Pin_2_2*%
%TO.N,GND*%
X59560000Y-62855000D03*
%TO.P,J6,3,Pin_3_3*%
%TO.N,/SCL*%
X60810000Y-62855000D03*
%TO.P,J6,4,Pin_4_4*%
%TO.N,/SDA*%
X62060000Y-62855000D03*
D17*
%TO.P,J6,MP*%
%TO.N,N/C*%
X56460000Y-59505000D03*
X63910000Y-59505000D03*
%TD*%
D26*
%TO.P,R7,1*%
%TO.N,Net-(U2-FB)*%
X67810000Y-52667500D03*
%TO.P,R7,2*%
%TO.N,GND*%
X66160000Y-52667500D03*
%TD*%
D30*
%TO.P,Q2,1,B_1*%
%TO.N,Net-(Q2-B)*%
X65550000Y-28437500D03*
%TO.P,Q2,2,E_2*%
%TO.N,GND*%
X67450000Y-28437500D03*
%TO.P,Q2,3,C_3*%
%TO.N,Net-(J3-Pin_7)*%
X66500000Y-26562500D03*
%TD*%
D31*
%TO.N,GND*%
X55385000Y-67205000D03*
X58185000Y-64605000D03*
X64185000Y-63805000D03*
X61985000Y-70205000D03*
X63385000Y-72405000D03*
X82185000Y-61405000D03*
X64985000Y-84205000D03*
X59785000Y-76805000D03*
X62585000Y-81805000D03*
%TO.N,/PEDAL*%
X66985000Y-61605000D03*
%TO.N,GND*%
X64985000Y-52605000D03*
X69185000Y-60605000D03*
X62385000Y-26605000D03*
X67385000Y-26605000D03*
X72385000Y-26605000D03*
X62785000Y-42005000D03*
X63985000Y-43405000D03*
X69185000Y-46005000D03*
%TO.N,+5V*%
X60585000Y-48405000D03*
%TO.N,+3V3*%
X69985000Y-50005000D03*
X73585000Y-26805000D03*
X76585000Y-27005000D03*
X73585000Y-26805000D03*
%TO.N,+5V*%
X60385000Y-44205000D03*
%TO.N,/~{PUL}*%
X57035000Y-51805000D03*
%TO.N,/~{DIR}*%
X57385000Y-52605000D03*
%TO.N,/~{ENA}*%
X58035000Y-53405000D03*
%TO.N,/~{PED}*%
X58384997Y-56005000D03*
%TO.N,/~{ALM}*%
X59185000Y-56005000D03*
%TO.N,/Sensor*%
X66274340Y-85255000D03*
%TO.N,+5V*%
X60585000Y-48405000D03*
X68585000Y-48405000D03*
%TD*%
%TO.N,GND*%
D32*
X62060000Y-70280000D02*
X61985000Y-70205000D01*
X62060000Y-72355000D02*
X62060000Y-70280000D01*
X63335000Y-72355000D02*
X63385000Y-72405000D01*
X62060000Y-72355000D02*
X63335000Y-72355000D01*
%TO.N,/~{ALM}*%
D33*
X81430000Y-22000000D02*
X81390000Y-22000000D01*
X81390000Y-22000000D02*
X78785000Y-24605000D01*
X78785000Y-24605000D02*
X78785000Y-26803358D01*
X60848424Y-35305000D02*
X59185000Y-36968424D01*
X78785000Y-26803358D02*
X77583358Y-28005000D01*
X77583358Y-28005000D02*
X75292106Y-28005000D01*
X59185000Y-36968424D02*
X59185000Y-56005000D01*
X75292106Y-28005000D02*
X72085000Y-31212106D01*
X72085000Y-31212106D02*
X72085000Y-33212107D01*
X72085000Y-33212107D02*
X69992106Y-35305000D01*
X69992106Y-35305000D02*
X60848424Y-35305000D01*
%TO.N,GND*%
D32*
X62535000Y-81855000D02*
X62585000Y-81805000D01*
X61435000Y-81855000D02*
X62535000Y-81855000D01*
%TO.N,/PEDAL*%
D33*
X66985000Y-60340000D02*
X66985000Y-61605000D01*
X70825000Y-56500000D02*
X66985000Y-60340000D01*
%TO.N,+3V3*%
D32*
X69985000Y-50005000D02*
X69985000Y-55690000D01*
X69985000Y-55690000D02*
X69175000Y-56500000D01*
%TO.N,GND*%
X65047500Y-52667500D02*
X64985000Y-52605000D01*
X66160000Y-52667500D02*
X65047500Y-52667500D01*
X69175000Y-60595000D02*
X69185000Y-60605000D01*
X69175000Y-59500000D02*
X69175000Y-60595000D01*
%TO.N,Net-(J4-PadT)*%
D33*
X83900000Y-60400000D02*
X80905000Y-57405000D01*
X80905000Y-57405000D02*
X72920000Y-57405000D01*
X72920000Y-57405000D02*
X70825000Y-59500000D01*
%TO.N,/SDA*%
X62060000Y-62855000D02*
X62510000Y-62405000D01*
X62510000Y-62405000D02*
X83385000Y-62405000D01*
X83385000Y-62405000D02*
X86110000Y-65130000D01*
X86110000Y-65130000D02*
X86325000Y-65130000D01*
%TO.N,GND*%
D32*
X62450000Y-26670000D02*
X62385000Y-26605000D01*
X62450000Y-28437500D02*
X62450000Y-26670000D01*
X67450000Y-26670000D02*
X67385000Y-26605000D01*
X67450000Y-28437500D02*
X67450000Y-26670000D01*
X72450000Y-26670000D02*
X72385000Y-26605000D01*
X72450000Y-28437500D02*
X72450000Y-26670000D01*
X62760000Y-42030000D02*
X62785000Y-42005000D01*
X62760000Y-43405000D02*
X62760000Y-42030000D01*
X62760000Y-43405000D02*
X63985000Y-43405000D01*
X69122500Y-46067500D02*
X69185000Y-46005000D01*
X68160000Y-46067500D02*
X69122500Y-46067500D01*
%TO.N,+5V*%
X58935000Y-81855000D02*
X58935000Y-75668477D01*
X58935000Y-75668477D02*
X57621523Y-74355000D01*
X57560000Y-60440050D02*
X60585000Y-57415050D01*
X60585000Y-57415050D02*
X60585000Y-48405000D01*
X57621523Y-74355000D02*
X57617366Y-74355000D01*
X57617366Y-74355000D02*
X53685000Y-70422633D01*
X53685000Y-70422633D02*
X53685000Y-66490050D01*
X53685000Y-66490050D02*
X57560000Y-62615050D01*
X57560000Y-62615050D02*
X57560000Y-60440050D01*
%TO.N,+3V3*%
X82185000Y-83005000D02*
X83410000Y-81780000D01*
X78785000Y-85005000D02*
X80785000Y-83005000D01*
X67085000Y-85005000D02*
X78785000Y-85005000D01*
X63722260Y-76005000D02*
X64985000Y-77267740D01*
X64985000Y-82905000D02*
X67085000Y-85005000D01*
X64985000Y-77267740D02*
X64985000Y-82905000D01*
X80785000Y-83005000D02*
X82185000Y-83005000D01*
X60261473Y-76005000D02*
X63722260Y-76005000D01*
X57911473Y-73655000D02*
X60261473Y-76005000D01*
X54385000Y-66780000D02*
X54385000Y-70132684D01*
X57907316Y-73655000D02*
X57911473Y-73655000D01*
X54385000Y-70132684D02*
X57907316Y-73655000D01*
X58310000Y-62855000D02*
X54385000Y-66780000D01*
X83410000Y-81780000D02*
X83785000Y-81780000D01*
%TO.N,/Sensor*%
D33*
X66274340Y-85255000D02*
X66025428Y-85006088D01*
X66025428Y-85006088D02*
X62786088Y-85006088D01*
X62786088Y-85006088D02*
X60185000Y-82405000D01*
X60185000Y-82405000D02*
X60185000Y-81855000D01*
%TO.N,/Enc_A*%
X58310000Y-72355000D02*
X58310000Y-73204999D01*
X58310000Y-73204999D02*
X60510001Y-75405000D01*
X60510001Y-75405000D02*
X63970788Y-75405000D01*
X63970788Y-75405000D02*
X65585000Y-77019212D01*
X65585000Y-77019212D02*
X65585000Y-82605000D01*
X65585000Y-82605000D02*
X67385000Y-84405000D01*
X67385000Y-84405000D02*
X78520000Y-84405000D01*
X78520000Y-84405000D02*
X81245000Y-81680000D01*
%TO.N,/Enc_B*%
X59560000Y-72355000D02*
X59560000Y-73204999D01*
X59560000Y-73204999D02*
X61160001Y-74805000D01*
X61160001Y-74805000D02*
X64077894Y-74805000D01*
X64077894Y-74805000D02*
X66085000Y-76812106D01*
X66085000Y-76812106D02*
X66085000Y-82305000D01*
X66085000Y-82305000D02*
X67685000Y-83905000D01*
X67685000Y-83905000D02*
X76480000Y-83905000D01*
X76480000Y-83905000D02*
X78705000Y-81680000D01*
%TO.N,/Enc_SW*%
X60810000Y-72355000D02*
X60810000Y-73204999D01*
X60810000Y-73204999D02*
X61810001Y-74205000D01*
X61810001Y-74205000D02*
X64185000Y-74205000D01*
X64185000Y-74205000D02*
X66585000Y-76605000D01*
X66585000Y-76605000D02*
X66585000Y-82097894D01*
X66585000Y-82097894D02*
X67892106Y-83405000D01*
X67892106Y-83405000D02*
X75185000Y-83405000D01*
X75185000Y-83405000D02*
X76165000Y-82425000D01*
X76165000Y-82425000D02*
X76165000Y-81680000D01*
%TO.N,+5V*%
D32*
X58935000Y-81855000D02*
X58935000Y-82704999D01*
X58935000Y-82704999D02*
X62235001Y-86005000D01*
X62235001Y-86005000D02*
X86585000Y-86005000D01*
X86585000Y-86005000D02*
X88865000Y-83725000D01*
X88865000Y-83725000D02*
X88865000Y-81802221D01*
X88865000Y-81802221D02*
X88843700Y-81780921D01*
%TO.N,+3V3*%
X69175000Y-56500000D02*
X62490000Y-56500000D01*
X62490000Y-56500000D02*
X58310000Y-60680000D01*
X58310000Y-60680000D02*
X58310000Y-62855000D01*
X76760000Y-26830000D02*
X76585000Y-27005000D01*
X77500000Y-26830000D02*
X76760000Y-26830000D01*
X73610000Y-26830000D02*
X73585000Y-26805000D01*
X74500000Y-26830000D02*
X73610000Y-26830000D01*
%TO.N,/~{PUL}*%
D33*
X60500000Y-32825000D02*
X57185000Y-36140000D01*
X57185000Y-36140000D02*
X57185000Y-51655000D01*
X57185000Y-51655000D02*
X57035000Y-51805000D01*
%TO.N,/~{DIR}*%
X57385000Y-52605000D02*
X57685000Y-52305000D01*
X57685000Y-52305000D02*
X57685000Y-36347106D01*
X57685000Y-36347106D02*
X60227106Y-33805000D01*
X60227106Y-33805000D02*
X64520000Y-33805000D01*
X64520000Y-33805000D02*
X65500000Y-32825000D01*
%TO.N,/~{ENA}*%
X60434212Y-34305000D02*
X69020000Y-34305000D01*
X58035000Y-53405000D02*
X58185000Y-53255000D01*
X58185000Y-53255000D02*
X58185000Y-36554212D01*
X69020000Y-34305000D02*
X70500000Y-32825000D01*
X58185000Y-36554212D02*
X60434212Y-34305000D01*
%TO.N,/~{PED}*%
X76350000Y-22000000D02*
X76350000Y-26240000D01*
X76350000Y-26240000D02*
X71585000Y-31005000D01*
X71585000Y-31005000D02*
X71585000Y-33005000D01*
X71585000Y-33005000D02*
X69785000Y-34805000D01*
X69785000Y-34805000D02*
X60641317Y-34805000D01*
X60641317Y-34805000D02*
X58685000Y-36761318D01*
X58685000Y-36761318D02*
X58685000Y-54805000D01*
X58384997Y-55105003D02*
X58384997Y-56005000D01*
X58685000Y-54805000D02*
X58384997Y-55105003D01*
%TO.N,Net-(J3-Pin_2)*%
D32*
X78890000Y-22000000D02*
X77500000Y-23390000D01*
X77500000Y-23390000D02*
X77500000Y-25180000D01*
%TO.N,Net-(J3-Pin_4)*%
X73810000Y-22000000D02*
X73810000Y-24490000D01*
X73810000Y-24490000D02*
X74500000Y-25180000D01*
%TO.N,Net-(J3-Pin_9)*%
X61500000Y-26562500D02*
X61500000Y-22390000D01*
X61500000Y-22390000D02*
X61110000Y-22000000D01*
%TO.N,Net-(J3-Pin_7)*%
X66500000Y-26562500D02*
X66500000Y-22310000D01*
X66500000Y-22310000D02*
X66190000Y-22000000D01*
%TO.N,Net-(J3-Pin_5)*%
X71500000Y-26562500D02*
X71500000Y-22230000D01*
X71500000Y-22230000D02*
X71270000Y-22000000D01*
%TO.N,Net-(Q1-B)*%
D33*
X70500000Y-31175000D02*
X70500000Y-28487500D01*
X70500000Y-28487500D02*
X70550000Y-28437500D01*
%TO.N,Net-(Q3-B)*%
X60500000Y-31175000D02*
X60500000Y-28487500D01*
X60500000Y-28487500D02*
X60550000Y-28437500D01*
%TO.N,Net-(Q2-B)*%
X65500000Y-31175000D02*
X65500000Y-28487500D01*
X65500000Y-28487500D02*
X65550000Y-28437500D01*
%TO.N,/SCL*%
X60810000Y-62855000D02*
X60810000Y-63704999D01*
X82685000Y-62905000D02*
X83785000Y-64005000D01*
X60810000Y-63704999D02*
X61160001Y-64055000D01*
X61160001Y-64055000D02*
X62635000Y-64055000D01*
X62635000Y-64055000D02*
X63785000Y-62905000D01*
X63785000Y-62905000D02*
X82685000Y-62905000D01*
X83785000Y-64005000D02*
X83785000Y-65130000D01*
%TO.N,/PEDAL*%
X86300000Y-58400000D02*
X84400000Y-56500000D01*
X84400000Y-56500000D02*
X70825000Y-56500000D01*
%TO.N,Net-(U2-FB)*%
D32*
X66535000Y-50605000D02*
X68297500Y-50605000D01*
X68297500Y-50605000D02*
X68585000Y-50892500D01*
X68585000Y-50892500D02*
X68585000Y-51892500D01*
X68585000Y-51892500D02*
X67810000Y-52667500D01*
%TO.N,Net-(U2-SW)*%
X62985000Y-48892500D02*
X64072500Y-48892500D01*
X64072500Y-48892500D02*
X64635000Y-48330000D01*
%TO.N,Net-(U2-CB)*%
X64635000Y-50605000D02*
X63147500Y-50605000D01*
X63147500Y-50605000D02*
X62985000Y-50442500D01*
%TO.N,+5V*%
X68585000Y-49242500D02*
X68585000Y-48405000D01*
%TD*%
%TA.AperFunction,Conductor*%
%TO.N,+36V*%
G36*
X84728039Y-27824685D02*
G01*
X84773794Y-27877489D01*
X84785000Y-27929000D01*
X84785000Y-37081000D01*
X84765315Y-37148039D01*
X84712511Y-37193794D01*
X84661000Y-37205000D01*
X78985000Y-37205000D01*
X78985000Y-40944193D01*
X78965315Y-41011232D01*
X78961319Y-41017077D01*
X78887713Y-41118389D01*
X78887712Y-41118391D01*
X78794781Y-41300776D01*
X78731522Y-41495465D01*
X78699500Y-41697648D01*
X78699500Y-41902351D01*
X78731522Y-42104534D01*
X78794781Y-42299223D01*
X78887713Y-42481610D01*
X78961318Y-42582920D01*
X78984798Y-42648725D01*
X78985000Y-42655804D01*
X78985000Y-48881000D01*
X78965315Y-48948039D01*
X78912511Y-48993794D01*
X78861000Y-49005000D01*
X69585000Y-49005000D01*
X69466288Y-49005000D01*
X69399249Y-48985315D01*
X69353494Y-48932511D01*
X69350106Y-48924333D01*
X69303797Y-48800171D01*
X69303793Y-48800164D01*
X69217548Y-48684957D01*
X69217546Y-48684954D01*
X69213202Y-48681702D01*
X69171331Y-48625768D01*
X69166347Y-48556076D01*
X69167739Y-48550340D01*
X69185500Y-48484057D01*
X69185500Y-48325943D01*
X69144577Y-48173216D01*
X69132314Y-48151975D01*
X69065524Y-48036290D01*
X69065518Y-48036282D01*
X68953717Y-47924481D01*
X68953709Y-47924475D01*
X68816790Y-47845426D01*
X68816786Y-47845424D01*
X68816784Y-47845423D01*
X68664057Y-47804500D01*
X68505943Y-47804500D01*
X68353216Y-47845423D01*
X68353209Y-47845426D01*
X68216290Y-47924475D01*
X68216282Y-47924481D01*
X68104481Y-48036282D01*
X68104475Y-48036290D01*
X68025426Y-48173209D01*
X68025423Y-48173216D01*
X67984500Y-48325943D01*
X67984500Y-48484056D01*
X68002261Y-48550343D01*
X68000598Y-48620193D01*
X67961435Y-48678056D01*
X67956801Y-48681699D01*
X67952456Y-48684951D01*
X67952452Y-48684955D01*
X67866206Y-48800164D01*
X67866202Y-48800171D01*
X67819894Y-48924333D01*
X67778023Y-48980266D01*
X67712559Y-49004684D01*
X67703712Y-49005000D01*
X65359500Y-49005000D01*
X65292461Y-48985315D01*
X65246706Y-48932511D01*
X65235500Y-48881000D01*
X65235500Y-47763230D01*
X65232646Y-47732800D01*
X65232645Y-47732798D01*
X65191959Y-47616523D01*
X65185000Y-47575568D01*
X65185000Y-45776356D01*
X67409500Y-45776356D01*
X67409500Y-46358644D01*
X67414825Y-46402994D01*
X67419640Y-46443088D01*
X67472636Y-46577476D01*
X67559921Y-46692578D01*
X67675023Y-46779863D01*
X67675024Y-46779863D01*
X67675025Y-46779864D01*
X67809410Y-46832859D01*
X67893856Y-46843000D01*
X67893862Y-46843000D01*
X68426138Y-46843000D01*
X68426144Y-46843000D01*
X68510590Y-46832859D01*
X68644975Y-46779864D01*
X68760078Y-46692578D01*
X68779418Y-46667073D01*
X68835610Y-46625551D01*
X68878221Y-46618000D01*
X69194973Y-46618000D01*
X69194974Y-46618000D01*
X69194975Y-46618000D01*
X69214013Y-46612898D01*
X69225859Y-46609725D01*
X69257951Y-46605500D01*
X69264055Y-46605500D01*
X69264057Y-46605500D01*
X69416784Y-46564577D01*
X69553716Y-46485520D01*
X69665520Y-46373716D01*
X69744577Y-46236784D01*
X69785500Y-46084057D01*
X69785500Y-45925943D01*
X69744577Y-45773216D01*
X69697636Y-45691911D01*
X69665524Y-45636290D01*
X69665518Y-45636282D01*
X69553717Y-45524481D01*
X69553709Y-45524475D01*
X69416790Y-45445426D01*
X69416786Y-45445424D01*
X69416784Y-45445423D01*
X69264057Y-45404500D01*
X69105943Y-45404500D01*
X68953216Y-45445423D01*
X68953211Y-45445425D01*
X68915072Y-45467444D01*
X68847171Y-45483915D01*
X68781145Y-45461062D01*
X68765389Y-45447733D01*
X68760077Y-45442421D01*
X68644976Y-45355136D01*
X68510588Y-45302140D01*
X68467242Y-45296935D01*
X68426144Y-45292000D01*
X67893856Y-45292000D01*
X67855841Y-45296565D01*
X67809411Y-45302140D01*
X67675023Y-45355136D01*
X67559921Y-45442421D01*
X67472636Y-45557523D01*
X67419640Y-45691911D01*
X67414065Y-45738341D01*
X67409500Y-45776356D01*
X65185000Y-45776356D01*
X65185000Y-44808092D01*
X65185155Y-44801900D01*
X65379110Y-40922808D01*
X65402118Y-40856835D01*
X65457141Y-40813774D01*
X65502955Y-40805000D01*
X73385000Y-40805000D01*
X73385000Y-30929000D01*
X73404685Y-30861961D01*
X73457489Y-30816206D01*
X73509000Y-30805000D01*
X79185000Y-30805000D01*
X79185000Y-27929000D01*
X79204685Y-27861961D01*
X79257489Y-27816206D01*
X79309000Y-27805000D01*
X84661000Y-27805000D01*
X84728039Y-27824685D01*
G37*
%TD.AperFunction*%
%TD*%
%TA.AperFunction,Conductor*%
%TO.N,GND*%
G36*
X88998084Y-18500556D02*
G01*
X89001848Y-18500669D01*
X89005575Y-18500837D01*
X89290069Y-18518045D01*
X89297505Y-18518721D01*
X89304951Y-18519625D01*
X89312324Y-18520747D01*
X89587134Y-18571108D01*
X89594431Y-18572675D01*
X89601691Y-18574465D01*
X89601703Y-18574468D01*
X89608909Y-18576477D01*
X89875613Y-18659586D01*
X89882663Y-18662018D01*
X89889671Y-18664675D01*
X89896567Y-18667532D01*
X90151322Y-18782188D01*
X90158048Y-18785464D01*
X90164684Y-18788947D01*
X90171191Y-18792617D01*
X90410260Y-18937137D01*
X90416534Y-18941194D01*
X90422686Y-18945440D01*
X90428711Y-18949872D01*
X90648621Y-19122161D01*
X90654379Y-19126960D01*
X90659984Y-19131926D01*
X90665434Y-19137057D01*
X90862941Y-19334564D01*
X90868072Y-19340014D01*
X90873038Y-19345619D01*
X90877837Y-19351377D01*
X91050117Y-19571275D01*
X91054538Y-19577283D01*
X91058817Y-19583483D01*
X91062854Y-19589727D01*
X91207389Y-19828820D01*
X91211062Y-19835333D01*
X91214543Y-19841967D01*
X91217816Y-19848690D01*
X91332452Y-20103398D01*
X91335321Y-20110323D01*
X91337980Y-20117335D01*
X91340421Y-20124412D01*
X91423520Y-20391087D01*
X91425526Y-20398282D01*
X91427322Y-20405566D01*
X91428893Y-20412881D01*
X91479247Y-20687655D01*
X91480373Y-20695051D01*
X91481275Y-20702475D01*
X91481954Y-20709944D01*
X91499160Y-20994384D01*
X91499329Y-20998117D01*
X91499443Y-21001881D01*
X91499500Y-21005635D01*
X91499500Y-62774363D01*
X91499443Y-62778117D01*
X91499329Y-62781881D01*
X91499160Y-62785614D01*
X91481954Y-63070054D01*
X91481275Y-63077523D01*
X91480373Y-63084947D01*
X91479247Y-63092343D01*
X91428893Y-63367117D01*
X91427321Y-63374439D01*
X91425530Y-63381705D01*
X91423520Y-63388911D01*
X91340421Y-63655586D01*
X91337980Y-63662663D01*
X91335321Y-63669675D01*
X91332452Y-63676600D01*
X91217816Y-63931308D01*
X91214543Y-63938031D01*
X91211062Y-63944665D01*
X91207381Y-63951192D01*
X91119943Y-64095834D01*
X91062863Y-64190257D01*
X91058807Y-64196530D01*
X91054549Y-64202699D01*
X91050117Y-64208723D01*
X90877837Y-64428621D01*
X90873038Y-64434379D01*
X90868072Y-64439984D01*
X90862941Y-64445434D01*
X90665434Y-64642941D01*
X90659984Y-64648072D01*
X90654379Y-64653038D01*
X90648621Y-64657837D01*
X90428723Y-64830117D01*
X90422699Y-64834549D01*
X90416530Y-64838807D01*
X90410256Y-64842863D01*
X90302402Y-64908061D01*
X90302401Y-64908063D01*
X90302397Y-64908064D01*
X90302395Y-64908066D01*
X90269907Y-64921839D01*
X90256487Y-64925383D01*
X90186644Y-64923468D01*
X90128924Y-64884098D01*
X90123888Y-64877952D01*
X90109271Y-64848710D01*
X90108071Y-64849338D01*
X90102503Y-64838679D01*
X90102503Y-64838678D01*
X90098071Y-64830194D01*
X90010055Y-64661697D01*
X89944897Y-64581787D01*
X89885750Y-64509249D01*
X89733303Y-64384945D01*
X89558950Y-64293870D01*
X89558947Y-64293869D01*
X89425259Y-64255617D01*
X89425249Y-64255614D01*
X89422944Y-64254955D01*
X89369840Y-64239760D01*
X89369836Y-64239759D01*
X89369834Y-64239759D01*
X89355010Y-64238441D01*
X89355006Y-64238440D01*
X89310737Y-64234505D01*
X89310737Y-64234504D01*
X89254437Y-64229500D01*
X89254432Y-64229500D01*
X88475571Y-64229500D01*
X88475567Y-64229500D01*
X88474665Y-64229556D01*
X88473360Y-64229696D01*
X88360160Y-64239759D01*
X88171051Y-64293869D01*
X87996695Y-64384945D01*
X87844251Y-64509246D01*
X87719942Y-64661699D01*
X87719938Y-64661706D01*
X87713162Y-64674679D01*
X87713160Y-64674680D01*
X87713160Y-64674684D01*
X87692532Y-64703322D01*
X87683303Y-64712897D01*
X87622607Y-64747505D01*
X87552835Y-64743803D01*
X87500311Y-64708046D01*
X87494580Y-64701432D01*
X87478385Y-64677643D01*
X87470057Y-64661700D01*
X87461256Y-64650907D01*
X87461254Y-64650902D01*
X87461253Y-64650903D01*
X87450848Y-64638143D01*
X87404897Y-64581787D01*
X87345750Y-64509249D01*
X87193303Y-64384945D01*
X87018950Y-64293870D01*
X87018947Y-64293869D01*
X86885259Y-64255617D01*
X86885249Y-64255614D01*
X86882944Y-64254955D01*
X86829840Y-64239760D01*
X86829836Y-64239759D01*
X86829834Y-64239759D01*
X86815010Y-64238441D01*
X86815006Y-64238440D01*
X86770737Y-64234505D01*
X86770737Y-64234504D01*
X86714437Y-64229500D01*
X86714432Y-64229500D01*
X85935573Y-64229500D01*
X85935568Y-64229500D01*
X85935544Y-64229501D01*
X85929321Y-64230055D01*
X85929318Y-64230054D01*
X85929318Y-64230055D01*
X85894076Y-64228144D01*
X85870044Y-64223348D01*
X85820926Y-64201698D01*
X85820546Y-64201419D01*
X85808579Y-64191147D01*
X85808154Y-64190924D01*
X85807995Y-64190645D01*
X85806251Y-64189148D01*
X83940151Y-62323048D01*
X83918999Y-62294792D01*
X83912793Y-62283426D01*
X83909557Y-62268553D01*
X83901697Y-62255515D01*
X83902281Y-62235103D01*
X83897942Y-62215152D01*
X83903262Y-62200889D01*
X83903698Y-62185674D01*
X83915223Y-62168820D01*
X83922360Y-62149689D01*
X83935154Y-62139677D01*
X83943140Y-62128001D01*
X83973356Y-62109783D01*
X83981907Y-62106169D01*
X84010763Y-62097921D01*
X84011516Y-62097801D01*
X84024436Y-62095755D01*
X84181118Y-62070940D01*
X84360832Y-62012547D01*
X84529199Y-61926760D01*
X84682073Y-61815690D01*
X84815690Y-61682073D01*
X84926760Y-61529199D01*
X85012547Y-61360832D01*
X85070940Y-61181118D01*
X85077554Y-61139360D01*
X85100500Y-60994486D01*
X85100500Y-59805513D01*
X85079968Y-59675882D01*
X85081880Y-59661081D01*
X85079464Y-59640591D01*
X85080834Y-59629991D01*
X85088006Y-59613672D01*
X85088922Y-59606590D01*
X85093235Y-59597748D01*
X85097491Y-59589835D01*
X85099281Y-59588021D01*
X85108949Y-59566027D01*
X85143842Y-59542892D01*
X85146582Y-59540118D01*
X85148765Y-59539628D01*
X85167182Y-59527418D01*
X85205681Y-59526869D01*
X85214760Y-59524834D01*
X85219774Y-59526668D01*
X85237045Y-59526422D01*
X85270833Y-59545345D01*
X85280377Y-59548836D01*
X85282821Y-59552058D01*
X85288307Y-59555131D01*
X85291193Y-59557818D01*
X85307013Y-59575684D01*
X85384310Y-59682073D01*
X85517927Y-59815690D01*
X85670801Y-59926760D01*
X85738050Y-59961025D01*
X85738049Y-59961025D01*
X85784080Y-59984478D01*
X85839163Y-60012545D01*
X85840036Y-60012990D01*
X85843789Y-60014049D01*
X85896040Y-60031026D01*
X85934143Y-60043406D01*
X85934144Y-60043407D01*
X85962390Y-60052584D01*
X86018881Y-60070940D01*
X86205514Y-60100500D01*
X86205519Y-60100500D01*
X86394485Y-60100500D01*
X86394486Y-60100500D01*
X86581118Y-60070940D01*
X86604357Y-60063389D01*
X86760832Y-60012547D01*
X86929199Y-59926760D01*
X87082073Y-59815690D01*
X87215690Y-59682073D01*
X87326760Y-59529199D01*
X87412547Y-59360832D01*
X87461483Y-59210225D01*
X87470941Y-59181116D01*
X87477179Y-59141727D01*
X87477179Y-59141726D01*
X87500500Y-58994485D01*
X87500500Y-57805513D01*
X87497675Y-57787676D01*
X87470940Y-57618881D01*
X87412545Y-57439163D01*
X87339183Y-57295183D01*
X87326760Y-57270801D01*
X87326758Y-57270798D01*
X87326757Y-57270796D01*
X87288976Y-57218796D01*
X87215690Y-57117927D01*
X87082073Y-56984310D01*
X86929199Y-56873240D01*
X86760836Y-56787454D01*
X86581118Y-56729059D01*
X86581112Y-56729058D01*
X86394491Y-56699500D01*
X86394486Y-56699500D01*
X86394481Y-56699500D01*
X86205519Y-56699500D01*
X86205514Y-56699500D01*
X86205509Y-56699500D01*
X86018886Y-56729058D01*
X86018884Y-56729058D01*
X86018881Y-56729059D01*
X85839163Y-56787454D01*
X85789490Y-56812764D01*
X85670803Y-56873238D01*
X85670799Y-56873240D01*
X85670796Y-56873242D01*
X85670792Y-56873245D01*
X85620047Y-56910113D01*
X85588832Y-56926583D01*
X85574109Y-56931836D01*
X85504353Y-56935824D01*
X85497933Y-56934331D01*
X85438339Y-56901235D01*
X84676616Y-56139513D01*
X84676614Y-56139511D01*
X84625250Y-56109856D01*
X84614392Y-56103587D01*
X84573889Y-56080201D01*
X84561777Y-56076956D01*
X84551465Y-56074193D01*
X84496588Y-56059489D01*
X84496586Y-56059488D01*
X84459310Y-56049500D01*
X84459309Y-56049500D01*
X84459308Y-56049500D01*
X71596691Y-56049500D01*
X71596687Y-56049499D01*
X71596686Y-56049500D01*
X71561752Y-56044476D01*
X71544457Y-56039397D01*
X71488643Y-56004918D01*
X71476892Y-55992297D01*
X71468378Y-55982111D01*
X71438113Y-55941682D01*
X71424967Y-55924121D01*
X71382547Y-55867455D01*
X71382544Y-55867452D01*
X71382543Y-55867451D01*
X71382542Y-55867450D01*
X71267336Y-55781207D01*
X71267335Y-55781206D01*
X71267331Y-55781204D01*
X71267327Y-55781201D01*
X71267325Y-55781200D01*
X71142654Y-55734702D01*
X71142651Y-55734701D01*
X71132486Y-55730910D01*
X71132485Y-55730909D01*
X71132483Y-55730909D01*
X71119021Y-55729461D01*
X71119014Y-55729460D01*
X71072883Y-55724501D01*
X71072881Y-55724500D01*
X71072873Y-55724500D01*
X71072865Y-55724500D01*
X70677330Y-55724500D01*
X70677325Y-55724499D01*
X70677323Y-55724500D01*
X70642389Y-55719475D01*
X70627390Y-55715070D01*
X70568644Y-55677327D01*
X70568615Y-55677293D01*
X70568614Y-55677293D01*
X70568613Y-55677291D01*
X70567457Y-55675958D01*
X70539977Y-55621083D01*
X70538332Y-55613521D01*
X70535500Y-55587168D01*
X70535500Y-52199995D01*
X71350001Y-52199995D01*
X71360493Y-52302694D01*
X71360493Y-52302695D01*
X71360494Y-52302697D01*
X71373573Y-52342166D01*
X71414176Y-52464700D01*
X71415641Y-52469119D01*
X71415643Y-52469124D01*
X71507684Y-52618345D01*
X71631654Y-52742315D01*
X71780875Y-52834356D01*
X71780880Y-52834358D01*
X71947299Y-52889504D01*
X71947300Y-52889504D01*
X71947302Y-52889505D01*
X71947309Y-52889506D01*
X72050019Y-52899999D01*
X72749999Y-52899999D01*
X73250000Y-52899999D01*
X73949960Y-52899999D01*
X73949972Y-52899999D01*
X73949986Y-52899998D01*
X74052697Y-52889505D01*
X74219119Y-52834358D01*
X74219124Y-52834356D01*
X74368345Y-52742315D01*
X74492315Y-52618345D01*
X74584356Y-52469124D01*
X74584358Y-52469119D01*
X74639505Y-52302697D01*
X74639506Y-52302690D01*
X74649999Y-52199986D01*
X74650000Y-52199973D01*
X74650000Y-51400000D01*
X73250000Y-51400000D01*
X73250000Y-52899999D01*
X72749999Y-52899999D01*
X72750000Y-52899998D01*
X72750000Y-51400000D01*
X71350001Y-51400000D01*
X71350001Y-52199995D01*
X70535500Y-52199995D01*
X70535500Y-50291397D01*
X70536536Y-50275399D01*
X70538061Y-50263678D01*
X70543105Y-50244806D01*
X70542473Y-50244637D01*
X70554860Y-50198408D01*
X70585500Y-50084057D01*
X70585500Y-49925943D01*
X70544577Y-49773216D01*
X70508144Y-49710111D01*
X70508144Y-49710110D01*
X70481009Y-49663111D01*
X70465524Y-49636290D01*
X70465518Y-49636282D01*
X70465514Y-49636278D01*
X70465513Y-49636276D01*
X70351418Y-49522181D01*
X70317933Y-49460858D01*
X70322917Y-49391166D01*
X70364789Y-49335233D01*
X70430253Y-49310816D01*
X70439099Y-49310500D01*
X71595165Y-49310500D01*
X71662204Y-49330185D01*
X71707959Y-49382989D01*
X71717903Y-49452147D01*
X71688878Y-49515703D01*
X71660264Y-49540036D01*
X71644141Y-49549982D01*
X71631652Y-49557685D01*
X71507685Y-49681652D01*
X71507684Y-49681654D01*
X71420181Y-49823519D01*
X71415641Y-49830879D01*
X71415638Y-49830888D01*
X71360494Y-49997299D01*
X71360493Y-49997304D01*
X71350000Y-50100007D01*
X71350000Y-50100010D01*
X71350000Y-50100013D01*
X71350000Y-50900000D01*
X74649999Y-50900000D01*
X74649999Y-50100028D01*
X74649998Y-50100013D01*
X74639505Y-49997302D01*
X74584358Y-49830880D01*
X74584356Y-49830875D01*
X74492315Y-49681654D01*
X74368345Y-49557684D01*
X74339735Y-49540037D01*
X74293013Y-49488091D01*
X74281790Y-49419128D01*
X74309634Y-49355046D01*
X74367702Y-49316190D01*
X74404834Y-49310500D01*
X78860990Y-49310500D01*
X78861000Y-49310500D01*
X78925941Y-49303518D01*
X78977452Y-49292312D01*
X79015658Y-49281354D01*
X79112571Y-49224675D01*
X79165375Y-49178920D01*
X79165382Y-49178912D01*
X79165387Y-49178908D01*
X79207548Y-49134192D01*
X79207553Y-49134187D01*
X79258439Y-49034111D01*
X79278124Y-48967072D01*
X79290500Y-48881000D01*
X79290500Y-45381941D01*
X82500000Y-45381941D01*
X82500000Y-45381947D01*
X82500000Y-46250000D01*
X83376000Y-46250000D01*
X83443039Y-46269685D01*
X83488794Y-46322489D01*
X83500000Y-46374000D01*
X83500000Y-46626000D01*
X83480315Y-46693039D01*
X83427511Y-46738794D01*
X83376000Y-46750000D01*
X82500000Y-46750000D01*
X82500000Y-47618057D01*
X82536933Y-47851243D01*
X82536934Y-47851247D01*
X82609897Y-48075802D01*
X82717085Y-48286171D01*
X82855866Y-48477186D01*
X83022813Y-48644133D01*
X83213828Y-48782914D01*
X83424195Y-48890102D01*
X83648351Y-48962935D01*
X83648727Y-48963059D01*
X83648750Y-48963065D01*
X83750000Y-48979101D01*
X83750000Y-48112250D01*
X83769685Y-48045211D01*
X83822489Y-47999456D01*
X83891647Y-47989512D01*
X83906093Y-47992475D01*
X83934174Y-48000000D01*
X84065825Y-48000000D01*
X84065826Y-48000000D01*
X84093905Y-47992476D01*
X84163755Y-47994137D01*
X84221618Y-48033299D01*
X84249123Y-48097527D01*
X84250000Y-48112250D01*
X84250000Y-48979099D01*
X84250000Y-48979100D01*
X84351249Y-48963065D01*
X84351254Y-48963063D01*
X84351256Y-48963063D01*
X84351415Y-48963010D01*
X84575804Y-48890102D01*
X84786171Y-48782914D01*
X84977186Y-48644133D01*
X85144133Y-48477186D01*
X85282914Y-48286171D01*
X85390102Y-48075802D01*
X85463065Y-47851247D01*
X85500000Y-47618052D01*
X85500000Y-46750000D01*
X84624000Y-46750000D01*
X84556961Y-46730315D01*
X84511206Y-46677511D01*
X84500000Y-46626000D01*
X84500000Y-46374000D01*
X84519685Y-46306961D01*
X84572489Y-46261206D01*
X84624000Y-46250000D01*
X85500000Y-46250000D01*
X85500000Y-45381947D01*
X85463065Y-45148755D01*
X85463065Y-45148752D01*
X85390102Y-44924197D01*
X85282914Y-44713828D01*
X85144133Y-44522813D01*
X84977186Y-44355866D01*
X84786171Y-44217085D01*
X84575802Y-44109897D01*
X84351247Y-44036934D01*
X84351245Y-44036933D01*
X84351243Y-44036933D01*
X84250000Y-44020897D01*
X84250000Y-44887749D01*
X84230315Y-44954788D01*
X84177511Y-45000543D01*
X84108353Y-45010487D01*
X84093908Y-45007524D01*
X84065828Y-45000000D01*
X84065826Y-45000000D01*
X83934174Y-45000000D01*
X83934171Y-45000000D01*
X83906092Y-45007524D01*
X83836242Y-45005861D01*
X83778380Y-44966698D01*
X83750877Y-44902469D01*
X83750000Y-44887749D01*
X83750000Y-44020897D01*
X83749999Y-44020897D01*
X83648755Y-44036933D01*
X83648752Y-44036934D01*
X83430873Y-44107728D01*
X83424194Y-44109898D01*
X83213827Y-44217085D01*
X83199377Y-44227584D01*
X83022813Y-44355866D01*
X83022811Y-44355868D01*
X83022810Y-44355868D01*
X82855868Y-44522810D01*
X82855868Y-44522811D01*
X82855866Y-44522813D01*
X82843467Y-44539879D01*
X82717085Y-44713827D01*
X82609898Y-44924194D01*
X82536933Y-45148755D01*
X82500000Y-45381941D01*
X79290500Y-45381941D01*
X79290500Y-43100426D01*
X79291275Y-43097784D01*
X79290614Y-43095112D01*
X79301063Y-43064450D01*
X79310185Y-43033387D01*
X79312264Y-43031585D01*
X79313153Y-43028978D01*
X79338521Y-43008833D01*
X79362989Y-42987632D01*
X79365713Y-42987240D01*
X79367870Y-42985528D01*
X79400092Y-42982296D01*
X79432147Y-42977688D01*
X79435489Y-42978747D01*
X79437391Y-42978557D01*
X79470795Y-42989942D01*
X79481484Y-42995388D01*
X79494330Y-43001934D01*
X79495928Y-43002869D01*
X79499629Y-43004662D01*
X79501637Y-43005660D01*
X79505403Y-43006722D01*
X79545488Y-43019746D01*
X79605135Y-43039126D01*
X79605136Y-43039127D01*
X79648612Y-43053253D01*
X79695465Y-43068477D01*
X79796557Y-43084488D01*
X79897648Y-43100500D01*
X79897649Y-43100500D01*
X82102351Y-43100500D01*
X82102352Y-43100500D01*
X82304534Y-43068477D01*
X82499219Y-43005220D01*
X82681610Y-42912287D01*
X82774590Y-42844732D01*
X82847213Y-42791971D01*
X82847213Y-42791969D01*
X82847272Y-42791927D01*
X82848031Y-42791153D01*
X82991966Y-42647219D01*
X82991968Y-42647215D01*
X82991971Y-42647213D01*
X83036933Y-42585325D01*
X83044730Y-42574593D01*
X83044732Y-42574591D01*
X83075995Y-42531561D01*
X83112287Y-42481610D01*
X83205220Y-42299219D01*
X83268477Y-42104534D01*
X83300500Y-41902352D01*
X83300500Y-41697648D01*
X83268477Y-41495466D01*
X83268476Y-41495462D01*
X83268476Y-41495461D01*
X83207833Y-41308823D01*
X83205220Y-41300781D01*
X83205218Y-41300778D01*
X83205218Y-41300776D01*
X83202977Y-41296378D01*
X83202667Y-41295583D01*
X83201932Y-41294327D01*
X83171503Y-41234607D01*
X83112287Y-41118390D01*
X83104556Y-41107749D01*
X82991971Y-40952786D01*
X82847213Y-40808028D01*
X82847211Y-40808026D01*
X82692209Y-40695413D01*
X82692205Y-40695410D01*
X82681613Y-40687715D01*
X82681612Y-40687714D01*
X82681610Y-40687713D01*
X82653171Y-40673222D01*
X82624654Y-40658691D01*
X82624653Y-40658691D01*
X82499223Y-40594781D01*
X82304534Y-40531522D01*
X82304532Y-40531521D01*
X82304530Y-40531521D01*
X82304529Y-40531520D01*
X82129995Y-40503878D01*
X82113409Y-40501251D01*
X82102354Y-40499500D01*
X82102352Y-40499500D01*
X79897648Y-40499500D01*
X79897647Y-40499500D01*
X79873327Y-40503351D01*
X79873326Y-40503350D01*
X79695468Y-40531521D01*
X79500777Y-40594780D01*
X79500768Y-40594784D01*
X79470794Y-40610057D01*
X79402124Y-40622953D01*
X79337384Y-40596676D01*
X79297128Y-40539569D01*
X79290500Y-40499572D01*
X79290500Y-37634500D01*
X79310185Y-37567461D01*
X79362989Y-37521706D01*
X79414500Y-37510500D01*
X84660990Y-37510500D01*
X84661000Y-37510500D01*
X84725941Y-37503518D01*
X84777452Y-37492312D01*
X84815658Y-37481354D01*
X84912571Y-37424675D01*
X84965375Y-37378920D01*
X84965382Y-37378912D01*
X84965387Y-37378908D01*
X85007548Y-37334192D01*
X85007553Y-37334187D01*
X85058439Y-37234111D01*
X85078124Y-37167072D01*
X85090500Y-37081000D01*
X85090500Y-28832508D01*
X85600000Y-28832508D01*
X85600000Y-28832514D01*
X85600000Y-29782500D01*
X86735899Y-29782500D01*
X86802938Y-29802185D01*
X86848693Y-29854989D01*
X86858637Y-29924147D01*
X86857517Y-29930690D01*
X86850000Y-29968482D01*
X86850000Y-30096517D01*
X86857517Y-30134310D01*
X86851288Y-30203901D01*
X86808425Y-30259078D01*
X86742535Y-30282322D01*
X86735899Y-30282500D01*
X85600000Y-30282500D01*
X85600000Y-31232490D01*
X85610493Y-31335193D01*
X85610494Y-31335198D01*
X85617049Y-31354978D01*
X85665641Y-31501618D01*
X85665643Y-31501623D01*
X85757684Y-31650844D01*
X85881655Y-31774815D01*
X86030876Y-31866856D01*
X86030881Y-31866858D01*
X86197303Y-31922005D01*
X86197310Y-31922006D01*
X86285508Y-31931017D01*
X86300023Y-31932500D01*
X86300027Y-31932500D01*
X87250000Y-31932500D01*
X87250000Y-30796600D01*
X87269685Y-30729561D01*
X87322489Y-30683806D01*
X87391647Y-30673862D01*
X87398172Y-30674979D01*
X87435981Y-30682500D01*
X87564019Y-30682500D01*
X87601808Y-30674983D01*
X87671399Y-30681210D01*
X87726577Y-30724072D01*
X87749822Y-30789961D01*
X87750000Y-30796600D01*
X87750000Y-31932500D01*
X88699973Y-31932500D01*
X88699977Y-31932500D01*
X88724217Y-31930023D01*
X88802689Y-31922006D01*
X88802696Y-31922005D01*
X88969118Y-31866858D01*
X88969123Y-31866856D01*
X89118344Y-31774815D01*
X89242315Y-31650844D01*
X89334356Y-31501623D01*
X89334358Y-31501618D01*
X89389505Y-31335196D01*
X89389506Y-31335189D01*
X89399999Y-31232485D01*
X89400000Y-31232472D01*
X89400000Y-30282500D01*
X88264101Y-30282500D01*
X88197062Y-30262815D01*
X88151307Y-30210011D01*
X88141363Y-30140853D01*
X88142483Y-30134310D01*
X88150000Y-30096517D01*
X88150000Y-29968482D01*
X88142483Y-29930690D01*
X88148712Y-29861099D01*
X88191575Y-29805922D01*
X88257465Y-29782678D01*
X88264101Y-29782500D01*
X89400000Y-29782500D01*
X89400000Y-28832523D01*
X89389505Y-28729805D01*
X89389504Y-28729800D01*
X89359274Y-28638573D01*
X89334358Y-28563381D01*
X89334356Y-28563376D01*
X89242315Y-28414155D01*
X89118344Y-28290184D01*
X88969123Y-28198143D01*
X88969118Y-28198141D01*
X88937006Y-28187500D01*
X88802698Y-28142994D01*
X88802693Y-28142993D01*
X88699990Y-28132500D01*
X88699985Y-28132500D01*
X87750000Y-28132500D01*
X87750000Y-29268399D01*
X87730315Y-29335438D01*
X87677511Y-29381193D01*
X87608353Y-29391137D01*
X87601810Y-29390017D01*
X87596541Y-29388969D01*
X87564019Y-29382500D01*
X87564018Y-29382500D01*
X87435982Y-29382500D01*
X87435981Y-29382500D01*
X87398190Y-29390017D01*
X87328599Y-29383788D01*
X87273422Y-29340925D01*
X87250178Y-29275035D01*
X87250000Y-29268399D01*
X87250000Y-28132500D01*
X86300014Y-28132500D01*
X86300008Y-28132500D01*
X86197305Y-28142993D01*
X86197300Y-28142994D01*
X86030889Y-28198138D01*
X86030880Y-28198141D01*
X86030878Y-28198142D01*
X86030876Y-28198143D01*
X85931395Y-28259503D01*
X85881653Y-28290185D01*
X85757685Y-28414153D01*
X85665641Y-28563380D01*
X85665638Y-28563389D01*
X85610494Y-28729800D01*
X85610493Y-28729805D01*
X85600000Y-28832508D01*
X85090500Y-28832508D01*
X85090500Y-27929000D01*
X85083518Y-27864059D01*
X85072312Y-27812548D01*
X85061354Y-27774342D01*
X85004675Y-27677429D01*
X84958920Y-27624625D01*
X84958918Y-27624623D01*
X84958908Y-27624612D01*
X84914192Y-27582451D01*
X84914189Y-27582449D01*
X84914187Y-27582447D01*
X84814111Y-27531561D01*
X84814110Y-27531560D01*
X84814109Y-27531560D01*
X84747078Y-27511877D01*
X84747072Y-27511876D01*
X84661000Y-27499500D01*
X84660997Y-27499500D01*
X79309010Y-27499500D01*
X79309000Y-27499500D01*
X79308991Y-27499500D01*
X79308990Y-27499501D01*
X79244064Y-27506481D01*
X79244052Y-27506483D01*
X79192546Y-27517688D01*
X79154345Y-27528644D01*
X79154341Y-27528646D01*
X79057431Y-27585323D01*
X79057428Y-27585325D01*
X79004623Y-27631081D01*
X79004612Y-27631091D01*
X78962451Y-27675807D01*
X78962445Y-27675816D01*
X78911560Y-27775890D01*
X78891877Y-27842921D01*
X78891876Y-27842928D01*
X78879502Y-27928990D01*
X78879500Y-27929002D01*
X78879500Y-30375500D01*
X78859815Y-30442539D01*
X78807011Y-30488294D01*
X78755500Y-30499500D01*
X73734071Y-30499500D01*
X73667032Y-30479815D01*
X73621277Y-30427011D01*
X73611333Y-30357853D01*
X73640358Y-30294297D01*
X73646390Y-30287819D01*
X74104907Y-29829303D01*
X74696330Y-29237880D01*
X75429791Y-28504418D01*
X75458036Y-28483275D01*
X75481128Y-28470667D01*
X75540553Y-28455500D01*
X77642665Y-28455500D01*
X77642667Y-28455500D01*
X77726805Y-28432955D01*
X77744586Y-28428191D01*
X77744587Y-28428190D01*
X77757245Y-28424799D01*
X77859972Y-28365489D01*
X79145489Y-27079972D01*
X79204798Y-26977245D01*
X79204799Y-26977244D01*
X79235500Y-26862667D01*
X79235500Y-24860793D01*
X79240522Y-24825860D01*
X79247934Y-24800615D01*
X79279228Y-24747873D01*
X80827679Y-23199421D01*
X80855933Y-23178272D01*
X80879023Y-23165665D01*
X80938446Y-23150499D01*
X82324850Y-23150499D01*
X82324856Y-23150499D01*
X82324864Y-23150499D01*
X82324879Y-23150497D01*
X82324882Y-23150497D01*
X82324888Y-23150496D01*
X82325019Y-23150487D01*
X82325736Y-23150397D01*
X82349987Y-23147586D01*
X82349987Y-23147585D01*
X82349990Y-23147585D01*
X82349991Y-23147585D01*
X82349991Y-23147584D01*
X82350102Y-23147572D01*
X82351862Y-23146758D01*
X82452765Y-23102206D01*
X82532206Y-23022765D01*
X82577585Y-22919991D01*
X82580500Y-22894865D01*
X82580499Y-21105136D01*
X82580497Y-21105117D01*
X82577586Y-21080012D01*
X82577585Y-21080010D01*
X82577585Y-21080009D01*
X82532206Y-20977235D01*
X82452765Y-20897794D01*
X82452763Y-20897793D01*
X82407549Y-20877829D01*
X82349993Y-20852415D01*
X82349994Y-20852415D01*
X82324868Y-20849500D01*
X82324865Y-20849500D01*
X80535143Y-20849500D01*
X80535127Y-20849501D01*
X80535113Y-20849502D01*
X80517255Y-20851573D01*
X80510012Y-20852413D01*
X80510011Y-20852413D01*
X80510005Y-20852414D01*
X80509559Y-20852547D01*
X80507303Y-20853609D01*
X80407236Y-20897792D01*
X80327793Y-20977234D01*
X80282414Y-21080005D01*
X80281844Y-21082710D01*
X80281589Y-21087124D01*
X80279500Y-21105127D01*
X80279500Y-21825038D01*
X80278734Y-21829480D01*
X80279308Y-21831929D01*
X80274477Y-21859974D01*
X80272756Y-21865835D01*
X80272367Y-21866438D01*
X80272352Y-21866531D01*
X80270399Y-21872031D01*
X80255969Y-21891954D01*
X80234981Y-21924613D01*
X80231000Y-21926430D01*
X80229416Y-21928619D01*
X80207082Y-21937353D01*
X80171425Y-21953637D01*
X80167052Y-21953008D01*
X80164346Y-21954067D01*
X80139063Y-21948983D01*
X80102267Y-21943693D01*
X80099100Y-21940949D01*
X80095847Y-21940295D01*
X80074697Y-21919803D01*
X80049463Y-21897938D01*
X80049231Y-21897577D01*
X80047752Y-21893697D01*
X80045667Y-21891677D01*
X80043572Y-21882730D01*
X80031074Y-21849939D01*
X80029954Y-21842868D01*
X80021685Y-21790664D01*
X80012171Y-21730591D01*
X79956211Y-21558361D01*
X79956211Y-21558360D01*
X79927740Y-21502484D01*
X79873996Y-21397006D01*
X79873995Y-21397004D01*
X79860397Y-21378289D01*
X79860395Y-21378285D01*
X79767570Y-21250522D01*
X79767558Y-21250505D01*
X79767554Y-21250500D01*
X79767551Y-21250497D01*
X79767548Y-21250493D01*
X79639507Y-21122452D01*
X79639498Y-21122444D01*
X79639474Y-21122426D01*
X79503597Y-21023706D01*
X79503581Y-21023695D01*
X79492997Y-21016006D01*
X79492996Y-21016005D01*
X79492994Y-21016004D01*
X79486914Y-21012906D01*
X79486911Y-21012904D01*
X79416906Y-20977235D01*
X79416906Y-20977234D01*
X79416904Y-20977234D01*
X79331639Y-20933788D01*
X79331563Y-20933762D01*
X79159412Y-20877829D01*
X79159413Y-20877829D01*
X79025265Y-20856582D01*
X78980551Y-20849500D01*
X78980550Y-20849500D01*
X78799450Y-20849500D01*
X78799449Y-20849500D01*
X78773506Y-20853609D01*
X78620585Y-20877829D01*
X78448386Y-20933778D01*
X78448363Y-20933786D01*
X78448359Y-20933788D01*
X78287005Y-21016004D01*
X78140499Y-21122445D01*
X78140491Y-21122452D01*
X78012452Y-21250491D01*
X78012445Y-21250499D01*
X77906004Y-21397005D01*
X77823788Y-21558359D01*
X77823786Y-21558363D01*
X77823778Y-21558386D01*
X77767829Y-21730585D01*
X77745262Y-21873067D01*
X77739438Y-21885351D01*
X77734834Y-21906792D01*
X77731857Y-21913071D01*
X77719992Y-21926373D01*
X77715333Y-21936202D01*
X77706095Y-21941953D01*
X77685350Y-21965213D01*
X77618035Y-21983935D01*
X77551285Y-21963292D01*
X77524901Y-21932400D01*
X77514370Y-21923631D01*
X77512592Y-21917989D01*
X77507021Y-21911466D01*
X77504560Y-21906078D01*
X77494879Y-21873963D01*
X77483740Y-21803639D01*
X77472171Y-21730591D01*
X77416211Y-21558361D01*
X77416211Y-21558360D01*
X77387740Y-21502484D01*
X77333996Y-21397006D01*
X77333995Y-21397004D01*
X77320397Y-21378289D01*
X77320395Y-21378285D01*
X77227570Y-21250522D01*
X77227558Y-21250505D01*
X77227554Y-21250500D01*
X77227551Y-21250497D01*
X77227548Y-21250493D01*
X77099507Y-21122452D01*
X77099498Y-21122444D01*
X77099474Y-21122426D01*
X76963597Y-21023706D01*
X76963581Y-21023695D01*
X76952997Y-21016006D01*
X76952996Y-21016005D01*
X76952994Y-21016004D01*
X76946914Y-21012906D01*
X76946911Y-21012904D01*
X76876906Y-20977235D01*
X76876906Y-20977234D01*
X76876904Y-20977234D01*
X76791639Y-20933788D01*
X76791563Y-20933762D01*
X76619412Y-20877829D01*
X76619413Y-20877829D01*
X76485265Y-20856582D01*
X76440551Y-20849500D01*
X76440550Y-20849500D01*
X76259450Y-20849500D01*
X76259449Y-20849500D01*
X76233506Y-20853609D01*
X76080585Y-20877829D01*
X75908386Y-20933778D01*
X75908363Y-20933786D01*
X75908359Y-20933788D01*
X75747005Y-21016004D01*
X75600499Y-21122445D01*
X75600491Y-21122452D01*
X75472452Y-21250491D01*
X75472445Y-21250499D01*
X75366004Y-21397005D01*
X75283788Y-21558359D01*
X75283786Y-21558363D01*
X75283778Y-21558386D01*
X75227829Y-21730585D01*
X75205262Y-21873067D01*
X75199438Y-21885351D01*
X75194834Y-21906792D01*
X75191857Y-21913071D01*
X75179992Y-21926373D01*
X75175333Y-21936202D01*
X75166095Y-21941953D01*
X75145350Y-21965213D01*
X75078035Y-21983935D01*
X75011285Y-21963292D01*
X74984901Y-21932400D01*
X74974370Y-21923631D01*
X74972592Y-21917989D01*
X74967021Y-21911466D01*
X74964560Y-21906078D01*
X74954879Y-21873963D01*
X74943740Y-21803639D01*
X74932171Y-21730591D01*
X74876211Y-21558361D01*
X74876211Y-21558360D01*
X74847740Y-21502484D01*
X74793996Y-21397006D01*
X74793995Y-21397004D01*
X74780397Y-21378289D01*
X74780395Y-21378285D01*
X74687570Y-21250522D01*
X74687558Y-21250505D01*
X74687554Y-21250500D01*
X74687551Y-21250497D01*
X74687548Y-21250493D01*
X74559507Y-21122452D01*
X74559498Y-21122444D01*
X74559474Y-21122426D01*
X74423597Y-21023706D01*
X74423581Y-21023695D01*
X74412997Y-21016006D01*
X74412996Y-21016005D01*
X74412994Y-21016004D01*
X74406914Y-21012906D01*
X74406911Y-21012904D01*
X74336906Y-20977235D01*
X74336906Y-20977234D01*
X74336904Y-20977234D01*
X74251639Y-20933788D01*
X74251563Y-20933762D01*
X74079412Y-20877829D01*
X74079413Y-20877829D01*
X73945265Y-20856582D01*
X73900551Y-20849500D01*
X73900550Y-20849500D01*
X73719450Y-20849500D01*
X73719449Y-20849500D01*
X73693506Y-20853609D01*
X73540585Y-20877829D01*
X73368386Y-20933778D01*
X73368363Y-20933786D01*
X73368359Y-20933788D01*
X73207005Y-21016004D01*
X73060499Y-21122445D01*
X73060491Y-21122452D01*
X72932452Y-21250491D01*
X72932445Y-21250499D01*
X72826004Y-21397005D01*
X72743788Y-21558359D01*
X72743786Y-21558363D01*
X72743778Y-21558386D01*
X72687829Y-21730585D01*
X72665262Y-21873067D01*
X72659438Y-21885351D01*
X72654834Y-21906792D01*
X72651857Y-21913071D01*
X72639992Y-21926373D01*
X72635333Y-21936202D01*
X72626095Y-21941953D01*
X72605350Y-21965213D01*
X72538035Y-21983935D01*
X72471285Y-21963292D01*
X72444901Y-21932400D01*
X72434370Y-21923631D01*
X72432592Y-21917989D01*
X72427021Y-21911466D01*
X72424560Y-21906078D01*
X72414879Y-21873963D01*
X72403740Y-21803639D01*
X72392171Y-21730591D01*
X72336211Y-21558361D01*
X72336211Y-21558360D01*
X72307740Y-21502484D01*
X72253996Y-21397006D01*
X72253995Y-21397004D01*
X72240397Y-21378289D01*
X72240395Y-21378285D01*
X72147570Y-21250522D01*
X72147558Y-21250505D01*
X72147554Y-21250500D01*
X72147551Y-21250497D01*
X72147548Y-21250493D01*
X72019507Y-21122452D01*
X72019498Y-21122444D01*
X72019474Y-21122426D01*
X71883597Y-21023706D01*
X71883581Y-21023695D01*
X71872997Y-21016006D01*
X71872996Y-21016005D01*
X71872994Y-21016004D01*
X71866914Y-21012906D01*
X71866911Y-21012904D01*
X71796906Y-20977235D01*
X71796906Y-20977234D01*
X71796904Y-20977234D01*
X71711639Y-20933788D01*
X71711563Y-20933762D01*
X71539412Y-20877829D01*
X71539413Y-20877829D01*
X71405265Y-20856582D01*
X71360551Y-20849500D01*
X71360550Y-20849500D01*
X71179450Y-20849500D01*
X71179449Y-20849500D01*
X71153506Y-20853609D01*
X71000585Y-20877829D01*
X70828386Y-20933778D01*
X70828363Y-20933786D01*
X70828359Y-20933788D01*
X70667005Y-21016004D01*
X70520499Y-21122445D01*
X70520491Y-21122452D01*
X70392452Y-21250491D01*
X70392445Y-21250499D01*
X70286004Y-21397005D01*
X70203788Y-21558359D01*
X70203786Y-21558363D01*
X70203778Y-21558386D01*
X70147829Y-21730585D01*
X70125262Y-21873067D01*
X70119438Y-21885351D01*
X70114834Y-21906792D01*
X70111857Y-21913071D01*
X70099992Y-21926373D01*
X70095333Y-21936202D01*
X70086095Y-21941953D01*
X70065350Y-21965213D01*
X69998035Y-21983935D01*
X69931285Y-21963292D01*
X69904901Y-21932400D01*
X69894370Y-21923631D01*
X69892592Y-21917989D01*
X69887021Y-21911466D01*
X69884560Y-21906078D01*
X69874879Y-21873963D01*
X69863740Y-21803639D01*
X69852171Y-21730591D01*
X69796211Y-21558361D01*
X69796211Y-21558360D01*
X69767740Y-21502484D01*
X69713996Y-21397006D01*
X69713995Y-21397004D01*
X69700397Y-21378289D01*
X69700395Y-21378285D01*
X69607570Y-21250522D01*
X69607558Y-21250505D01*
X69607554Y-21250500D01*
X69607551Y-21250497D01*
X69607548Y-21250493D01*
X69479507Y-21122452D01*
X69479498Y-21122444D01*
X69479474Y-21122426D01*
X69343597Y-21023706D01*
X69343581Y-21023695D01*
X69332997Y-21016006D01*
X69332996Y-21016005D01*
X69332994Y-21016004D01*
X69326914Y-21012906D01*
X69326911Y-21012904D01*
X69256906Y-20977235D01*
X69256906Y-20977234D01*
X69256904Y-20977234D01*
X69171639Y-20933788D01*
X69171563Y-20933762D01*
X68999412Y-20877829D01*
X68999413Y-20877829D01*
X68865265Y-20856582D01*
X68820551Y-20849500D01*
X68820550Y-20849500D01*
X68639450Y-20849500D01*
X68639449Y-20849500D01*
X68613506Y-20853609D01*
X68460585Y-20877829D01*
X68288386Y-20933778D01*
X68288363Y-20933786D01*
X68288359Y-20933788D01*
X68127005Y-21016004D01*
X67980499Y-21122445D01*
X67980491Y-21122452D01*
X67852452Y-21250491D01*
X67852445Y-21250499D01*
X67746004Y-21397005D01*
X67663788Y-21558359D01*
X67663786Y-21558363D01*
X67663778Y-21558386D01*
X67607829Y-21730585D01*
X67585262Y-21873067D01*
X67579438Y-21885351D01*
X67574834Y-21906792D01*
X67571857Y-21913071D01*
X67559992Y-21926373D01*
X67555333Y-21936202D01*
X67546095Y-21941953D01*
X67525350Y-21965213D01*
X67458035Y-21983935D01*
X67391285Y-21963292D01*
X67364901Y-21932400D01*
X67354370Y-21923631D01*
X67352592Y-21917989D01*
X67347021Y-21911466D01*
X67344560Y-21906078D01*
X67334879Y-21873963D01*
X67323740Y-21803639D01*
X67312171Y-21730591D01*
X67256211Y-21558361D01*
X67256211Y-21558360D01*
X67227740Y-21502484D01*
X67173996Y-21397006D01*
X67173995Y-21397004D01*
X67160397Y-21378289D01*
X67160395Y-21378285D01*
X67067570Y-21250522D01*
X67067558Y-21250505D01*
X67067554Y-21250500D01*
X67067551Y-21250497D01*
X67067548Y-21250493D01*
X66939507Y-21122452D01*
X66939498Y-21122444D01*
X66939474Y-21122426D01*
X66803597Y-21023706D01*
X66803581Y-21023695D01*
X66792997Y-21016006D01*
X66792996Y-21016005D01*
X66792994Y-21016004D01*
X66786914Y-21012906D01*
X66786911Y-21012904D01*
X66716906Y-20977235D01*
X66716906Y-20977234D01*
X66716904Y-20977234D01*
X66631639Y-20933788D01*
X66631563Y-20933762D01*
X66459412Y-20877829D01*
X66459413Y-20877829D01*
X66325265Y-20856582D01*
X66280551Y-20849500D01*
X66280550Y-20849500D01*
X66099450Y-20849500D01*
X66099449Y-20849500D01*
X66073506Y-20853609D01*
X65920585Y-20877829D01*
X65748386Y-20933778D01*
X65748363Y-20933786D01*
X65748359Y-20933788D01*
X65587005Y-21016004D01*
X65440499Y-21122445D01*
X65440491Y-21122452D01*
X65312452Y-21250491D01*
X65312445Y-21250499D01*
X65206004Y-21397005D01*
X65123788Y-21558359D01*
X65123786Y-21558363D01*
X65123778Y-21558386D01*
X65067829Y-21730585D01*
X65045262Y-21873067D01*
X65039438Y-21885351D01*
X65034834Y-21906792D01*
X65031857Y-21913071D01*
X65019992Y-21926373D01*
X65015333Y-21936202D01*
X65006095Y-21941953D01*
X64985350Y-21965213D01*
X64918035Y-21983935D01*
X64851285Y-21963292D01*
X64824901Y-21932400D01*
X64814370Y-21923631D01*
X64812592Y-21917989D01*
X64807021Y-21911466D01*
X64804560Y-21906078D01*
X64794879Y-21873963D01*
X64783740Y-21803639D01*
X64772171Y-21730591D01*
X64716211Y-21558361D01*
X64716211Y-21558360D01*
X64687740Y-21502484D01*
X64633996Y-21397006D01*
X64633995Y-21397004D01*
X64620397Y-21378289D01*
X64620395Y-21378285D01*
X64527570Y-21250522D01*
X64527558Y-21250505D01*
X64527554Y-21250500D01*
X64527551Y-21250497D01*
X64527548Y-21250493D01*
X64399507Y-21122452D01*
X64399498Y-21122444D01*
X64399474Y-21122426D01*
X64263597Y-21023706D01*
X64263581Y-21023695D01*
X64252997Y-21016006D01*
X64252996Y-21016005D01*
X64252994Y-21016004D01*
X64246914Y-21012906D01*
X64246911Y-21012904D01*
X64176906Y-20977235D01*
X64176906Y-20977234D01*
X64176904Y-20977234D01*
X64091639Y-20933788D01*
X64091563Y-20933762D01*
X63919412Y-20877829D01*
X63919413Y-20877829D01*
X63785265Y-20856582D01*
X63740551Y-20849500D01*
X63740550Y-20849500D01*
X63559450Y-20849500D01*
X63559449Y-20849500D01*
X63533506Y-20853609D01*
X63380585Y-20877829D01*
X63208386Y-20933778D01*
X63208363Y-20933786D01*
X63208359Y-20933788D01*
X63047005Y-21016004D01*
X62900499Y-21122445D01*
X62900491Y-21122452D01*
X62772452Y-21250491D01*
X62772445Y-21250499D01*
X62666004Y-21397005D01*
X62583788Y-21558359D01*
X62583786Y-21558363D01*
X62583778Y-21558386D01*
X62527829Y-21730585D01*
X62505262Y-21873067D01*
X62499438Y-21885351D01*
X62494834Y-21906792D01*
X62491857Y-21913071D01*
X62479992Y-21926373D01*
X62475333Y-21936202D01*
X62466095Y-21941953D01*
X62445350Y-21965213D01*
X62378035Y-21983935D01*
X62311285Y-21963292D01*
X62284901Y-21932400D01*
X62274370Y-21923631D01*
X62272592Y-21917989D01*
X62267021Y-21911466D01*
X62264560Y-21906078D01*
X62254879Y-21873963D01*
X62243740Y-21803639D01*
X62232171Y-21730591D01*
X62176211Y-21558361D01*
X62176211Y-21558360D01*
X62147740Y-21502484D01*
X62093996Y-21397006D01*
X62093995Y-21397004D01*
X62080397Y-21378289D01*
X62080395Y-21378285D01*
X61987570Y-21250522D01*
X61987558Y-21250505D01*
X61987554Y-21250500D01*
X61987551Y-21250497D01*
X61987548Y-21250493D01*
X61859507Y-21122452D01*
X61859498Y-21122444D01*
X61859474Y-21122426D01*
X61723597Y-21023706D01*
X61723581Y-21023695D01*
X61712997Y-21016006D01*
X61712996Y-21016005D01*
X61712994Y-21016004D01*
X61706914Y-21012906D01*
X61706911Y-21012904D01*
X61636906Y-20977235D01*
X61636906Y-20977234D01*
X61636904Y-20977234D01*
X61551639Y-20933788D01*
X61551563Y-20933762D01*
X61379412Y-20877829D01*
X61379413Y-20877829D01*
X61245265Y-20856582D01*
X61200551Y-20849500D01*
X61200550Y-20849500D01*
X61019450Y-20849500D01*
X61019449Y-20849500D01*
X60993506Y-20853609D01*
X60840585Y-20877829D01*
X60668386Y-20933778D01*
X60668363Y-20933786D01*
X60668359Y-20933788D01*
X60507005Y-21016004D01*
X60360499Y-21122445D01*
X60360491Y-21122452D01*
X60232452Y-21250491D01*
X60232445Y-21250499D01*
X60126004Y-21397005D01*
X60043788Y-21558359D01*
X60043786Y-21558363D01*
X60043778Y-21558386D01*
X59987829Y-21730585D01*
X59965262Y-21873067D01*
X59959438Y-21885351D01*
X59954834Y-21906792D01*
X59951857Y-21913071D01*
X59939992Y-21926373D01*
X59935333Y-21936202D01*
X59926095Y-21941953D01*
X59905350Y-21965213D01*
X59838035Y-21983935D01*
X59771285Y-21963292D01*
X59744901Y-21932400D01*
X59734370Y-21923631D01*
X59732592Y-21917989D01*
X59727021Y-21911466D01*
X59724560Y-21906078D01*
X59714879Y-21873963D01*
X59703740Y-21803639D01*
X59692171Y-21730591D01*
X59636211Y-21558361D01*
X59636211Y-21558360D01*
X59607740Y-21502484D01*
X59553996Y-21397006D01*
X59553995Y-21397004D01*
X59540397Y-21378289D01*
X59540395Y-21378285D01*
X59447570Y-21250522D01*
X59447558Y-21250505D01*
X59447554Y-21250500D01*
X59447551Y-21250497D01*
X59447548Y-21250493D01*
X59319507Y-21122452D01*
X59319498Y-21122444D01*
X59319474Y-21122426D01*
X59183597Y-21023706D01*
X59183581Y-21023695D01*
X59172997Y-21016006D01*
X59172996Y-21016005D01*
X59172994Y-21016004D01*
X59166914Y-21012906D01*
X59166911Y-21012904D01*
X59096906Y-20977235D01*
X59096906Y-20977234D01*
X59096904Y-20977234D01*
X59011639Y-20933788D01*
X59011563Y-20933762D01*
X58839412Y-20877829D01*
X58839413Y-20877829D01*
X58705265Y-20856582D01*
X58660551Y-20849500D01*
X58660550Y-20849500D01*
X58479450Y-20849500D01*
X58479449Y-20849500D01*
X58453506Y-20853609D01*
X58300585Y-20877829D01*
X58128386Y-20933778D01*
X58128363Y-20933786D01*
X58128359Y-20933788D01*
X57967005Y-21016004D01*
X57820499Y-21122445D01*
X57820491Y-21122452D01*
X57692452Y-21250491D01*
X57692445Y-21250499D01*
X57586004Y-21397005D01*
X57503788Y-21558359D01*
X57503786Y-21558363D01*
X57503778Y-21558386D01*
X57447829Y-21730585D01*
X57425426Y-21872031D01*
X57419500Y-21909448D01*
X57419500Y-22090551D01*
X57422473Y-22109321D01*
X57447829Y-22269413D01*
X57503762Y-22441563D01*
X57503788Y-22441639D01*
X57538475Y-22509714D01*
X57538475Y-22509715D01*
X57570856Y-22573265D01*
X57583741Y-22598553D01*
X57586000Y-22602986D01*
X57586006Y-22602997D01*
X57692433Y-22749483D01*
X57692444Y-22749498D01*
X57692452Y-22749507D01*
X57820493Y-22877548D01*
X57820497Y-22877551D01*
X57820500Y-22877554D01*
X57820505Y-22877558D01*
X57948287Y-22970396D01*
X57967006Y-22983996D01*
X58072484Y-23037740D01*
X58128360Y-23066211D01*
X58128363Y-23066212D01*
X58128384Y-23066219D01*
X58128393Y-23066222D01*
X58138729Y-23069580D01*
X58163813Y-23077730D01*
X58228193Y-23098648D01*
X58300584Y-23122169D01*
X58300585Y-23122169D01*
X58300591Y-23122171D01*
X58383429Y-23135291D01*
X58479449Y-23150500D01*
X58479454Y-23150500D01*
X58660548Y-23150500D01*
X58660551Y-23150500D01*
X58747259Y-23136765D01*
X58839409Y-23122171D01*
X59011639Y-23066211D01*
X59172994Y-22983996D01*
X59319501Y-22877553D01*
X59447553Y-22749501D01*
X59553996Y-22602994D01*
X59636211Y-22441639D01*
X59692171Y-22269409D01*
X59707977Y-22169615D01*
X59712471Y-22141241D01*
X59713092Y-22137316D01*
X59714737Y-22126932D01*
X59720559Y-22114648D01*
X59725163Y-22093210D01*
X59728143Y-22086925D01*
X59740004Y-22073627D01*
X59744663Y-22063799D01*
X59753901Y-22058045D01*
X59774649Y-22034785D01*
X59841964Y-22016063D01*
X59908714Y-22036706D01*
X59935097Y-22067597D01*
X59945629Y-22076367D01*
X59947406Y-22082008D01*
X59952978Y-22088532D01*
X59955439Y-22093920D01*
X59965121Y-22126040D01*
X59987829Y-22269413D01*
X60043762Y-22441563D01*
X60043788Y-22441639D01*
X60078475Y-22509714D01*
X60078475Y-22509715D01*
X60110856Y-22573265D01*
X60123741Y-22598553D01*
X60126000Y-22602986D01*
X60126006Y-22602997D01*
X60232433Y-22749483D01*
X60232444Y-22749498D01*
X60232452Y-22749507D01*
X60360493Y-22877548D01*
X60360497Y-22877551D01*
X60360500Y-22877554D01*
X60360505Y-22877558D01*
X60488287Y-22970396D01*
X60507006Y-22983996D01*
X60612484Y-23037740D01*
X60668360Y-23066211D01*
X60668363Y-23066212D01*
X60668394Y-23066222D01*
X60668435Y-23066236D01*
X60779137Y-23102204D01*
X60839768Y-23121904D01*
X60840169Y-23122034D01*
X60841081Y-23122334D01*
X60843147Y-23123023D01*
X60857032Y-23128606D01*
X60875130Y-23137185D01*
X60927274Y-23183684D01*
X60930762Y-23189286D01*
X60949500Y-23254828D01*
X60949500Y-25724037D01*
X60947747Y-25744811D01*
X60944292Y-25765142D01*
X60939087Y-25785322D01*
X60902353Y-25890300D01*
X60902353Y-25890302D01*
X60899500Y-25920730D01*
X60899500Y-27204269D01*
X60899800Y-27207469D01*
X60902352Y-27234696D01*
X60902554Y-27236069D01*
X60903702Y-27247729D01*
X60904769Y-27268661D01*
X60888523Y-27336616D01*
X60838117Y-27385000D01*
X60838115Y-27385000D01*
X60834072Y-27387102D01*
X60765510Y-27400554D01*
X60765307Y-27400535D01*
X60754270Y-27399500D01*
X60754266Y-27399500D01*
X60345734Y-27399500D01*
X60345730Y-27399500D01*
X60327074Y-27401249D01*
X60321069Y-27401812D01*
X60317499Y-27401978D01*
X60315297Y-27402353D01*
X60187118Y-27447206D01*
X60077849Y-27527849D01*
X59997206Y-27637118D01*
X59952353Y-27765297D01*
X59951978Y-27767499D01*
X59951812Y-27771069D01*
X59949500Y-27795730D01*
X59949500Y-29079269D01*
X59952353Y-29109699D01*
X59952353Y-29109701D01*
X59997206Y-29237880D01*
X59997207Y-29237882D01*
X60024328Y-29274630D01*
X60030282Y-29289740D01*
X60030374Y-29290766D01*
X60031384Y-29292646D01*
X60041973Y-29321637D01*
X60049500Y-29364177D01*
X60049500Y-30403308D01*
X60044475Y-30438249D01*
X60039396Y-30455543D01*
X60030703Y-30469615D01*
X60027066Y-30483870D01*
X60004922Y-30511353D01*
X59992304Y-30523102D01*
X59982114Y-30531617D01*
X59867465Y-30617443D01*
X59867453Y-30617453D01*
X59867450Y-30617456D01*
X59781205Y-30732665D01*
X59781201Y-30732671D01*
X59781200Y-30732673D01*
X59730911Y-30867507D01*
X59730908Y-30867520D01*
X59724501Y-30927116D01*
X59724501Y-30927123D01*
X59724500Y-30927135D01*
X59724500Y-31422876D01*
X59724659Y-31424806D01*
X59724885Y-31426454D01*
X59730907Y-31482482D01*
X59758690Y-31556971D01*
X59781202Y-31617328D01*
X59781203Y-31617330D01*
X59781204Y-31617332D01*
X59781205Y-31617333D01*
X59867450Y-31732542D01*
X59867452Y-31732544D01*
X59867455Y-31732547D01*
X59982664Y-31818793D01*
X59982671Y-31818797D01*
X60019470Y-31832522D01*
X60117517Y-31869091D01*
X60177127Y-31875500D01*
X60822872Y-31875499D01*
X60882483Y-31869091D01*
X61017331Y-31818796D01*
X61132546Y-31732546D01*
X61218796Y-31617331D01*
X61269091Y-31482483D01*
X61275500Y-31422873D01*
X61275499Y-30927128D01*
X61269091Y-30867517D01*
X61269087Y-30867507D01*
X61238781Y-30786253D01*
X61238771Y-30786226D01*
X61218797Y-30732671D01*
X61218793Y-30732664D01*
X61132547Y-30617455D01*
X61132544Y-30617452D01*
X61020347Y-30533461D01*
X61006976Y-30521875D01*
X60989716Y-30504612D01*
X60957252Y-30447595D01*
X60954349Y-30436219D01*
X60950500Y-30405563D01*
X60950500Y-29480457D01*
X60955522Y-29445524D01*
X60959347Y-29432498D01*
X60961867Y-29423913D01*
X60968397Y-29412492D01*
X60970149Y-29402969D01*
X60990373Y-29374050D01*
X60993137Y-29371101D01*
X61009965Y-29356142D01*
X61022150Y-29347150D01*
X61102793Y-29237882D01*
X61141419Y-29127495D01*
X61147646Y-29109701D01*
X61147646Y-29109699D01*
X61149432Y-29090654D01*
X61650000Y-29090654D01*
X61652899Y-29127487D01*
X61652900Y-29127495D01*
X61652902Y-29127505D01*
X61698707Y-29285165D01*
X61698717Y-29285196D01*
X61698718Y-29285199D01*
X61782310Y-29426546D01*
X61782314Y-29426552D01*
X61782321Y-29426561D01*
X61898438Y-29542678D01*
X61898447Y-29542685D01*
X62039801Y-29626281D01*
X62104408Y-29645050D01*
X62139660Y-29667563D01*
X62197509Y-29672098D01*
X62197514Y-29672100D01*
X62197511Y-29672100D01*
X62199998Y-29672295D01*
X62200000Y-29672295D01*
X62700000Y-29672295D01*
X62700001Y-29672295D01*
X62700003Y-29672295D01*
X62700003Y-29672294D01*
X62702486Y-29672100D01*
X62860198Y-29626281D01*
X63001552Y-29542685D01*
X63001561Y-29542678D01*
X63117678Y-29426561D01*
X63117685Y-29426552D01*
X63201282Y-29285196D01*
X63201283Y-29285193D01*
X63247099Y-29127495D01*
X63247100Y-29127489D01*
X63249999Y-29090649D01*
X63250000Y-29090634D01*
X63250000Y-28687500D01*
X62700000Y-28687500D01*
X62700000Y-29672295D01*
X62200000Y-29672295D01*
X62200000Y-28687500D01*
X61650000Y-28687500D01*
X61650000Y-29090654D01*
X61149432Y-29090654D01*
X61150500Y-29079269D01*
X61150500Y-27795730D01*
X61150500Y-27795727D01*
X61146942Y-27757792D01*
X61147136Y-27757773D01*
X61146233Y-27751037D01*
X61145228Y-27731338D01*
X61161472Y-27663385D01*
X61211874Y-27615002D01*
X61215934Y-27612891D01*
X61284497Y-27599446D01*
X61295734Y-27600500D01*
X61513221Y-27600500D01*
X61548153Y-27605521D01*
X61561472Y-27609432D01*
X61620250Y-27647206D01*
X61649276Y-27710761D01*
X61649276Y-27710764D01*
X61651525Y-27726407D01*
X61652405Y-27753779D01*
X61650000Y-27784337D01*
X61650000Y-27784350D01*
X61650000Y-28187500D01*
X62200000Y-28187500D01*
X62700000Y-28187500D01*
X63250000Y-28187500D01*
X63250000Y-27784365D01*
X63249999Y-27784350D01*
X63247100Y-27747510D01*
X63247099Y-27747504D01*
X63231331Y-27693232D01*
X63201291Y-27589833D01*
X63201289Y-27589828D01*
X63201283Y-27589806D01*
X63201282Y-27589803D01*
X63167940Y-27533425D01*
X63117688Y-27448452D01*
X63117685Y-27448447D01*
X63117676Y-27448436D01*
X63001562Y-27332322D01*
X63001551Y-27332313D01*
X63001546Y-27332310D01*
X62860199Y-27248718D01*
X62860196Y-27248717D01*
X62860182Y-27248712D01*
X62816662Y-27236069D01*
X62795621Y-27229956D01*
X62760409Y-27207469D01*
X62700000Y-27202703D01*
X62700000Y-28187500D01*
X62200000Y-28187500D01*
X62200000Y-27211743D01*
X62160688Y-27183269D01*
X62155656Y-27178707D01*
X62153160Y-27174625D01*
X62140849Y-27162694D01*
X62135292Y-27155510D01*
X62135291Y-27155509D01*
X62134893Y-27155060D01*
X62134780Y-27154848D01*
X62132736Y-27152205D01*
X62133186Y-27151856D01*
X62107635Y-27103903D01*
X62106322Y-27098837D01*
X62104466Y-27091680D01*
X62100500Y-27060566D01*
X62100500Y-25920738D01*
X62100500Y-25920736D01*
X62100500Y-25920730D01*
X62097646Y-25890302D01*
X62097645Y-25890300D01*
X62097645Y-25890296D01*
X62060912Y-25785320D01*
X62055706Y-25765142D01*
X62052250Y-25744799D01*
X62050500Y-25724037D01*
X62050500Y-22720980D01*
X62055523Y-22686046D01*
X62064309Y-22656123D01*
X62082964Y-22618177D01*
X62091881Y-22605904D01*
X62093156Y-22604253D01*
X62093993Y-22602998D01*
X62093994Y-22602997D01*
X62093996Y-22602994D01*
X62176211Y-22441639D01*
X62232171Y-22269409D01*
X62247977Y-22169615D01*
X62252471Y-22141241D01*
X62253092Y-22137316D01*
X62254737Y-22126932D01*
X62260559Y-22114648D01*
X62265163Y-22093210D01*
X62268143Y-22086925D01*
X62280004Y-22073627D01*
X62284663Y-22063799D01*
X62293901Y-22058045D01*
X62314649Y-22034785D01*
X62381964Y-22016063D01*
X62448714Y-22036706D01*
X62475097Y-22067597D01*
X62485629Y-22076367D01*
X62487406Y-22082008D01*
X62492978Y-22088532D01*
X62495439Y-22093920D01*
X62505121Y-22126040D01*
X62527829Y-22269413D01*
X62583762Y-22441563D01*
X62583788Y-22441639D01*
X62618475Y-22509714D01*
X62618475Y-22509715D01*
X62650856Y-22573265D01*
X62663741Y-22598553D01*
X62666000Y-22602986D01*
X62666006Y-22602997D01*
X62772433Y-22749483D01*
X62772444Y-22749498D01*
X62772452Y-22749507D01*
X62900493Y-22877548D01*
X62900497Y-22877551D01*
X62900500Y-22877554D01*
X62900505Y-22877558D01*
X63028287Y-22970396D01*
X63047006Y-22983996D01*
X63152484Y-23037740D01*
X63208360Y-23066211D01*
X63208363Y-23066212D01*
X63208384Y-23066219D01*
X63208393Y-23066222D01*
X63218729Y-23069580D01*
X63243813Y-23077730D01*
X63308193Y-23098648D01*
X63380584Y-23122169D01*
X63380585Y-23122169D01*
X63380591Y-23122171D01*
X63463429Y-23135291D01*
X63559449Y-23150500D01*
X63559454Y-23150500D01*
X63740548Y-23150500D01*
X63740551Y-23150500D01*
X63827259Y-23136765D01*
X63919409Y-23122171D01*
X64091639Y-23066211D01*
X64252994Y-22983996D01*
X64399501Y-22877553D01*
X64527553Y-22749501D01*
X64633996Y-22602994D01*
X64716211Y-22441639D01*
X64772171Y-22269409D01*
X64787977Y-22169615D01*
X64792471Y-22141241D01*
X64793092Y-22137316D01*
X64794737Y-22126932D01*
X64800559Y-22114648D01*
X64805163Y-22093210D01*
X64808143Y-22086925D01*
X64820004Y-22073627D01*
X64824663Y-22063799D01*
X64833901Y-22058045D01*
X64854649Y-22034785D01*
X64921964Y-22016063D01*
X64988714Y-22036706D01*
X65015097Y-22067597D01*
X65025629Y-22076367D01*
X65027406Y-22082008D01*
X65032978Y-22088532D01*
X65035439Y-22093920D01*
X65045121Y-22126040D01*
X65067829Y-22269413D01*
X65123762Y-22441563D01*
X65123788Y-22441639D01*
X65158475Y-22509714D01*
X65158475Y-22509715D01*
X65190856Y-22573265D01*
X65203741Y-22598553D01*
X65206000Y-22602986D01*
X65206006Y-22602997D01*
X65312433Y-22749483D01*
X65312444Y-22749498D01*
X65312452Y-22749507D01*
X65440493Y-22877548D01*
X65440497Y-22877551D01*
X65440500Y-22877554D01*
X65440505Y-22877558D01*
X65568287Y-22970396D01*
X65587006Y-22983996D01*
X65692484Y-23037740D01*
X65748360Y-23066211D01*
X65748366Y-23066213D01*
X65748386Y-23066219D01*
X65748396Y-23066223D01*
X65754515Y-23068211D01*
X65783813Y-23077730D01*
X65846866Y-23098216D01*
X65878533Y-23113786D01*
X65891438Y-23122610D01*
X65902724Y-23136412D01*
X65904535Y-23137650D01*
X65905388Y-23139669D01*
X65935664Y-23176693D01*
X65938620Y-23183687D01*
X65939717Y-23186281D01*
X65949500Y-23234556D01*
X65949500Y-25724037D01*
X65947747Y-25744811D01*
X65944292Y-25765142D01*
X65939087Y-25785322D01*
X65902353Y-25890300D01*
X65902353Y-25890302D01*
X65899500Y-25920730D01*
X65899500Y-27204269D01*
X65899800Y-27207469D01*
X65902352Y-27234696D01*
X65902554Y-27236069D01*
X65903702Y-27247729D01*
X65904769Y-27268661D01*
X65888523Y-27336616D01*
X65838117Y-27385000D01*
X65838115Y-27385000D01*
X65834072Y-27387102D01*
X65765510Y-27400554D01*
X65765307Y-27400535D01*
X65754270Y-27399500D01*
X65754266Y-27399500D01*
X65345734Y-27399500D01*
X65345730Y-27399500D01*
X65327074Y-27401249D01*
X65321069Y-27401812D01*
X65317499Y-27401978D01*
X65315297Y-27402353D01*
X65187118Y-27447206D01*
X65077849Y-27527849D01*
X64997206Y-27637118D01*
X64952353Y-27765297D01*
X64951978Y-27767499D01*
X64951812Y-27771069D01*
X64949500Y-27795730D01*
X64949500Y-29079269D01*
X64952353Y-29109699D01*
X64952353Y-29109701D01*
X64997206Y-29237880D01*
X64997207Y-29237882D01*
X65024328Y-29274630D01*
X65030282Y-29289740D01*
X65030374Y-29290766D01*
X65031384Y-29292646D01*
X65041973Y-29321637D01*
X65049500Y-29364177D01*
X65049500Y-30403308D01*
X65044475Y-30438249D01*
X65039396Y-30455543D01*
X65030703Y-30469615D01*
X65027066Y-30483870D01*
X65004922Y-30511353D01*
X64992304Y-30523102D01*
X64982114Y-30531617D01*
X64867465Y-30617443D01*
X64867453Y-30617453D01*
X64867450Y-30617456D01*
X64781205Y-30732665D01*
X64781201Y-30732671D01*
X64781200Y-30732673D01*
X64730911Y-30867507D01*
X64730908Y-30867520D01*
X64724501Y-30927116D01*
X64724501Y-30927123D01*
X64724500Y-30927135D01*
X64724500Y-31422876D01*
X64724659Y-31424806D01*
X64724885Y-31426454D01*
X64730907Y-31482482D01*
X64758690Y-31556971D01*
X64781202Y-31617328D01*
X64781203Y-31617330D01*
X64781204Y-31617332D01*
X64781205Y-31617333D01*
X64867450Y-31732542D01*
X64867452Y-31732544D01*
X64867455Y-31732547D01*
X64982664Y-31818793D01*
X64982671Y-31818797D01*
X65019470Y-31832522D01*
X65117517Y-31869091D01*
X65177127Y-31875500D01*
X65822872Y-31875499D01*
X65882483Y-31869091D01*
X66017331Y-31818796D01*
X66132546Y-31732546D01*
X66218796Y-31617331D01*
X66269091Y-31482483D01*
X66275500Y-31422873D01*
X66275499Y-30927128D01*
X66269091Y-30867517D01*
X66269087Y-30867507D01*
X66238781Y-30786253D01*
X66238771Y-30786226D01*
X66218797Y-30732671D01*
X66218793Y-30732664D01*
X66132547Y-30617455D01*
X66132544Y-30617452D01*
X66020347Y-30533461D01*
X66006976Y-30521875D01*
X65989716Y-30504612D01*
X65957252Y-30447595D01*
X65954349Y-30436219D01*
X65950500Y-30405563D01*
X65950500Y-29480457D01*
X65955522Y-29445524D01*
X65959347Y-29432498D01*
X65961867Y-29423913D01*
X65968397Y-29412492D01*
X65970149Y-29402969D01*
X65990373Y-29374050D01*
X65993137Y-29371101D01*
X66009965Y-29356142D01*
X66022150Y-29347150D01*
X66102793Y-29237882D01*
X66141419Y-29127495D01*
X66147646Y-29109701D01*
X66147646Y-29109699D01*
X66149432Y-29090654D01*
X66650000Y-29090654D01*
X66652899Y-29127487D01*
X66652900Y-29127495D01*
X66652902Y-29127505D01*
X66698707Y-29285165D01*
X66698717Y-29285196D01*
X66698718Y-29285199D01*
X66782310Y-29426546D01*
X66782314Y-29426552D01*
X66782321Y-29426561D01*
X66898438Y-29542678D01*
X66898447Y-29542685D01*
X67039801Y-29626281D01*
X67104408Y-29645050D01*
X67139660Y-29667563D01*
X67197509Y-29672098D01*
X67197514Y-29672100D01*
X67197511Y-29672100D01*
X67199998Y-29672295D01*
X67200000Y-29672295D01*
X67700000Y-29672295D01*
X67700001Y-29672295D01*
X67700003Y-29672295D01*
X67700003Y-29672294D01*
X67702486Y-29672100D01*
X67860198Y-29626281D01*
X68001552Y-29542685D01*
X68001561Y-29542678D01*
X68117678Y-29426561D01*
X68117685Y-29426552D01*
X68201282Y-29285196D01*
X68201283Y-29285193D01*
X68247099Y-29127495D01*
X68247100Y-29127489D01*
X68249999Y-29090649D01*
X68250000Y-29090634D01*
X68250000Y-28687500D01*
X67700000Y-28687500D01*
X67700000Y-29672295D01*
X67200000Y-29672295D01*
X67200000Y-28687500D01*
X66650000Y-28687500D01*
X66650000Y-29090654D01*
X66149432Y-29090654D01*
X66150500Y-29079269D01*
X66150500Y-27795730D01*
X66150500Y-27795727D01*
X66146942Y-27757792D01*
X66147136Y-27757773D01*
X66146233Y-27751037D01*
X66145228Y-27731338D01*
X66161472Y-27663385D01*
X66211874Y-27615002D01*
X66215934Y-27612891D01*
X66284497Y-27599446D01*
X66295734Y-27600500D01*
X66513221Y-27600500D01*
X66548153Y-27605521D01*
X66561472Y-27609432D01*
X66620250Y-27647206D01*
X66649276Y-27710761D01*
X66649276Y-27710764D01*
X66651525Y-27726407D01*
X66652405Y-27753779D01*
X66650000Y-27784337D01*
X66650000Y-27784350D01*
X66650000Y-28187500D01*
X67200000Y-28187500D01*
X67700000Y-28187500D01*
X68250000Y-28187500D01*
X68250000Y-27784365D01*
X68249999Y-27784350D01*
X68247100Y-27747510D01*
X68247099Y-27747504D01*
X68231331Y-27693232D01*
X68201291Y-27589833D01*
X68201289Y-27589828D01*
X68201283Y-27589806D01*
X68201282Y-27589803D01*
X68167940Y-27533425D01*
X68117688Y-27448452D01*
X68117685Y-27448447D01*
X68117676Y-27448436D01*
X68001562Y-27332322D01*
X68001551Y-27332313D01*
X68001546Y-27332310D01*
X67860199Y-27248718D01*
X67860196Y-27248717D01*
X67860182Y-27248712D01*
X67816662Y-27236069D01*
X67795621Y-27229956D01*
X67760409Y-27207469D01*
X67700000Y-27202703D01*
X67700000Y-28187500D01*
X67200000Y-28187500D01*
X67200000Y-27211743D01*
X67160688Y-27183269D01*
X67155656Y-27178707D01*
X67153160Y-27174625D01*
X67140849Y-27162694D01*
X67135292Y-27155510D01*
X67135291Y-27155509D01*
X67134893Y-27155060D01*
X67134780Y-27154848D01*
X67132736Y-27152205D01*
X67133186Y-27151856D01*
X67107635Y-27103903D01*
X67106322Y-27098837D01*
X67104466Y-27091680D01*
X67100500Y-27060566D01*
X67100500Y-25920738D01*
X67100500Y-25920736D01*
X67100500Y-25920730D01*
X67097646Y-25890302D01*
X67097645Y-25890300D01*
X67097645Y-25890296D01*
X67060912Y-25785320D01*
X67055706Y-25765142D01*
X67052250Y-25744799D01*
X67050500Y-25724037D01*
X67050500Y-22831092D01*
X67055523Y-22796158D01*
X67064309Y-22766235D01*
X67082966Y-22728286D01*
X67113656Y-22686046D01*
X67149934Y-22636113D01*
X67161299Y-22620469D01*
X67173996Y-22602994D01*
X67256211Y-22441639D01*
X67312171Y-22269409D01*
X67327977Y-22169615D01*
X67332471Y-22141241D01*
X67333092Y-22137316D01*
X67334737Y-22126932D01*
X67340559Y-22114648D01*
X67345163Y-22093210D01*
X67348143Y-22086925D01*
X67360004Y-22073627D01*
X67364663Y-22063799D01*
X67373901Y-22058045D01*
X67394649Y-22034785D01*
X67461964Y-22016063D01*
X67528714Y-22036706D01*
X67555097Y-22067597D01*
X67565629Y-22076367D01*
X67567406Y-22082008D01*
X67572978Y-22088532D01*
X67575439Y-22093920D01*
X67585121Y-22126040D01*
X67607829Y-22269413D01*
X67663762Y-22441563D01*
X67663788Y-22441639D01*
X67698475Y-22509714D01*
X67698475Y-22509715D01*
X67730856Y-22573265D01*
X67743741Y-22598553D01*
X67746000Y-22602986D01*
X67746006Y-22602997D01*
X67852433Y-22749483D01*
X67852444Y-22749498D01*
X67852452Y-22749507D01*
X67980493Y-22877548D01*
X67980497Y-22877551D01*
X67980500Y-22877554D01*
X67980505Y-22877558D01*
X68108287Y-22970396D01*
X68127006Y-22983996D01*
X68232484Y-23037740D01*
X68288360Y-23066211D01*
X68288363Y-23066212D01*
X68288384Y-23066219D01*
X68288393Y-23066222D01*
X68298729Y-23069580D01*
X68323813Y-23077730D01*
X68388193Y-23098648D01*
X68460584Y-23122169D01*
X68460585Y-23122169D01*
X68460591Y-23122171D01*
X68543429Y-23135291D01*
X68639449Y-23150500D01*
X68639454Y-23150500D01*
X68820548Y-23150500D01*
X68820551Y-23150500D01*
X68907259Y-23136765D01*
X68999409Y-23122171D01*
X69171639Y-23066211D01*
X69332994Y-22983996D01*
X69479501Y-22877553D01*
X69607553Y-22749501D01*
X69713996Y-22602994D01*
X69796211Y-22441639D01*
X69852171Y-22269409D01*
X69867977Y-22169615D01*
X69872471Y-22141241D01*
X69873092Y-22137316D01*
X69874737Y-22126932D01*
X69880559Y-22114648D01*
X69885163Y-22093210D01*
X69888143Y-22086925D01*
X69900004Y-22073627D01*
X69904663Y-22063799D01*
X69913901Y-22058045D01*
X69934649Y-22034785D01*
X70001964Y-22016063D01*
X70068714Y-22036706D01*
X70095097Y-22067597D01*
X70105629Y-22076367D01*
X70107406Y-22082008D01*
X70112978Y-22088532D01*
X70115439Y-22093920D01*
X70125121Y-22126040D01*
X70147829Y-22269413D01*
X70203762Y-22441563D01*
X70203788Y-22441639D01*
X70238475Y-22509714D01*
X70238475Y-22509715D01*
X70270856Y-22573265D01*
X70283741Y-22598553D01*
X70286000Y-22602986D01*
X70286006Y-22602997D01*
X70392433Y-22749483D01*
X70392444Y-22749498D01*
X70392452Y-22749507D01*
X70520493Y-22877548D01*
X70520497Y-22877551D01*
X70520500Y-22877554D01*
X70520505Y-22877558D01*
X70548526Y-22897916D01*
X70648284Y-22970395D01*
X70648287Y-22970396D01*
X70657646Y-22977196D01*
X70667004Y-22983995D01*
X70790344Y-23046840D01*
X70828361Y-23066211D01*
X70846858Y-23072220D01*
X70846859Y-23072221D01*
X70878532Y-23087793D01*
X70891437Y-23096617D01*
X70935664Y-23150700D01*
X70939717Y-23160289D01*
X70949500Y-23208565D01*
X70949500Y-25724037D01*
X70947747Y-25744811D01*
X70944292Y-25765142D01*
X70939087Y-25785322D01*
X70902353Y-25890300D01*
X70902353Y-25890302D01*
X70899500Y-25920730D01*
X70899500Y-27204269D01*
X70899800Y-27207469D01*
X70902352Y-27234696D01*
X70902554Y-27236069D01*
X70903702Y-27247729D01*
X70904769Y-27268661D01*
X70888523Y-27336616D01*
X70838117Y-27385000D01*
X70838115Y-27385000D01*
X70834072Y-27387102D01*
X70765510Y-27400554D01*
X70765307Y-27400535D01*
X70754270Y-27399500D01*
X70754266Y-27399500D01*
X70345734Y-27399500D01*
X70345730Y-27399500D01*
X70327074Y-27401249D01*
X70321069Y-27401812D01*
X70317499Y-27401978D01*
X70315297Y-27402353D01*
X70187118Y-27447206D01*
X70077849Y-27527849D01*
X69997206Y-27637118D01*
X69952353Y-27765297D01*
X69951978Y-27767499D01*
X69951812Y-27771069D01*
X69949500Y-27795730D01*
X69949500Y-29079269D01*
X69952353Y-29109699D01*
X69952353Y-29109701D01*
X69997206Y-29237880D01*
X69997207Y-29237882D01*
X70024328Y-29274630D01*
X70030282Y-29289740D01*
X70030374Y-29290766D01*
X70031384Y-29292646D01*
X70041973Y-29321637D01*
X70049500Y-29364177D01*
X70049500Y-30403308D01*
X70044475Y-30438249D01*
X70039396Y-30455543D01*
X70030703Y-30469615D01*
X70027066Y-30483870D01*
X70004922Y-30511353D01*
X69992304Y-30523102D01*
X69982114Y-30531617D01*
X69867465Y-30617443D01*
X69867453Y-30617453D01*
X69867450Y-30617456D01*
X69781205Y-30732665D01*
X69781201Y-30732671D01*
X69781200Y-30732673D01*
X69730911Y-30867507D01*
X69730908Y-30867520D01*
X69724501Y-30927116D01*
X69724501Y-30927123D01*
X69724500Y-30927135D01*
X69724500Y-31422876D01*
X69724659Y-31424806D01*
X69724885Y-31426454D01*
X69730907Y-31482482D01*
X69758690Y-31556971D01*
X69781202Y-31617328D01*
X69781203Y-31617330D01*
X69781204Y-31617332D01*
X69781205Y-31617333D01*
X69867450Y-31732542D01*
X69867452Y-31732544D01*
X69867455Y-31732547D01*
X69982664Y-31818793D01*
X69982671Y-31818797D01*
X70019470Y-31832522D01*
X70117517Y-31869091D01*
X70177127Y-31875500D01*
X70822872Y-31875499D01*
X70882483Y-31869091D01*
X70950464Y-31843735D01*
X70984944Y-31836234D01*
X70997775Y-31835317D01*
X70997785Y-31835315D01*
X70999036Y-31835226D01*
X71067309Y-31850076D01*
X71112185Y-31891847D01*
X71112888Y-31892940D01*
X71114800Y-31895916D01*
X71115487Y-31898252D01*
X71116716Y-31899481D01*
X71119189Y-31910850D01*
X71134500Y-31962949D01*
X71134500Y-32028481D01*
X71129475Y-32063422D01*
X71125564Y-32076739D01*
X71115927Y-32091732D01*
X71110907Y-32108833D01*
X71097429Y-32120512D01*
X71087787Y-32135515D01*
X71071572Y-32142919D01*
X71058106Y-32154590D01*
X71024242Y-32164535D01*
X71018332Y-32165385D01*
X70957347Y-32158830D01*
X70894835Y-32135515D01*
X70882486Y-32130909D01*
X70882483Y-32130908D01*
X70877357Y-32130277D01*
X70875871Y-32130198D01*
X70822883Y-32124501D01*
X70822881Y-32124500D01*
X70822873Y-32124500D01*
X70822865Y-32124500D01*
X70177123Y-32124500D01*
X70175192Y-32124659D01*
X70173545Y-32124885D01*
X70124121Y-32130198D01*
X70117516Y-32130908D01*
X69982677Y-32181200D01*
X69982666Y-32181204D01*
X69982665Y-32181205D01*
X69867456Y-32267450D01*
X69867450Y-32267456D01*
X69781205Y-32382665D01*
X69781203Y-32382668D01*
X69730908Y-32517516D01*
X69724500Y-32577125D01*
X69724500Y-32894204D01*
X69724499Y-32894206D01*
X69724500Y-32894207D01*
X69719476Y-32929141D01*
X69712064Y-32954382D01*
X69680769Y-33007126D01*
X68882323Y-33805573D01*
X68854072Y-33826722D01*
X68830984Y-33839330D01*
X68771554Y-33854500D01*
X65424793Y-33854500D01*
X65391519Y-33849952D01*
X65390691Y-33849721D01*
X65385718Y-33848261D01*
X65385355Y-33848235D01*
X65379385Y-33846572D01*
X65354442Y-33831029D01*
X65328159Y-33817871D01*
X65325127Y-33812761D01*
X65320086Y-33809620D01*
X65307505Y-33783057D01*
X65292509Y-33757780D01*
X65292721Y-33751842D01*
X65290179Y-33746475D01*
X65293955Y-33717332D01*
X65294583Y-33699781D01*
X65292008Y-33699222D01*
X65292363Y-33697589D01*
X65294822Y-33693083D01*
X65295006Y-33687955D01*
X65295022Y-33687908D01*
X65295541Y-33686351D01*
X65297869Y-33687127D01*
X65299158Y-33677185D01*
X65311495Y-33662539D01*
X65325838Y-33636263D01*
X65387684Y-33574417D01*
X65415929Y-33553274D01*
X65439021Y-33540666D01*
X65498446Y-33525499D01*
X65822871Y-33525499D01*
X65822872Y-33525499D01*
X65882483Y-33519091D01*
X66017331Y-33468796D01*
X66132546Y-33382546D01*
X66218796Y-33267331D01*
X66269091Y-33132483D01*
X66275500Y-33072873D01*
X66275499Y-32577128D01*
X66269091Y-32517517D01*
X66218796Y-32382669D01*
X66218795Y-32382668D01*
X66218793Y-32382664D01*
X66218782Y-32382649D01*
X66216392Y-32378929D01*
X66216391Y-32378928D01*
X66213489Y-32375579D01*
X66132547Y-32267455D01*
X66132544Y-32267452D01*
X66132542Y-32267450D01*
X66074616Y-32224086D01*
X66017335Y-32181206D01*
X66017331Y-32181204D01*
X66017327Y-32181201D01*
X66017325Y-32181200D01*
X65892654Y-32134702D01*
X65892651Y-32134701D01*
X65882486Y-32130910D01*
X65882485Y-32130909D01*
X65882483Y-32130909D01*
X65869021Y-32129461D01*
X65869014Y-32129460D01*
X65822883Y-32124501D01*
X65822881Y-32124500D01*
X65822873Y-32124500D01*
X65822865Y-32124500D01*
X65177123Y-32124500D01*
X65175192Y-32124659D01*
X65173545Y-32124885D01*
X65124121Y-32130198D01*
X65117516Y-32130908D01*
X64982677Y-32181200D01*
X64982666Y-32181204D01*
X64982665Y-32181205D01*
X64867456Y-32267450D01*
X64867450Y-32267456D01*
X64781205Y-32382665D01*
X64781203Y-32382668D01*
X64730908Y-32517516D01*
X64724500Y-32577125D01*
X64724500Y-32894204D01*
X64724499Y-32894206D01*
X64724500Y-32894207D01*
X64719476Y-32929141D01*
X64712064Y-32954382D01*
X64680769Y-33007126D01*
X64382323Y-33305573D01*
X64354072Y-33326722D01*
X64330984Y-33339330D01*
X64271554Y-33354500D01*
X61382708Y-33354500D01*
X61382705Y-33354499D01*
X61382704Y-33354500D01*
X61347769Y-33349476D01*
X61334451Y-33345565D01*
X61275674Y-33307789D01*
X61246653Y-33244242D01*
X61245803Y-33238329D01*
X61252357Y-33177349D01*
X61265107Y-33143164D01*
X61266424Y-33140429D01*
X61268435Y-33134437D01*
X61269811Y-33130549D01*
X61276344Y-33113029D01*
X61273402Y-33104189D01*
X61274033Y-33086512D01*
X61275500Y-33072873D01*
X61275499Y-32577128D01*
X61269091Y-32517517D01*
X61218796Y-32382669D01*
X61218795Y-32382668D01*
X61218793Y-32382664D01*
X61218782Y-32382649D01*
X61216392Y-32378929D01*
X61216391Y-32378928D01*
X61213489Y-32375579D01*
X61132547Y-32267455D01*
X61132544Y-32267452D01*
X61132542Y-32267450D01*
X61074616Y-32224086D01*
X61017335Y-32181206D01*
X61017331Y-32181204D01*
X61017327Y-32181201D01*
X61017325Y-32181200D01*
X60892654Y-32134702D01*
X60892651Y-32134701D01*
X60882486Y-32130910D01*
X60882485Y-32130909D01*
X60882483Y-32130909D01*
X60869021Y-32129461D01*
X60869014Y-32129460D01*
X60822883Y-32124501D01*
X60822881Y-32124500D01*
X60822873Y-32124500D01*
X60822865Y-32124500D01*
X60177123Y-32124500D01*
X60175192Y-32124659D01*
X60173545Y-32124885D01*
X60124121Y-32130198D01*
X60117516Y-32130908D01*
X59982677Y-32181200D01*
X59982666Y-32181204D01*
X59982665Y-32181205D01*
X59867456Y-32267450D01*
X59867450Y-32267456D01*
X59781205Y-32382665D01*
X59781203Y-32382668D01*
X59730908Y-32517516D01*
X59724500Y-32577125D01*
X59724500Y-32894204D01*
X59724499Y-32894206D01*
X59724500Y-32894207D01*
X59719476Y-32929141D01*
X59712064Y-32954382D01*
X59680769Y-33007126D01*
X56824517Y-35863377D01*
X56824509Y-35863387D01*
X56824505Y-35863393D01*
X56765200Y-35966112D01*
X56764852Y-35967037D01*
X56764167Y-35969967D01*
X56734500Y-36080689D01*
X56734500Y-51195674D01*
X56734499Y-51195677D01*
X56734500Y-51195679D01*
X56729476Y-51230614D01*
X56724174Y-51248668D01*
X56690772Y-51303467D01*
X56682238Y-51311605D01*
X56669590Y-51321770D01*
X56669657Y-51321856D01*
X56666286Y-51324477D01*
X56554482Y-51436280D01*
X56554470Y-51436298D01*
X56475430Y-51573200D01*
X56475425Y-51573210D01*
X56475424Y-51573211D01*
X56475422Y-51573218D01*
X56453386Y-51655460D01*
X56434500Y-51725943D01*
X56434500Y-51884057D01*
X56448585Y-51936622D01*
X56456182Y-51964973D01*
X56475423Y-52036784D01*
X56475424Y-52036787D01*
X56475425Y-52036788D01*
X56475428Y-52036793D01*
X56551623Y-52168771D01*
X56551638Y-52168795D01*
X56554475Y-52173709D01*
X56554479Y-52173714D01*
X56554480Y-52173716D01*
X56555049Y-52174285D01*
X56666284Y-52285520D01*
X56666978Y-52286020D01*
X56669505Y-52287380D01*
X56726612Y-52320350D01*
X56754353Y-52342166D01*
X56765140Y-52353479D01*
X56773310Y-52369326D01*
X56774825Y-52370915D01*
X56775240Y-52373069D01*
X56797156Y-52415578D01*
X56798834Y-52424283D01*
X56796850Y-52479845D01*
X56784500Y-52525936D01*
X56784500Y-52684056D01*
X56820967Y-52820156D01*
X56820969Y-52820159D01*
X56824773Y-52834356D01*
X56825423Y-52836783D01*
X56825426Y-52836790D01*
X56903420Y-52971883D01*
X56904193Y-52973304D01*
X56904204Y-52973358D01*
X56904398Y-52973634D01*
X57016287Y-53085523D01*
X57016969Y-53086014D01*
X57019475Y-53087363D01*
X57153209Y-53164573D01*
X57153216Y-53164577D01*
X57305943Y-53205500D01*
X57305945Y-53205500D01*
X57305947Y-53205500D01*
X57307738Y-53205980D01*
X57323417Y-53209292D01*
X57342608Y-53214928D01*
X57401355Y-53252672D01*
X57401383Y-53252705D01*
X57401385Y-53252706D01*
X57401385Y-53252707D01*
X57402542Y-53254041D01*
X57430018Y-53308902D01*
X57431663Y-53316460D01*
X57434500Y-53342831D01*
X57434500Y-53484057D01*
X57449210Y-53538953D01*
X57471396Y-53621756D01*
X57471397Y-53621759D01*
X57475238Y-53636091D01*
X57475423Y-53636783D01*
X57475426Y-53636790D01*
X57553349Y-53771759D01*
X57554060Y-53773060D01*
X57554089Y-53773193D01*
X57554398Y-53773634D01*
X57666287Y-53885523D01*
X57666969Y-53886014D01*
X57669475Y-53887363D01*
X57803209Y-53964573D01*
X57803216Y-53964577D01*
X57955943Y-54005500D01*
X57955945Y-54005500D01*
X58092671Y-54005500D01*
X58127606Y-54010523D01*
X58142604Y-54014927D01*
X58201355Y-54052672D01*
X58201379Y-54052700D01*
X58201382Y-54052702D01*
X58201383Y-54052704D01*
X58202542Y-54054041D01*
X58230018Y-54108902D01*
X58231663Y-54116460D01*
X58234500Y-54142831D01*
X58234500Y-54549205D01*
X58234499Y-54549207D01*
X58234500Y-54549208D01*
X58229476Y-54584142D01*
X58222064Y-54609383D01*
X58190769Y-54662127D01*
X58024512Y-54828382D01*
X58024508Y-54828387D01*
X58024502Y-54828396D01*
X57965197Y-54931115D01*
X57964849Y-54932040D01*
X57964164Y-54934970D01*
X57934497Y-55045692D01*
X57934497Y-55537239D01*
X57934496Y-55537241D01*
X57934497Y-55537242D01*
X57929473Y-55572177D01*
X57920829Y-55601613D01*
X57906314Y-55632662D01*
X57906503Y-55632771D01*
X57905243Y-55634951D01*
X57904961Y-55635557D01*
X57904471Y-55636289D01*
X57825431Y-55773192D01*
X57825422Y-55773210D01*
X57825421Y-55773211D01*
X57825419Y-55773218D01*
X57784497Y-55925943D01*
X57784497Y-56084059D01*
X57799356Y-56139510D01*
X57799356Y-56139513D01*
X57799357Y-56139513D01*
X57825419Y-56236780D01*
X57825421Y-56236787D01*
X57825422Y-56236788D01*
X57825425Y-56236793D01*
X57901620Y-56368771D01*
X57901635Y-56368795D01*
X57904472Y-56373709D01*
X57904476Y-56373714D01*
X57904477Y-56373716D01*
X57905046Y-56374285D01*
X58016281Y-56485520D01*
X58016974Y-56486019D01*
X58019492Y-56487374D01*
X58055351Y-56508077D01*
X58151163Y-56563394D01*
X58153211Y-56564576D01*
X58153213Y-56564577D01*
X58305940Y-56605500D01*
X58305942Y-56605500D01*
X58464052Y-56605500D01*
X58464054Y-56605500D01*
X58616781Y-56564577D01*
X58707565Y-56512162D01*
X58740315Y-56499050D01*
X58758609Y-56494612D01*
X58822784Y-56496141D01*
X58827695Y-56497583D01*
X58832782Y-56499078D01*
X58859835Y-56510664D01*
X58953216Y-56564577D01*
X59105943Y-56605500D01*
X59105945Y-56605500D01*
X59264055Y-56605500D01*
X59264057Y-56605500D01*
X59416784Y-56564577D01*
X59553716Y-56485520D01*
X59665520Y-56373716D01*
X59744577Y-56236784D01*
X59785500Y-56084057D01*
X59785500Y-55925943D01*
X59744577Y-55773216D01*
X59705086Y-55704815D01*
X59671793Y-55647149D01*
X59670615Y-55644529D01*
X59666512Y-55637890D01*
X59664620Y-55634724D01*
X59663735Y-55633192D01*
X59655456Y-55615893D01*
X59643840Y-55585849D01*
X59635500Y-55541141D01*
X59635500Y-55124846D01*
X59655185Y-55057807D01*
X59707989Y-55012052D01*
X59777147Y-55002108D01*
X59840703Y-55031133D01*
X59878477Y-55089911D01*
X59882787Y-55111579D01*
X59886482Y-55145941D01*
X59886484Y-55145950D01*
X59897688Y-55197453D01*
X59908644Y-55235654D01*
X59908646Y-55235658D01*
X59965325Y-55332571D01*
X60004214Y-55377451D01*
X60033238Y-55441004D01*
X60034500Y-55458652D01*
X60034500Y-57117833D01*
X60029476Y-57152770D01*
X60022064Y-57178011D01*
X59990769Y-57230755D01*
X57484788Y-59736736D01*
X57463859Y-59752404D01*
X57456538Y-59757885D01*
X57446611Y-59763306D01*
X57378338Y-59778160D01*
X57312873Y-59753746D01*
X57271000Y-59697814D01*
X57268313Y-59690608D01*
X57260500Y-59647288D01*
X57260500Y-58311903D01*
X57260500Y-58311901D01*
X57260500Y-58311898D01*
X57249877Y-58223436D01*
X57194361Y-58082658D01*
X57194360Y-58082657D01*
X57194360Y-58082656D01*
X57190630Y-58077737D01*
X57190318Y-58077140D01*
X57189240Y-58075904D01*
X57102922Y-57962076D01*
X56982345Y-57870640D01*
X56982343Y-57870639D01*
X56843605Y-57815928D01*
X56841559Y-57815121D01*
X56802152Y-57810389D01*
X56795926Y-57809642D01*
X56795925Y-57809641D01*
X56768220Y-57806315D01*
X56753102Y-57804500D01*
X56753098Y-57804500D01*
X56166901Y-57804500D01*
X56166898Y-57804500D01*
X56156560Y-57805741D01*
X56127853Y-57809187D01*
X56127853Y-57809188D01*
X56121920Y-57809900D01*
X56078439Y-57815121D01*
X55937653Y-57870640D01*
X55817076Y-57962076D01*
X55725640Y-58082653D01*
X55670121Y-58223439D01*
X55664900Y-58266920D01*
X55664188Y-58272853D01*
X55659500Y-58311898D01*
X55659500Y-60698102D01*
X55665126Y-60744954D01*
X55670122Y-60786561D01*
X55700776Y-60864294D01*
X55725640Y-60927345D01*
X55817076Y-61047922D01*
X55930904Y-61134240D01*
X55937656Y-61139360D01*
X55937657Y-61139360D01*
X55937876Y-61139526D01*
X55940596Y-61140519D01*
X56078436Y-61194877D01*
X56166898Y-61205500D01*
X56166903Y-61205500D01*
X56753102Y-61205500D01*
X56753103Y-61205500D01*
X56823843Y-61197005D01*
X56827473Y-61196623D01*
X56849693Y-61194615D01*
X56849694Y-61194616D01*
X56871582Y-61192639D01*
X56940120Y-61206213D01*
X56990436Y-61254682D01*
X56993200Y-61259526D01*
X57009500Y-61320980D01*
X57009500Y-62317833D01*
X57004476Y-62352770D01*
X56997064Y-62378011D01*
X56965769Y-62430755D01*
X53244495Y-66152027D01*
X53244491Y-66152032D01*
X53244481Y-66152047D01*
X53170848Y-66279583D01*
X53170646Y-66282674D01*
X53134500Y-66417575D01*
X53134500Y-70350159D01*
X53134500Y-70495107D01*
X53172016Y-70635118D01*
X53200310Y-70684126D01*
X53226525Y-70729531D01*
X53244490Y-70760648D01*
X53244495Y-70760654D01*
X57253800Y-74769961D01*
X57253812Y-74769972D01*
X57279346Y-74795506D01*
X57285795Y-74800454D01*
X57285399Y-74800968D01*
X57298628Y-74811119D01*
X57302659Y-74814820D01*
X57303056Y-74815478D01*
X57306477Y-74818479D01*
X58335573Y-75847575D01*
X58356723Y-75875827D01*
X58369331Y-75898916D01*
X58384500Y-75958345D01*
X58384500Y-80904037D01*
X58382747Y-80924811D01*
X58379292Y-80945142D01*
X58374087Y-80965322D01*
X58337353Y-81070300D01*
X58337353Y-81070302D01*
X58334500Y-81100730D01*
X58334500Y-81100736D01*
X58334500Y-82609270D01*
X58336147Y-82626842D01*
X58336148Y-82626848D01*
X58337353Y-82639696D01*
X58337353Y-82639698D01*
X58337354Y-82639699D01*
X58344397Y-82659828D01*
X58344398Y-82659830D01*
X58344397Y-82659830D01*
X58377533Y-82754523D01*
X58381104Y-82766693D01*
X58381840Y-82769774D01*
X58390078Y-82804295D01*
X58395576Y-82818815D01*
X58397176Y-82824783D01*
X58397181Y-82824799D01*
X58422016Y-82917484D01*
X58494490Y-83043014D01*
X61896986Y-86445510D01*
X61988703Y-86498462D01*
X62022516Y-86517984D01*
X62162526Y-86555500D01*
X62162529Y-86555500D01*
X86657472Y-86555500D01*
X86657474Y-86555500D01*
X86657475Y-86555500D01*
X86797485Y-86517984D01*
X86831298Y-86498462D01*
X86923015Y-86445510D01*
X89305510Y-84063015D01*
X89377984Y-83937485D01*
X89415500Y-83797474D01*
X89415500Y-83652526D01*
X89415500Y-82658500D01*
X89418664Y-82636497D01*
X89420523Y-82623564D01*
X89421384Y-82620634D01*
X89424927Y-82608565D01*
X89462694Y-82549796D01*
X89462699Y-82549790D01*
X89469743Y-82543686D01*
X89516841Y-82518177D01*
X89558954Y-82506128D01*
X89733303Y-82415055D01*
X89885750Y-82290750D01*
X90010055Y-82138303D01*
X90099921Y-81966262D01*
X90104594Y-81958093D01*
X90104797Y-81957766D01*
X90114804Y-81941954D01*
X90115119Y-81941210D01*
X90118039Y-81936527D01*
X90140782Y-81916266D01*
X90161935Y-81894357D01*
X90166616Y-81893252D01*
X90170210Y-81890051D01*
X90200304Y-81885301D01*
X90221975Y-81880186D01*
X90221923Y-81878290D01*
X90225065Y-81878203D01*
X90227575Y-81878865D01*
X90229937Y-81878308D01*
X90230019Y-81878312D01*
X90232109Y-81878426D01*
X90232021Y-81880037D01*
X90232633Y-81880199D01*
X90239226Y-81879159D01*
X90254981Y-81886094D01*
X90292621Y-81896023D01*
X90410260Y-81967137D01*
X90416534Y-81971194D01*
X90422686Y-81975440D01*
X90428716Y-81979876D01*
X90456421Y-82001582D01*
X90588425Y-82105001D01*
X90648622Y-82152163D01*
X90654370Y-82156953D01*
X90659975Y-82161918D01*
X90665434Y-82167057D01*
X90862941Y-82364564D01*
X90868072Y-82370014D01*
X90873038Y-82375619D01*
X90877836Y-82381376D01*
X91026004Y-82570498D01*
X91028520Y-82573709D01*
X91050121Y-82601281D01*
X91054548Y-82607298D01*
X91058812Y-82613475D01*
X91062854Y-82619727D01*
X91207389Y-82858820D01*
X91211057Y-82865324D01*
X91214535Y-82871951D01*
X91217813Y-82878684D01*
X91325287Y-83117480D01*
X91325288Y-83117480D01*
X91325290Y-83117485D01*
X91332460Y-83133416D01*
X91335325Y-83140333D01*
X91337983Y-83147344D01*
X91340421Y-83154412D01*
X91423520Y-83421087D01*
X91425526Y-83428282D01*
X91427322Y-83435566D01*
X91428893Y-83442881D01*
X91479247Y-83717655D01*
X91480373Y-83725051D01*
X91481275Y-83732475D01*
X91481954Y-83739944D01*
X91499160Y-84024384D01*
X91499329Y-84028117D01*
X91499443Y-84031881D01*
X91499500Y-84035635D01*
X91499500Y-84994363D01*
X91499443Y-84998117D01*
X91499329Y-85001881D01*
X91499160Y-85005614D01*
X91481954Y-85290054D01*
X91481275Y-85297523D01*
X91480373Y-85304947D01*
X91479247Y-85312343D01*
X91428893Y-85587117D01*
X91427319Y-85594449D01*
X91425530Y-85601705D01*
X91423520Y-85608911D01*
X91340421Y-85875586D01*
X91337980Y-85882663D01*
X91335321Y-85889675D01*
X91332452Y-85896600D01*
X91217816Y-86151308D01*
X91214543Y-86158031D01*
X91211062Y-86164665D01*
X91207377Y-86171200D01*
X91062863Y-86410257D01*
X91058807Y-86416530D01*
X91054549Y-86422699D01*
X91050117Y-86428723D01*
X90877837Y-86648621D01*
X90873038Y-86654379D01*
X90868072Y-86659984D01*
X90862941Y-86665434D01*
X90665434Y-86862941D01*
X90659984Y-86868072D01*
X90654379Y-86873038D01*
X90648621Y-86877837D01*
X90428723Y-87050117D01*
X90422699Y-87054549D01*
X90416530Y-87058807D01*
X90410255Y-87062863D01*
X90171192Y-87207381D01*
X90164665Y-87211062D01*
X90158031Y-87214543D01*
X90151308Y-87217816D01*
X89896600Y-87332452D01*
X89889675Y-87335321D01*
X89882663Y-87337980D01*
X89875586Y-87340421D01*
X89608911Y-87423520D01*
X89601708Y-87425529D01*
X89594439Y-87427321D01*
X89587117Y-87428893D01*
X89312343Y-87479247D01*
X89304947Y-87480373D01*
X89297523Y-87481275D01*
X89290054Y-87481954D01*
X89005614Y-87499160D01*
X89001881Y-87499329D01*
X88998117Y-87499443D01*
X88994363Y-87499500D01*
X51005637Y-87499500D01*
X51001884Y-87499443D01*
X50998119Y-87499329D01*
X50994385Y-87499160D01*
X50709944Y-87481954D01*
X50702475Y-87481275D01*
X50695051Y-87480373D01*
X50687655Y-87479247D01*
X50412881Y-87428893D01*
X50405566Y-87427322D01*
X50398282Y-87425526D01*
X50391087Y-87423520D01*
X50124407Y-87340420D01*
X50117334Y-87337980D01*
X50110310Y-87335316D01*
X50103420Y-87332461D01*
X50048880Y-87307915D01*
X49954096Y-87265255D01*
X49954096Y-87265256D01*
X49848683Y-87217813D01*
X49841951Y-87214535D01*
X49835324Y-87211057D01*
X49828820Y-87207389D01*
X49589727Y-87062854D01*
X49583483Y-87058817D01*
X49577283Y-87054538D01*
X49571275Y-87050117D01*
X49351377Y-86877837D01*
X49345619Y-86873038D01*
X49340014Y-86868072D01*
X49334564Y-86862941D01*
X49137057Y-86665434D01*
X49131926Y-86659984D01*
X49126960Y-86654379D01*
X49122161Y-86648621D01*
X49004520Y-86498464D01*
X48963033Y-86445510D01*
X48949872Y-86428711D01*
X48945444Y-86422691D01*
X48941192Y-86416532D01*
X48937147Y-86410275D01*
X48792602Y-86171167D01*
X48788941Y-86164674D01*
X48785463Y-86158047D01*
X48782191Y-86151329D01*
X48667532Y-85896567D01*
X48664672Y-85889662D01*
X48662018Y-85882663D01*
X48659581Y-85875599D01*
X48576479Y-85608916D01*
X48574468Y-85601703D01*
X48572677Y-85594437D01*
X48571108Y-85587134D01*
X48520750Y-85312339D01*
X48519627Y-85304965D01*
X48518719Y-85297487D01*
X48518046Y-85290078D01*
X48515579Y-85249297D01*
X48500837Y-85005575D01*
X48500669Y-85001848D01*
X48500556Y-84998084D01*
X48500500Y-84994363D01*
X48500500Y-77311898D01*
X56284500Y-77311898D01*
X56284500Y-79698102D01*
X56290126Y-79744954D01*
X56295122Y-79786561D01*
X56350639Y-79927342D01*
X56350640Y-79927345D01*
X56442076Y-80047922D01*
X56555904Y-80134240D01*
X56562656Y-80139360D01*
X56562657Y-80139360D01*
X56562876Y-80139526D01*
X56565596Y-80140519D01*
X56703436Y-80194877D01*
X56791898Y-80205500D01*
X56791903Y-80205500D01*
X57378097Y-80205500D01*
X57378102Y-80205500D01*
X57466564Y-80194877D01*
X57607342Y-80139361D01*
X57727922Y-80047922D01*
X57819361Y-79927342D01*
X57874877Y-79786564D01*
X57885500Y-79698102D01*
X57885500Y-77311898D01*
X57874877Y-77223436D01*
X57819361Y-77082658D01*
X57819360Y-77082657D01*
X57819360Y-77082656D01*
X57815630Y-77077737D01*
X57815318Y-77077140D01*
X57814240Y-77075904D01*
X57727922Y-76962076D01*
X57607345Y-76870640D01*
X57607343Y-76870639D01*
X57536952Y-76842880D01*
X57466559Y-76815121D01*
X57427152Y-76810389D01*
X57420926Y-76809642D01*
X57420925Y-76809641D01*
X57393220Y-76806315D01*
X57378102Y-76804500D01*
X57378098Y-76804500D01*
X56791901Y-76804500D01*
X56791898Y-76804500D01*
X56781560Y-76805741D01*
X56752853Y-76809187D01*
X56752853Y-76809188D01*
X56746920Y-76809900D01*
X56703439Y-76815121D01*
X56562653Y-76870640D01*
X56442076Y-76962076D01*
X56350640Y-77082653D01*
X56295121Y-77223439D01*
X56289900Y-77266920D01*
X56289188Y-77272853D01*
X56284500Y-77311898D01*
X48500500Y-77311898D01*
X48500500Y-21005635D01*
X48500556Y-21001914D01*
X48500669Y-20998150D01*
X48500837Y-20994426D01*
X48509603Y-20849501D01*
X48518045Y-20709924D01*
X48518720Y-20702502D01*
X48519627Y-20695033D01*
X48520749Y-20687665D01*
X48520751Y-20687655D01*
X48571110Y-20412855D01*
X48572668Y-20405598D01*
X48574479Y-20398250D01*
X48576463Y-20391136D01*
X48659603Y-20124328D01*
X48662010Y-20117354D01*
X48664686Y-20110297D01*
X48667515Y-20103467D01*
X48782210Y-19848627D01*
X48785454Y-19841967D01*
X48788963Y-19835282D01*
X48792602Y-19828832D01*
X48830959Y-19765381D01*
X48937147Y-19589722D01*
X48941201Y-19583453D01*
X48945449Y-19577297D01*
X48949874Y-19571285D01*
X48949882Y-19571275D01*
X49122185Y-19351347D01*
X49126938Y-19345643D01*
X49131946Y-19339990D01*
X49137032Y-19334589D01*
X49334589Y-19137032D01*
X49339990Y-19131946D01*
X49345643Y-19126938D01*
X49351347Y-19122185D01*
X49571290Y-18949869D01*
X49577311Y-18945440D01*
X49583463Y-18941194D01*
X49589719Y-18937149D01*
X49828846Y-18792593D01*
X49835282Y-18788963D01*
X49841984Y-18785445D01*
X49848627Y-18782210D01*
X50103467Y-18667515D01*
X50110297Y-18664686D01*
X50117354Y-18662010D01*
X50124358Y-18659593D01*
X50391106Y-18576471D01*
X50398267Y-18574474D01*
X50405582Y-18572671D01*
X50412856Y-18571109D01*
X50687673Y-18520747D01*
X50695042Y-18519625D01*
X50702500Y-18518720D01*
X50709909Y-18518046D01*
X50994427Y-18500837D01*
X50998152Y-18500669D01*
X51001917Y-18500556D01*
X51005637Y-18500500D01*
X88994363Y-18500500D01*
X88998084Y-18500556D01*
G37*
%TD.AperFunction*%
%TA.AperFunction,Conductor*%
G36*
X86231072Y-81615997D02*
G01*
X86246009Y-81620000D01*
X86403989Y-81620000D01*
X86403991Y-81620000D01*
X86418907Y-81616003D01*
X86488756Y-81617666D01*
X86546618Y-81656828D01*
X86574123Y-81721056D01*
X86575000Y-81735778D01*
X86575000Y-82769999D01*
X86730340Y-82769999D01*
X86730344Y-82769999D01*
X86820187Y-82763763D01*
X86820189Y-82763762D01*
X86820199Y-82763762D01*
X86820215Y-82763760D01*
X87030670Y-82714262D01*
X87030686Y-82714256D01*
X87228461Y-82626930D01*
X87228469Y-82626926D01*
X87237662Y-82620629D01*
X87325818Y-82560240D01*
X87406845Y-82504735D01*
X87406851Y-82504730D01*
X87559730Y-82351851D01*
X87559738Y-82351841D01*
X87608639Y-82280453D01*
X87632517Y-82254481D01*
X87643273Y-82245701D01*
X87707653Y-82218557D01*
X87776480Y-82230525D01*
X87779516Y-82232020D01*
X87783438Y-82233953D01*
X87824744Y-82266829D01*
X87831989Y-82275714D01*
X87844247Y-82290749D01*
X87870284Y-82311978D01*
X87919184Y-82351851D01*
X87996697Y-82415055D01*
X88171046Y-82506128D01*
X88171048Y-82506128D01*
X88171051Y-82506130D01*
X88207470Y-82516550D01*
X88207476Y-82516553D01*
X88207480Y-82516553D01*
X88207485Y-82516554D01*
X88239680Y-82530992D01*
X88247722Y-82536082D01*
X88252892Y-82539355D01*
X88298998Y-82591827D01*
X88299005Y-82591843D01*
X88299006Y-82591844D01*
X88301996Y-82598273D01*
X88302931Y-82600282D01*
X88314500Y-82652581D01*
X88314500Y-83427783D01*
X88309476Y-83462720D01*
X88302064Y-83487961D01*
X88270769Y-83540705D01*
X86405901Y-85405573D01*
X86377650Y-85426722D01*
X86354562Y-85439330D01*
X86295132Y-85454500D01*
X79431217Y-85454500D01*
X79396282Y-85449477D01*
X79385428Y-85446290D01*
X79326650Y-85408516D01*
X79297625Y-85344960D01*
X79307565Y-85275811D01*
X79310755Y-85268824D01*
X79335864Y-85232660D01*
X80964106Y-83604418D01*
X80992351Y-83583275D01*
X81015443Y-83570667D01*
X81074868Y-83555500D01*
X82257472Y-83555500D01*
X82257474Y-83555500D01*
X82257475Y-83555500D01*
X82397485Y-83517984D01*
X82454267Y-83485201D01*
X82523015Y-83445510D01*
X83349103Y-82619418D01*
X83377354Y-82598272D01*
X83400444Y-82585665D01*
X83459867Y-82570499D01*
X84174428Y-82570499D01*
X84174436Y-82570499D01*
X84289840Y-82560240D01*
X84478954Y-82506128D01*
X84653303Y-82415055D01*
X84805750Y-82290750D01*
X84821622Y-82271283D01*
X84847585Y-82247388D01*
X84859035Y-82239535D01*
X84925454Y-82217853D01*
X84993052Y-82235520D01*
X84999707Y-82239521D01*
X85038112Y-82275714D01*
X85078815Y-82335132D01*
X85090264Y-82351845D01*
X85090268Y-82351850D01*
X85090281Y-82351864D01*
X85243134Y-82504717D01*
X85243144Y-82504726D01*
X85243148Y-82504730D01*
X85243154Y-82504735D01*
X85243155Y-82504736D01*
X85243154Y-82504736D01*
X85421520Y-82626920D01*
X85421524Y-82626922D01*
X85421530Y-82626926D01*
X85421538Y-82626930D01*
X85619313Y-82714256D01*
X85619329Y-82714262D01*
X85682011Y-82729004D01*
X85730729Y-82740463D01*
X85763667Y-82759173D01*
X85919655Y-82769999D01*
X85919659Y-82769999D01*
X86074999Y-82769999D01*
X86075000Y-82769998D01*
X86075000Y-81735777D01*
X86094685Y-81668738D01*
X86147489Y-81622983D01*
X86216647Y-81613039D01*
X86231072Y-81615997D01*
G37*
%TD.AperFunction*%
%TA.AperFunction,Conductor*%
G36*
X59664186Y-76201091D02*
G01*
X59671172Y-76204281D01*
X59707342Y-76229394D01*
X59923458Y-76445510D01*
X60048988Y-76517984D01*
X60188998Y-76555500D01*
X60188999Y-76555500D01*
X60333947Y-76555500D01*
X63425044Y-76555500D01*
X63459976Y-76560522D01*
X63463382Y-76561522D01*
X63522161Y-76599295D01*
X63551187Y-76662850D01*
X63541246Y-76732009D01*
X63495492Y-76784814D01*
X63428453Y-76804500D01*
X62991898Y-76804500D01*
X62981560Y-76805741D01*
X62952853Y-76809187D01*
X62952853Y-76809188D01*
X62946920Y-76809900D01*
X62903439Y-76815121D01*
X62762653Y-76870640D01*
X62642076Y-76962076D01*
X62550640Y-77082653D01*
X62495121Y-77223439D01*
X62489900Y-77266920D01*
X62489188Y-77272853D01*
X62484500Y-77311898D01*
X62484500Y-79698102D01*
X62490126Y-79744954D01*
X62495122Y-79786561D01*
X62550639Y-79927342D01*
X62550640Y-79927345D01*
X62642076Y-80047922D01*
X62755904Y-80134240D01*
X62762656Y-80139360D01*
X62762657Y-80139360D01*
X62762876Y-80139526D01*
X62765596Y-80140519D01*
X62903436Y-80194877D01*
X62991898Y-80205500D01*
X62991903Y-80205500D01*
X63578097Y-80205500D01*
X63578102Y-80205500D01*
X63666564Y-80194877D01*
X63807342Y-80139361D01*
X63927922Y-80047922D01*
X64019361Y-79927342D01*
X64074877Y-79786564D01*
X64085500Y-79698102D01*
X64085500Y-77463954D01*
X64090047Y-77430684D01*
X64090283Y-77429835D01*
X64091738Y-77424881D01*
X64091763Y-77424519D01*
X64093426Y-77418552D01*
X64108959Y-77393622D01*
X64122105Y-77367347D01*
X64127226Y-77364306D01*
X64130376Y-77359252D01*
X64156925Y-77346676D01*
X64182186Y-77331681D01*
X64188138Y-77331892D01*
X64193520Y-77329343D01*
X64222654Y-77333117D01*
X64240235Y-77333741D01*
X64240794Y-77331174D01*
X64242426Y-77331529D01*
X64246911Y-77333978D01*
X64252011Y-77334159D01*
X64252069Y-77334178D01*
X64253627Y-77334697D01*
X64252850Y-77337028D01*
X64262810Y-77338319D01*
X64277459Y-77350658D01*
X64303749Y-77365014D01*
X64385574Y-77446839D01*
X64406723Y-77475090D01*
X64419331Y-77498179D01*
X64434500Y-77557608D01*
X64434500Y-82977474D01*
X64455405Y-83055498D01*
X64455406Y-83055498D01*
X64455406Y-83055499D01*
X64472014Y-83117480D01*
X64472016Y-83117485D01*
X64499830Y-83165660D01*
X64544489Y-83243014D01*
X64544491Y-83243016D01*
X64544495Y-83243021D01*
X65632774Y-84331299D01*
X65642786Y-84344673D01*
X65653923Y-84359549D01*
X65659344Y-84369476D01*
X65674198Y-84437749D01*
X65649784Y-84503214D01*
X65593852Y-84545087D01*
X65593848Y-84545089D01*
X65586660Y-84547770D01*
X65543326Y-84555588D01*
X63041883Y-84555588D01*
X63006947Y-84550565D01*
X62981705Y-84543153D01*
X62928960Y-84511857D01*
X61795446Y-83378343D01*
X61795441Y-83378338D01*
X61774295Y-83350091D01*
X61767640Y-83337903D01*
X61752789Y-83269633D01*
X61777203Y-83204172D01*
X61778595Y-83202312D01*
X61822516Y-83165664D01*
X61825937Y-83163957D01*
X61841664Y-83157809D01*
X61845191Y-83156283D01*
X61845196Y-83156282D01*
X61986552Y-83072685D01*
X61986561Y-83072678D01*
X62102678Y-82956561D01*
X62102685Y-82956552D01*
X62186282Y-82815196D01*
X62186283Y-82815193D01*
X62232099Y-82657495D01*
X62232100Y-82657489D01*
X62234999Y-82620649D01*
X62235000Y-82620634D01*
X62235000Y-82105000D01*
X61576830Y-82105000D01*
X61576825Y-82104999D01*
X61576823Y-82105000D01*
X61541889Y-82099975D01*
X61526890Y-82095570D01*
X61468144Y-82057827D01*
X61468115Y-82057793D01*
X61468114Y-82057793D01*
X61468113Y-82057791D01*
X61466957Y-82056458D01*
X61439477Y-82001583D01*
X61437832Y-81994021D01*
X61435000Y-81967668D01*
X61435000Y-81855000D01*
X61326830Y-81855000D01*
X61326825Y-81854999D01*
X61326823Y-81855000D01*
X61291889Y-81849975D01*
X61276890Y-81845570D01*
X61218144Y-81807827D01*
X61218115Y-81807793D01*
X61218114Y-81807793D01*
X61218113Y-81807791D01*
X61216957Y-81806458D01*
X61189477Y-81751583D01*
X61187832Y-81744021D01*
X61185000Y-81717668D01*
X61185000Y-81605000D01*
X61685000Y-81605000D01*
X62235000Y-81605000D01*
X62235000Y-81089365D01*
X62234999Y-81089350D01*
X62232100Y-81052510D01*
X62232099Y-81052504D01*
X62227566Y-81036903D01*
X62186291Y-80894833D01*
X62186289Y-80894828D01*
X62186283Y-80894806D01*
X62186282Y-80894803D01*
X62180726Y-80885409D01*
X62102688Y-80753452D01*
X62102685Y-80753447D01*
X62102676Y-80753436D01*
X61986562Y-80637322D01*
X61986551Y-80637313D01*
X61986546Y-80637310D01*
X61845199Y-80553718D01*
X61845196Y-80553717D01*
X61845182Y-80553712D01*
X61802180Y-80541219D01*
X61780621Y-80534956D01*
X61745409Y-80512469D01*
X61685000Y-80507703D01*
X61685000Y-81605000D01*
X61185000Y-81605000D01*
X61185000Y-80507703D01*
X61182505Y-80507899D01*
X61182497Y-80507901D01*
X61024833Y-80553707D01*
X61024802Y-80553717D01*
X61024799Y-80553718D01*
X60883452Y-80637310D01*
X60883447Y-80637313D01*
X60883432Y-80637325D01*
X60797379Y-80723379D01*
X60793361Y-80727221D01*
X60760047Y-80757673D01*
X60759925Y-80757578D01*
X60746736Y-80769841D01*
X60746270Y-80770268D01*
X60715365Y-80785386D01*
X60684546Y-80800789D01*
X60683990Y-80800734D01*
X60683508Y-80800971D01*
X60669013Y-80799278D01*
X60617568Y-80794276D01*
X60609798Y-80791247D01*
X60606023Y-80789775D01*
X60577432Y-80774016D01*
X60547882Y-80752207D01*
X60547880Y-80752206D01*
X60419704Y-80707354D01*
X60419702Y-80707353D01*
X60419700Y-80707353D01*
X60389270Y-80704500D01*
X60389266Y-80704500D01*
X60389264Y-80704500D01*
X59980734Y-80704500D01*
X59980730Y-80704500D01*
X59962074Y-80706249D01*
X59956069Y-80706812D01*
X59952499Y-80706978D01*
X59950297Y-80707353D01*
X59822116Y-80752206D01*
X59712846Y-80832851D01*
X59709958Y-80835740D01*
X59704515Y-80839471D01*
X59702376Y-80842717D01*
X59697260Y-80846819D01*
X59686062Y-80855321D01*
X59675579Y-80859312D01*
X59672463Y-80861449D01*
X59659686Y-80867104D01*
X59652692Y-80868026D01*
X59620765Y-80880182D01*
X59597548Y-80875296D01*
X59590415Y-80876237D01*
X59581041Y-80871822D01*
X59552393Y-80865794D01*
X59537917Y-80851514D01*
X59527204Y-80846469D01*
X59518155Y-80832018D01*
X59502653Y-80816726D01*
X59501061Y-80813856D01*
X59497033Y-80798288D01*
X59490122Y-80787252D01*
X59490297Y-80772257D01*
X59485500Y-80753714D01*
X59485500Y-76324743D01*
X59490521Y-76289816D01*
X59493707Y-76278963D01*
X59531477Y-76220182D01*
X59595031Y-76191153D01*
X59664186Y-76201091D01*
G37*
%TD.AperFunction*%
%TA.AperFunction,Conductor*%
G36*
X68482760Y-57051450D02*
G01*
X68482768Y-57051229D01*
X68486059Y-57051346D01*
X68496562Y-57053434D01*
X68511066Y-57055519D01*
X68513284Y-57056170D01*
X68514612Y-57057023D01*
X68524986Y-57059086D01*
X68531565Y-57061540D01*
X68533764Y-57062185D01*
X68546634Y-57069830D01*
X68558403Y-57072405D01*
X68586629Y-57093586D01*
X68586952Y-57093910D01*
X68587060Y-57094018D01*
X68598545Y-57107288D01*
X68614940Y-57129190D01*
X68617449Y-57132541D01*
X68617452Y-57132544D01*
X68617454Y-57132546D01*
X68617457Y-57132548D01*
X68623130Y-57136795D01*
X68623135Y-57136799D01*
X68732661Y-57218791D01*
X68732663Y-57218792D01*
X68732665Y-57218794D01*
X68732667Y-57218794D01*
X68732671Y-57218797D01*
X68777618Y-57235561D01*
X68867517Y-57269091D01*
X68927127Y-57275500D01*
X69095206Y-57275499D01*
X69130130Y-57280518D01*
X69140986Y-57283706D01*
X69199764Y-57321475D01*
X69228794Y-57385028D01*
X69218855Y-57454187D01*
X69218853Y-57454192D01*
X69215667Y-57461169D01*
X69190552Y-57497342D01*
X66624517Y-60063377D01*
X66624509Y-60063387D01*
X66624509Y-60063388D01*
X66565200Y-60166112D01*
X66564852Y-60167037D01*
X66564167Y-60169967D01*
X66534500Y-60280689D01*
X66534500Y-61137239D01*
X66534499Y-61137241D01*
X66534500Y-61137242D01*
X66529476Y-61172177D01*
X66520832Y-61201613D01*
X66506317Y-61232662D01*
X66506506Y-61232771D01*
X66505246Y-61234951D01*
X66504964Y-61235557D01*
X66504474Y-61236289D01*
X66425434Y-61373192D01*
X66425425Y-61373210D01*
X66425424Y-61373211D01*
X66425422Y-61373218D01*
X66384500Y-61525943D01*
X66384500Y-61684056D01*
X66402761Y-61752208D01*
X66402761Y-61752209D01*
X66410525Y-61781186D01*
X66414715Y-61816226D01*
X66414385Y-61830101D01*
X66408956Y-61847085D01*
X66408862Y-61851036D01*
X66406647Y-61854307D01*
X66393112Y-61896654D01*
X66339238Y-61941139D01*
X66331423Y-61944486D01*
X66282605Y-61954500D01*
X62702359Y-61954500D01*
X62702355Y-61954499D01*
X62702354Y-61954500D01*
X62667420Y-61949476D01*
X62645814Y-61943131D01*
X62595963Y-61914635D01*
X62593021Y-61911878D01*
X62587463Y-61905627D01*
X62587037Y-61905354D01*
X62586844Y-61904931D01*
X62578048Y-61895040D01*
X62532151Y-61832851D01*
X62422882Y-61752207D01*
X62422880Y-61752206D01*
X62378856Y-61736801D01*
X62294704Y-61707354D01*
X62294702Y-61707353D01*
X62294700Y-61707353D01*
X62264270Y-61704500D01*
X62264266Y-61704500D01*
X62264264Y-61704500D01*
X61855734Y-61704500D01*
X61855730Y-61704500D01*
X61837074Y-61706249D01*
X61831069Y-61706812D01*
X61827499Y-61706978D01*
X61825297Y-61707353D01*
X61697118Y-61752206D01*
X61587852Y-61832847D01*
X61587850Y-61832849D01*
X61587850Y-61832850D01*
X61579487Y-61844180D01*
X61545356Y-61890426D01*
X61521474Y-61914635D01*
X61520577Y-61915544D01*
X61509523Y-61923938D01*
X61444228Y-61948804D01*
X61375855Y-61934422D01*
X61375846Y-61934417D01*
X61369339Y-61930921D01*
X61328256Y-61895322D01*
X61308281Y-61868257D01*
X61308280Y-61868255D01*
X61282151Y-61832851D01*
X61282148Y-61832849D01*
X61172882Y-61752207D01*
X61172880Y-61752206D01*
X61172879Y-61752205D01*
X61044704Y-61707354D01*
X61044702Y-61707353D01*
X61044700Y-61707353D01*
X61014270Y-61704500D01*
X61014266Y-61704500D01*
X61014264Y-61704500D01*
X60605734Y-61704500D01*
X60605730Y-61704500D01*
X60603503Y-61704708D01*
X60598981Y-61705132D01*
X60598978Y-61705132D01*
X60575300Y-61707353D01*
X60575298Y-61707353D01*
X60447119Y-61752206D01*
X60447114Y-61752209D01*
X60405918Y-61782612D01*
X60391213Y-61788514D01*
X60389940Y-61788636D01*
X60387571Y-61789909D01*
X60373753Y-61794956D01*
X60304030Y-61799465D01*
X60244727Y-61767340D01*
X60234866Y-61757742D01*
X60234865Y-61757742D01*
X60213421Y-61736870D01*
X60213227Y-61736801D01*
X60198332Y-61724092D01*
X60111562Y-61637322D01*
X60111551Y-61637313D01*
X60111546Y-61637310D01*
X59970199Y-61553718D01*
X59970196Y-61553717D01*
X59970182Y-61553712D01*
X59927180Y-61541219D01*
X59905621Y-61534956D01*
X59870409Y-61512469D01*
X59810000Y-61507703D01*
X59810000Y-64202295D01*
X59810001Y-64202295D01*
X59810003Y-64202295D01*
X59810003Y-64202294D01*
X59812486Y-64202100D01*
X59970198Y-64156281D01*
X60111552Y-64072685D01*
X60111561Y-64072678D01*
X60204911Y-63979327D01*
X60211459Y-63973239D01*
X60252104Y-63938093D01*
X60263933Y-63932705D01*
X60273065Y-63923452D01*
X60295119Y-63918501D01*
X60315689Y-63909133D01*
X60328553Y-63910996D01*
X60341238Y-63908149D01*
X60362469Y-63915908D01*
X60384837Y-63919148D01*
X60394651Y-63927670D01*
X60406863Y-63932133D01*
X60425674Y-63949267D01*
X60431735Y-63956050D01*
X60446655Y-63976667D01*
X60449511Y-63981614D01*
X60449512Y-63981615D01*
X60666920Y-64199022D01*
X60883387Y-64415489D01*
X60986114Y-64474799D01*
X61010322Y-64481284D01*
X61010325Y-64481286D01*
X61010326Y-64481286D01*
X61040448Y-64489357D01*
X61100692Y-64505500D01*
X61100694Y-64505500D01*
X62694308Y-64505500D01*
X62694309Y-64505500D01*
X62784673Y-64481286D01*
X62808887Y-64474799D01*
X62911614Y-64415489D01*
X63922685Y-63404418D01*
X63950930Y-63383275D01*
X63974022Y-63370667D01*
X64033447Y-63355500D01*
X82429205Y-63355500D01*
X82464137Y-63360521D01*
X82489381Y-63367934D01*
X82542127Y-63399230D01*
X83198298Y-64055401D01*
X83219447Y-64083652D01*
X83226099Y-64095834D01*
X83240951Y-64164107D01*
X83216535Y-64229572D01*
X83216522Y-64229589D01*
X83215216Y-64231333D01*
X83171083Y-64268080D01*
X83167470Y-64269873D01*
X83146461Y-64278014D01*
X83091053Y-64293868D01*
X83008620Y-64336927D01*
X82916696Y-64384945D01*
X82916694Y-64384946D01*
X82916693Y-64384947D01*
X82764251Y-64509246D01*
X82639942Y-64661699D01*
X82639938Y-64661706D01*
X82633162Y-64674679D01*
X82633160Y-64674680D01*
X82633160Y-64674684D01*
X82612532Y-64703322D01*
X82603303Y-64712897D01*
X82542607Y-64747505D01*
X82472835Y-64743803D01*
X82420311Y-64708046D01*
X82414580Y-64701432D01*
X82398385Y-64677643D01*
X82390057Y-64661700D01*
X82381256Y-64650907D01*
X82381254Y-64650902D01*
X82381253Y-64650903D01*
X82370848Y-64638143D01*
X82324897Y-64581787D01*
X82265750Y-64509249D01*
X82113303Y-64384945D01*
X81938950Y-64293870D01*
X81938947Y-64293869D01*
X81805259Y-64255617D01*
X81805249Y-64255614D01*
X81802944Y-64254955D01*
X81749840Y-64239760D01*
X81749836Y-64239759D01*
X81749834Y-64239759D01*
X81735010Y-64238441D01*
X81735006Y-64238440D01*
X81690737Y-64234505D01*
X81690737Y-64234504D01*
X81634437Y-64229500D01*
X81634432Y-64229500D01*
X80855571Y-64229500D01*
X80855567Y-64229500D01*
X80854665Y-64229556D01*
X80853360Y-64229696D01*
X80740160Y-64239759D01*
X80551051Y-64293869D01*
X80376695Y-64384945D01*
X80224251Y-64509246D01*
X80099942Y-64661699D01*
X80099938Y-64661706D01*
X80093162Y-64674679D01*
X80093160Y-64674680D01*
X80093160Y-64674684D01*
X80072532Y-64703322D01*
X80063303Y-64712897D01*
X80002607Y-64747505D01*
X79932835Y-64743803D01*
X79880311Y-64708046D01*
X79874580Y-64701432D01*
X79858385Y-64677643D01*
X79850057Y-64661700D01*
X79841256Y-64650907D01*
X79841254Y-64650902D01*
X79841253Y-64650903D01*
X79830848Y-64638143D01*
X79784897Y-64581787D01*
X79725750Y-64509249D01*
X79573303Y-64384945D01*
X79398950Y-64293870D01*
X79398947Y-64293869D01*
X79265259Y-64255617D01*
X79265249Y-64255614D01*
X79262944Y-64254955D01*
X79209840Y-64239760D01*
X79209836Y-64239759D01*
X79209834Y-64239759D01*
X79195010Y-64238441D01*
X79195006Y-64238440D01*
X79150737Y-64234505D01*
X79150737Y-64234504D01*
X79094437Y-64229500D01*
X79094432Y-64229500D01*
X78315571Y-64229500D01*
X78315567Y-64229500D01*
X78314665Y-64229556D01*
X78313360Y-64229696D01*
X78200160Y-64239759D01*
X78011051Y-64293869D01*
X77836695Y-64384945D01*
X77684251Y-64509246D01*
X77559942Y-64661699D01*
X77559938Y-64661706D01*
X77553162Y-64674679D01*
X77553160Y-64674680D01*
X77553160Y-64674684D01*
X77532532Y-64703322D01*
X77523303Y-64712897D01*
X77462607Y-64747505D01*
X77392835Y-64743803D01*
X77340311Y-64708046D01*
X77334580Y-64701432D01*
X77318385Y-64677643D01*
X77310057Y-64661700D01*
X77301256Y-64650907D01*
X77301254Y-64650902D01*
X77301253Y-64650903D01*
X77290848Y-64638143D01*
X77244897Y-64581787D01*
X77185750Y-64509249D01*
X77033303Y-64384945D01*
X76858950Y-64293870D01*
X76858947Y-64293869D01*
X76725259Y-64255617D01*
X76725249Y-64255614D01*
X76722944Y-64254955D01*
X76669840Y-64239760D01*
X76669836Y-64239759D01*
X76669834Y-64239759D01*
X76655010Y-64238441D01*
X76655006Y-64238440D01*
X76610737Y-64234505D01*
X76610737Y-64234504D01*
X76554437Y-64229500D01*
X76554432Y-64229500D01*
X75775571Y-64229500D01*
X75775567Y-64229500D01*
X75774665Y-64229556D01*
X75773360Y-64229696D01*
X75660160Y-64239759D01*
X75471051Y-64293869D01*
X75296695Y-64384945D01*
X75144251Y-64509246D01*
X75019942Y-64661699D01*
X75019938Y-64661706D01*
X75013162Y-64674679D01*
X75013160Y-64674680D01*
X75013160Y-64674684D01*
X74992532Y-64703322D01*
X74983303Y-64712897D01*
X74922607Y-64747505D01*
X74852835Y-64743803D01*
X74800311Y-64708046D01*
X74794580Y-64701432D01*
X74778385Y-64677643D01*
X74770057Y-64661700D01*
X74761256Y-64650907D01*
X74761254Y-64650902D01*
X74761253Y-64650903D01*
X74750848Y-64638143D01*
X74704897Y-64581787D01*
X74645750Y-64509249D01*
X74493303Y-64384945D01*
X74318950Y-64293870D01*
X74318947Y-64293869D01*
X74185259Y-64255617D01*
X74185249Y-64255614D01*
X74182944Y-64254955D01*
X74129840Y-64239760D01*
X74129836Y-64239759D01*
X74129834Y-64239759D01*
X74115010Y-64238441D01*
X74115006Y-64238440D01*
X74070737Y-64234505D01*
X74070737Y-64234504D01*
X74014437Y-64229500D01*
X74014432Y-64229500D01*
X73235571Y-64229500D01*
X73235567Y-64229500D01*
X73234665Y-64229556D01*
X73233360Y-64229696D01*
X73120160Y-64239759D01*
X72931051Y-64293869D01*
X72756695Y-64384945D01*
X72604251Y-64509246D01*
X72479942Y-64661699D01*
X72479938Y-64661706D01*
X72473162Y-64674679D01*
X72473160Y-64674680D01*
X72473160Y-64674684D01*
X72452532Y-64703322D01*
X72443303Y-64712897D01*
X72382607Y-64747505D01*
X72312835Y-64743803D01*
X72260311Y-64708046D01*
X72254580Y-64701432D01*
X72238385Y-64677643D01*
X72230057Y-64661700D01*
X72221256Y-64650907D01*
X72221254Y-64650902D01*
X72221253Y-64650903D01*
X72210848Y-64638143D01*
X72164897Y-64581787D01*
X72105750Y-64509249D01*
X71953303Y-64384945D01*
X71778950Y-64293870D01*
X71778947Y-64293869D01*
X71645259Y-64255617D01*
X71645249Y-64255614D01*
X71642944Y-64254955D01*
X71589840Y-64239760D01*
X71589836Y-64239759D01*
X71589834Y-64239759D01*
X71575010Y-64238441D01*
X71575006Y-64238440D01*
X71530737Y-64234505D01*
X71530737Y-64234504D01*
X71474437Y-64229500D01*
X71474432Y-64229500D01*
X70695571Y-64229500D01*
X70695567Y-64229500D01*
X70694665Y-64229556D01*
X70693360Y-64229696D01*
X70580160Y-64239759D01*
X70391051Y-64293869D01*
X70216695Y-64384945D01*
X70064248Y-64509248D01*
X69939945Y-64661695D01*
X69848869Y-64836051D01*
X69795494Y-65022593D01*
X69794884Y-65024561D01*
X69794759Y-65025163D01*
X69784500Y-65140567D01*
X69784500Y-65315690D01*
X69784499Y-65315696D01*
X69784500Y-65315699D01*
X69779475Y-65350634D01*
X69775070Y-65365632D01*
X69737303Y-65424396D01*
X69737291Y-65424405D01*
X69737291Y-65424407D01*
X69737289Y-65424407D01*
X69729904Y-65430808D01*
X69684692Y-65455760D01*
X69604314Y-65480142D01*
X69604291Y-65480150D01*
X69287212Y-65611488D01*
X69286642Y-65611720D01*
X69286524Y-65611775D01*
X68983233Y-65773888D01*
X68983214Y-65773899D01*
X68983208Y-65773902D01*
X68791692Y-65901869D01*
X68697248Y-65964975D01*
X68697234Y-65964985D01*
X68697226Y-65964990D01*
X68697220Y-65964996D01*
X68431361Y-66183181D01*
X68188181Y-66426361D01*
X67969996Y-66692220D01*
X67969985Y-66692234D01*
X67969978Y-66692244D01*
X67778902Y-66978208D01*
X67778899Y-66978214D01*
X67778888Y-66978233D01*
X67616775Y-67281524D01*
X67616722Y-67281638D01*
X67616488Y-67282213D01*
X67485151Y-67599287D01*
X67385306Y-67928432D01*
X67318209Y-68265751D01*
X67318209Y-68265752D01*
X67284500Y-68608037D01*
X67284500Y-78201961D01*
X67318209Y-78544246D01*
X67318209Y-78544247D01*
X67385306Y-78881566D01*
X67485151Y-79210711D01*
X67616488Y-79527785D01*
X67616723Y-79528364D01*
X67616768Y-79528459D01*
X67616770Y-79528464D01*
X67616772Y-79528469D01*
X67778893Y-79831775D01*
X67778904Y-79831793D01*
X67969975Y-80117751D01*
X67969985Y-80117765D01*
X68136262Y-80320373D01*
X68188181Y-80383637D01*
X68431360Y-80626816D01*
X68431435Y-80626883D01*
X68431956Y-80627305D01*
X68697240Y-80845019D01*
X68737354Y-80871822D01*
X68983214Y-81036101D01*
X68983877Y-81036469D01*
X68984659Y-81036873D01*
X69281230Y-81195394D01*
X69285503Y-81197678D01*
X69285504Y-81197679D01*
X69290001Y-81200083D01*
X69294978Y-81201727D01*
X69604295Y-81329850D01*
X69679439Y-81352644D01*
X69711405Y-81367589D01*
X69724481Y-81376158D01*
X69769760Y-81429363D01*
X69773748Y-81438305D01*
X69784500Y-81488812D01*
X69784500Y-81659423D01*
X69784556Y-81660331D01*
X69784696Y-81661638D01*
X69789677Y-81717668D01*
X69794759Y-81774837D01*
X69828957Y-81894357D01*
X69848870Y-81963950D01*
X69848871Y-81963952D01*
X69890215Y-82043103D01*
X69939942Y-82138300D01*
X70064248Y-82290750D01*
X70125349Y-82340570D01*
X70139184Y-82351851D01*
X70216697Y-82415055D01*
X70391046Y-82506128D01*
X70391048Y-82506128D01*
X70391049Y-82506129D01*
X70392849Y-82506644D01*
X70580160Y-82560240D01*
X70695563Y-82570500D01*
X71474436Y-82570499D01*
X71589840Y-82560240D01*
X71778954Y-82506128D01*
X71953303Y-82415055D01*
X72105750Y-82290750D01*
X72230055Y-82138303D01*
X72236838Y-82125315D01*
X72257461Y-82096682D01*
X72266692Y-82087104D01*
X72327384Y-82052495D01*
X72397156Y-82056192D01*
X72449685Y-82091949D01*
X72455419Y-82098566D01*
X72471615Y-82122356D01*
X72479945Y-82138303D01*
X72501228Y-82164404D01*
X72604249Y-82290750D01*
X72679184Y-82351851D01*
X72756697Y-82415055D01*
X72931046Y-82506128D01*
X72931048Y-82506128D01*
X72931049Y-82506129D01*
X72932849Y-82506644D01*
X73120160Y-82560240D01*
X73235563Y-82570500D01*
X74014436Y-82570499D01*
X74129840Y-82560240D01*
X74318954Y-82506128D01*
X74493303Y-82415055D01*
X74645750Y-82290750D01*
X74770055Y-82138303D01*
X74776838Y-82125315D01*
X74797461Y-82096682D01*
X74806692Y-82087104D01*
X74867384Y-82052495D01*
X74937156Y-82056192D01*
X74989685Y-82091949D01*
X74995419Y-82098566D01*
X75011615Y-82122356D01*
X75019945Y-82138303D01*
X75041228Y-82164404D01*
X75144249Y-82290750D01*
X75219184Y-82351851D01*
X75296697Y-82415055D01*
X75300709Y-82417150D01*
X75309056Y-82423837D01*
X75310123Y-82425365D01*
X75317583Y-82431334D01*
X75328252Y-82441617D01*
X75362861Y-82502313D01*
X75359165Y-82572074D01*
X75356756Y-82578917D01*
X75327473Y-82625422D01*
X75047321Y-82905574D01*
X75020926Y-82925334D01*
X75019071Y-82926723D01*
X74995985Y-82939330D01*
X74936554Y-82954500D01*
X68147901Y-82954500D01*
X68112965Y-82949477D01*
X68087723Y-82942065D01*
X68034978Y-82910769D01*
X67084426Y-81960217D01*
X67063274Y-81931961D01*
X67050667Y-81908872D01*
X67035500Y-81849447D01*
X67035500Y-76545693D01*
X67035500Y-76545691D01*
X67004799Y-76431114D01*
X66982394Y-76392307D01*
X66945490Y-76328387D01*
X64461614Y-73844511D01*
X64439125Y-73831527D01*
X64414120Y-73817090D01*
X64414116Y-73817088D01*
X64410250Y-73814856D01*
X64358888Y-73785201D01*
X64346780Y-73781957D01*
X64335377Y-73778901D01*
X64335376Y-73778901D01*
X64334675Y-73778713D01*
X64334675Y-73778712D01*
X64334670Y-73778712D01*
X64306706Y-73771218D01*
X64296475Y-73768477D01*
X64296475Y-73768476D01*
X64244314Y-73754500D01*
X64244309Y-73754500D01*
X64244308Y-73754500D01*
X62746932Y-73754500D01*
X62711997Y-73749477D01*
X62701143Y-73746290D01*
X62642365Y-73708516D01*
X62613340Y-73644960D01*
X62623283Y-73575803D01*
X62626473Y-73568820D01*
X62651578Y-73532660D01*
X62727678Y-73456561D01*
X62727685Y-73456552D01*
X62811282Y-73315196D01*
X62811283Y-73315193D01*
X62857099Y-73157495D01*
X62857100Y-73157489D01*
X62859999Y-73120649D01*
X62860000Y-73120634D01*
X62860000Y-72605000D01*
X62201830Y-72605000D01*
X62201825Y-72604999D01*
X62201823Y-72605000D01*
X62166889Y-72599975D01*
X62151890Y-72595570D01*
X62093144Y-72557827D01*
X62093115Y-72557793D01*
X62093114Y-72557793D01*
X62093113Y-72557791D01*
X62091957Y-72556458D01*
X62064477Y-72501583D01*
X62062832Y-72494021D01*
X62060000Y-72467668D01*
X62060000Y-72355000D01*
X61951830Y-72355000D01*
X61951825Y-72354999D01*
X61951823Y-72355000D01*
X61916889Y-72349975D01*
X61901890Y-72345570D01*
X61843144Y-72307827D01*
X61843115Y-72307793D01*
X61843114Y-72307793D01*
X61843113Y-72307791D01*
X61841957Y-72306458D01*
X61814477Y-72251583D01*
X61812832Y-72244021D01*
X61810000Y-72217668D01*
X61810000Y-72105000D01*
X62310000Y-72105000D01*
X62860000Y-72105000D01*
X62860000Y-71589365D01*
X62859999Y-71589350D01*
X62857100Y-71552510D01*
X62857099Y-71552504D01*
X62821775Y-71430921D01*
X62811291Y-71394833D01*
X62811289Y-71394828D01*
X62811283Y-71394806D01*
X62811282Y-71394803D01*
X62810533Y-71393537D01*
X62727688Y-71253452D01*
X62727685Y-71253447D01*
X62727676Y-71253436D01*
X62611562Y-71137322D01*
X62611551Y-71137313D01*
X62611546Y-71137310D01*
X62470199Y-71053718D01*
X62470196Y-71053717D01*
X62470182Y-71053712D01*
X62427180Y-71041219D01*
X62405621Y-71034956D01*
X62370409Y-71012469D01*
X62310000Y-71007703D01*
X62310000Y-72105000D01*
X61810000Y-72105000D01*
X61810000Y-71007703D01*
X61807505Y-71007899D01*
X61807497Y-71007901D01*
X61649833Y-71053707D01*
X61649802Y-71053717D01*
X61649799Y-71053718D01*
X61508452Y-71137310D01*
X61508447Y-71137313D01*
X61508432Y-71137325D01*
X61422379Y-71223379D01*
X61418361Y-71227221D01*
X61385047Y-71257673D01*
X61384925Y-71257578D01*
X61371736Y-71269841D01*
X61371270Y-71270268D01*
X61340365Y-71285386D01*
X61309546Y-71300789D01*
X61308990Y-71300734D01*
X61308508Y-71300971D01*
X61294013Y-71299278D01*
X61242568Y-71294276D01*
X61236068Y-71291742D01*
X61231023Y-71289775D01*
X61202432Y-71274016D01*
X61172882Y-71252207D01*
X61172880Y-71252206D01*
X61044704Y-71207354D01*
X61044702Y-71207353D01*
X61044700Y-71207353D01*
X61014270Y-71204500D01*
X61014266Y-71204500D01*
X61014264Y-71204500D01*
X60605734Y-71204500D01*
X60605730Y-71204500D01*
X60587074Y-71206249D01*
X60581069Y-71206812D01*
X60577499Y-71206978D01*
X60575297Y-71207353D01*
X60447118Y-71252206D01*
X60337852Y-71332847D01*
X60337851Y-71332849D01*
X60295356Y-71390426D01*
X60270577Y-71415544D01*
X60259523Y-71423938D01*
X60194228Y-71448804D01*
X60125855Y-71434422D01*
X60125846Y-71434417D01*
X60119339Y-71430921D01*
X60078261Y-71395328D01*
X60076939Y-71393537D01*
X60076934Y-71393531D01*
X60032150Y-71332850D01*
X59922882Y-71252207D01*
X59922880Y-71252206D01*
X59794704Y-71207354D01*
X59794702Y-71207353D01*
X59794700Y-71207353D01*
X59764270Y-71204500D01*
X59764266Y-71204500D01*
X59764264Y-71204500D01*
X59355734Y-71204500D01*
X59355730Y-71204500D01*
X59337074Y-71206249D01*
X59331069Y-71206812D01*
X59327499Y-71206978D01*
X59325297Y-71207353D01*
X59197118Y-71252206D01*
X59087852Y-71332847D01*
X59087851Y-71332849D01*
X59045356Y-71390426D01*
X59020577Y-71415544D01*
X59009523Y-71423938D01*
X58944228Y-71448804D01*
X58875855Y-71434422D01*
X58875846Y-71434417D01*
X58869339Y-71430921D01*
X58828261Y-71395328D01*
X58826939Y-71393537D01*
X58826934Y-71393531D01*
X58782150Y-71332850D01*
X58672882Y-71252207D01*
X58672880Y-71252206D01*
X58544704Y-71207354D01*
X58544702Y-71207353D01*
X58544700Y-71207353D01*
X58514270Y-71204500D01*
X58514266Y-71204500D01*
X58514264Y-71204500D01*
X58105734Y-71204500D01*
X58105730Y-71204500D01*
X58087074Y-71206249D01*
X58081069Y-71206812D01*
X58077499Y-71206978D01*
X58075297Y-71207353D01*
X57947118Y-71252206D01*
X57837849Y-71332849D01*
X57757206Y-71442118D01*
X57712353Y-71570297D01*
X57711978Y-71572499D01*
X57711812Y-71576069D01*
X57709500Y-71600733D01*
X57709500Y-72361467D01*
X57704476Y-72396405D01*
X57701289Y-72407258D01*
X57663514Y-72466035D01*
X57599957Y-72495058D01*
X57530807Y-72485117D01*
X57523829Y-72481930D01*
X57487657Y-72456816D01*
X55930609Y-70899768D01*
X55909458Y-70871515D01*
X55904954Y-70863266D01*
X55901970Y-70849546D01*
X55894489Y-70837663D01*
X55894691Y-70816082D01*
X55890104Y-70794995D01*
X55895011Y-70781837D01*
X55895143Y-70767796D01*
X55906980Y-70749749D01*
X55914522Y-70729531D01*
X55925762Y-70721116D01*
X55933465Y-70709374D01*
X55953180Y-70700591D01*
X55970456Y-70687660D01*
X55985738Y-70686089D01*
X55997290Y-70680944D01*
X56032580Y-70681274D01*
X56037377Y-70682010D01*
X56037421Y-70682017D01*
X56064113Y-70689228D01*
X56078436Y-70694877D01*
X56149205Y-70703375D01*
X56166897Y-70705500D01*
X56166898Y-70705500D01*
X56166903Y-70705500D01*
X56753097Y-70705500D01*
X56753102Y-70705500D01*
X56841564Y-70694877D01*
X56982342Y-70639361D01*
X57102922Y-70547922D01*
X57194361Y-70427342D01*
X57249877Y-70286564D01*
X57260500Y-70198102D01*
X57260500Y-67811898D01*
X63109500Y-67811898D01*
X63109500Y-70198102D01*
X63115126Y-70244954D01*
X63120122Y-70286561D01*
X63175639Y-70427342D01*
X63175640Y-70427345D01*
X63267076Y-70547922D01*
X63380904Y-70634240D01*
X63387656Y-70639360D01*
X63387657Y-70639360D01*
X63387876Y-70639526D01*
X63390596Y-70640519D01*
X63528436Y-70694877D01*
X63616898Y-70705500D01*
X63616903Y-70705500D01*
X64203097Y-70705500D01*
X64203102Y-70705500D01*
X64291564Y-70694877D01*
X64432342Y-70639361D01*
X64552922Y-70547922D01*
X64644361Y-70427342D01*
X64699877Y-70286564D01*
X64710500Y-70198102D01*
X64710500Y-67811898D01*
X64699877Y-67723436D01*
X64644361Y-67582658D01*
X64644360Y-67582657D01*
X64644360Y-67582656D01*
X64640630Y-67577737D01*
X64640318Y-67577140D01*
X64639240Y-67575904D01*
X64552922Y-67462076D01*
X64432345Y-67370640D01*
X64432339Y-67370637D01*
X64330556Y-67330498D01*
X64330554Y-67330498D01*
X64292543Y-67315508D01*
X64290583Y-67314716D01*
X64290311Y-67314603D01*
X64284199Y-67314238D01*
X64245926Y-67309642D01*
X64245925Y-67309641D01*
X64218220Y-67306315D01*
X64203102Y-67304500D01*
X64203098Y-67304500D01*
X63616901Y-67304500D01*
X63616898Y-67304500D01*
X63606560Y-67305741D01*
X63577853Y-67309187D01*
X63577853Y-67309188D01*
X63571920Y-67309900D01*
X63528439Y-67315121D01*
X63387653Y-67370640D01*
X63267076Y-67462076D01*
X63175640Y-67582653D01*
X63120121Y-67723439D01*
X63114900Y-67766920D01*
X63114188Y-67772853D01*
X63109500Y-67811898D01*
X57260500Y-67811898D01*
X57249877Y-67723436D01*
X57194361Y-67582658D01*
X57194360Y-67582657D01*
X57194360Y-67582656D01*
X57190630Y-67577737D01*
X57190318Y-67577140D01*
X57189240Y-67575904D01*
X57102922Y-67462076D01*
X56982345Y-67370640D01*
X56982339Y-67370637D01*
X56880556Y-67330498D01*
X56880554Y-67330498D01*
X56842543Y-67315508D01*
X56840583Y-67314716D01*
X56840311Y-67314603D01*
X56834199Y-67314238D01*
X56795926Y-67309642D01*
X56795925Y-67309641D01*
X56768220Y-67306315D01*
X56753102Y-67304500D01*
X56753098Y-67304500D01*
X56166901Y-67304500D01*
X56166898Y-67304500D01*
X56156560Y-67305741D01*
X56127853Y-67309187D01*
X56127853Y-67309188D01*
X56121920Y-67309900D01*
X56078439Y-67315121D01*
X55937653Y-67370640D01*
X55817076Y-67462076D01*
X55725640Y-67582653D01*
X55670121Y-67723439D01*
X55664900Y-67766920D01*
X55664188Y-67772853D01*
X55659500Y-67811898D01*
X55659500Y-70198102D01*
X55664282Y-70237923D01*
X55670122Y-70286563D01*
X55678443Y-70307663D01*
X55680620Y-70318665D01*
X55680286Y-70322347D01*
X55682475Y-70331575D01*
X55683320Y-70340928D01*
X55674634Y-70384785D01*
X55674321Y-70388250D01*
X55673821Y-70388891D01*
X55669747Y-70409466D01*
X55621275Y-70459787D01*
X55553291Y-70475913D01*
X55493752Y-70457016D01*
X55489605Y-70454405D01*
X55467997Y-70437156D01*
X54984426Y-69953585D01*
X54984421Y-69953580D01*
X54963274Y-69925329D01*
X54950667Y-69902240D01*
X54935500Y-69842815D01*
X54935500Y-67077215D01*
X54940522Y-67042282D01*
X54947934Y-67017037D01*
X54979228Y-66964295D01*
X57908023Y-64035499D01*
X57936273Y-64014352D01*
X57941679Y-64011400D01*
X58009951Y-63996547D01*
X58012687Y-63996773D01*
X58075301Y-64002646D01*
X58075300Y-64002646D01*
X58092926Y-64004299D01*
X58105729Y-64005500D01*
X58514270Y-64005500D01*
X58514271Y-64005500D01*
X58515576Y-64005377D01*
X58544699Y-64002646D01*
X58544701Y-64002646D01*
X58608790Y-63980219D01*
X58672882Y-63957793D01*
X58701340Y-63936788D01*
X58732421Y-63920091D01*
X58746259Y-63915036D01*
X58815980Y-63910528D01*
X58875252Y-63942622D01*
X58884071Y-63951200D01*
X58885147Y-63952246D01*
X58906593Y-63973105D01*
X58906705Y-63973145D01*
X58921650Y-63985890D01*
X59008438Y-64072678D01*
X59008447Y-64072685D01*
X59149801Y-64156281D01*
X59214408Y-64175050D01*
X59249660Y-64197563D01*
X59307509Y-64202098D01*
X59307514Y-64202100D01*
X59307511Y-64202100D01*
X59309998Y-64202295D01*
X59310000Y-64202295D01*
X59310000Y-61507703D01*
X59307505Y-61507899D01*
X59307497Y-61507901D01*
X59149811Y-61553713D01*
X59149805Y-61553716D01*
X59149801Y-61553717D01*
X59062965Y-61605072D01*
X59030340Y-61618531D01*
X59016888Y-61621944D01*
X58947066Y-61619350D01*
X58889731Y-61579420D01*
X58889698Y-61579379D01*
X58888896Y-61578380D01*
X58863954Y-61524846D01*
X58862863Y-61519338D01*
X58860500Y-61495245D01*
X58860500Y-60977216D01*
X58865522Y-60942283D01*
X58872934Y-60917038D01*
X58904228Y-60864296D01*
X61456626Y-58311898D01*
X63109500Y-58311898D01*
X63109500Y-60698102D01*
X63115126Y-60744954D01*
X63120122Y-60786561D01*
X63150776Y-60864294D01*
X63175640Y-60927345D01*
X63267076Y-61047922D01*
X63380904Y-61134240D01*
X63387656Y-61139360D01*
X63387657Y-61139360D01*
X63387876Y-61139526D01*
X63390596Y-61140519D01*
X63528436Y-61194877D01*
X63616898Y-61205500D01*
X63616903Y-61205500D01*
X64203097Y-61205500D01*
X64203102Y-61205500D01*
X64291564Y-61194877D01*
X64432342Y-61139361D01*
X64552922Y-61047922D01*
X64644361Y-60927342D01*
X64699877Y-60786564D01*
X64710500Y-60698102D01*
X64710500Y-58311898D01*
X64699877Y-58223436D01*
X64644361Y-58082658D01*
X64644360Y-58082657D01*
X64644360Y-58082656D01*
X64640630Y-58077737D01*
X64640318Y-58077140D01*
X64639240Y-58075904D01*
X64552922Y-57962076D01*
X64432345Y-57870640D01*
X64432343Y-57870639D01*
X64293605Y-57815928D01*
X64291559Y-57815121D01*
X64252152Y-57810389D01*
X64245926Y-57809642D01*
X64245925Y-57809641D01*
X64218220Y-57806315D01*
X64203102Y-57804500D01*
X64203098Y-57804500D01*
X63616901Y-57804500D01*
X63616898Y-57804500D01*
X63606560Y-57805741D01*
X63577853Y-57809187D01*
X63577853Y-57809188D01*
X63571920Y-57809900D01*
X63528439Y-57815121D01*
X63387653Y-57870640D01*
X63267076Y-57962076D01*
X63175640Y-58082653D01*
X63120121Y-58223439D01*
X63114900Y-58266920D01*
X63114188Y-58272853D01*
X63109500Y-58311898D01*
X61456626Y-58311898D01*
X62669101Y-57099423D01*
X62697351Y-57078275D01*
X62720443Y-57065667D01*
X62779868Y-57050500D01*
X68476144Y-57050500D01*
X68482760Y-57051450D01*
G37*
%TD.AperFunction*%
%TA.AperFunction,Conductor*%
G36*
X80684137Y-57860521D02*
G01*
X80709381Y-57867934D01*
X80762127Y-57899230D01*
X82650573Y-59787676D01*
X82671723Y-59815928D01*
X82684331Y-59839017D01*
X82699500Y-59898446D01*
X82699500Y-60994491D01*
X82722727Y-61141141D01*
X82729059Y-61181118D01*
X82787454Y-61360836D01*
X82862287Y-61507703D01*
X82873240Y-61529199D01*
X82984310Y-61682073D01*
X82984312Y-61682075D01*
X83032448Y-61730211D01*
X83053597Y-61758461D01*
X83059018Y-61768388D01*
X83073872Y-61836661D01*
X83049458Y-61902126D01*
X82993526Y-61943999D01*
X82993522Y-61944001D01*
X82986334Y-61946682D01*
X82943000Y-61954500D01*
X79360455Y-61954500D01*
X79325520Y-61949477D01*
X79314666Y-61946290D01*
X79299669Y-61936652D01*
X79282566Y-61931631D01*
X79270889Y-61918156D01*
X79255888Y-61908516D01*
X79248482Y-61892299D01*
X79236809Y-61878829D01*
X79234270Y-61861180D01*
X79226863Y-61844960D01*
X79229399Y-61827314D01*
X79226862Y-61809671D01*
X79236801Y-61775815D01*
X79239993Y-61768824D01*
X79265103Y-61732659D01*
X79315690Y-61682073D01*
X79426760Y-61529199D01*
X79512547Y-61360832D01*
X79570940Y-61181118D01*
X79577554Y-61139360D01*
X79600500Y-60994486D01*
X79600500Y-59805513D01*
X79570940Y-59618881D01*
X79512545Y-59439163D01*
X79426759Y-59270800D01*
X79423552Y-59266386D01*
X79315690Y-59117927D01*
X79182073Y-58984310D01*
X79029199Y-58873240D01*
X79029200Y-58873240D01*
X79029198Y-58873239D01*
X79023294Y-58870231D01*
X79017847Y-58867456D01*
X79017843Y-58867452D01*
X79017843Y-58867454D01*
X78860836Y-58787454D01*
X78681118Y-58729059D01*
X78681112Y-58729058D01*
X78494491Y-58699500D01*
X78494486Y-58699500D01*
X78494481Y-58699500D01*
X78305519Y-58699500D01*
X78305514Y-58699500D01*
X78305509Y-58699500D01*
X78118886Y-58729058D01*
X78118884Y-58729058D01*
X78118881Y-58729059D01*
X77939163Y-58787454D01*
X77882334Y-58816410D01*
X77770800Y-58873239D01*
X77723020Y-58907955D01*
X77629798Y-58975685D01*
X77622417Y-58979818D01*
X77479817Y-59122418D01*
X77475686Y-59129796D01*
X77469078Y-59138892D01*
X77438399Y-59181118D01*
X77417251Y-59210225D01*
X77373240Y-59270799D01*
X77371020Y-59275156D01*
X77287454Y-59439163D01*
X77229059Y-59618881D01*
X77229058Y-59618884D01*
X77229058Y-59618886D01*
X77199500Y-59805507D01*
X77199500Y-60994491D01*
X77222727Y-61141141D01*
X77229059Y-61181118D01*
X77287454Y-61360836D01*
X77362287Y-61507703D01*
X77373240Y-61529199D01*
X77484310Y-61682073D01*
X77484312Y-61682075D01*
X77532448Y-61730211D01*
X77553597Y-61758461D01*
X77559018Y-61768388D01*
X77573872Y-61836661D01*
X77549458Y-61902126D01*
X77493526Y-61943999D01*
X77493522Y-61944001D01*
X77486334Y-61946682D01*
X77443000Y-61954500D01*
X67692465Y-61954500D01*
X67657526Y-61949476D01*
X67644208Y-61945565D01*
X67629210Y-61935926D01*
X67612107Y-61930904D01*
X67600431Y-61917429D01*
X67585431Y-61907789D01*
X67578025Y-61891571D01*
X67566352Y-61878100D01*
X67556409Y-61844235D01*
X67555199Y-61835819D01*
X67558162Y-61786080D01*
X67566909Y-61753438D01*
X67567239Y-61752209D01*
X67579257Y-61707354D01*
X67585500Y-61684057D01*
X67585500Y-61525943D01*
X67544577Y-61373216D01*
X67544573Y-61373209D01*
X67465524Y-61236290D01*
X67465522Y-61236288D01*
X67464602Y-61234694D01*
X67464601Y-61234692D01*
X67463735Y-61233192D01*
X67455456Y-61215893D01*
X67443840Y-61185849D01*
X67435500Y-61141141D01*
X67435500Y-60595793D01*
X67440522Y-60560860D01*
X67447934Y-60535615D01*
X67479228Y-60482873D01*
X68071162Y-59890938D01*
X68099410Y-59869792D01*
X68111597Y-59863138D01*
X68129094Y-59859332D01*
X68133207Y-59856425D01*
X68144833Y-59855909D01*
X68179868Y-59848290D01*
X68194406Y-59853713D01*
X68203009Y-59853332D01*
X68220206Y-59863337D01*
X68245332Y-59872710D01*
X68245343Y-59872718D01*
X68247700Y-59874483D01*
X68255722Y-59884000D01*
X68263401Y-59888468D01*
X68283778Y-59917286D01*
X68284996Y-59919668D01*
X68292977Y-59939230D01*
X68331979Y-60064392D01*
X68331981Y-60064397D01*
X68419922Y-60209871D01*
X68419923Y-60209872D01*
X68419925Y-60209874D01*
X68419927Y-60209877D01*
X68485548Y-60275498D01*
X68540123Y-60330073D01*
X68578402Y-60353213D01*
X68685604Y-60418019D01*
X68685603Y-60418019D01*
X68764067Y-60442469D01*
X68771201Y-60445727D01*
X68791691Y-60463482D01*
X68847891Y-60468589D01*
X68847894Y-60468590D01*
X68847893Y-60468590D01*
X68918408Y-60474998D01*
X68918426Y-60474999D01*
X68924999Y-60474998D01*
X68925000Y-60474998D01*
X68925000Y-59641829D01*
X68930023Y-59606893D01*
X68932709Y-59597748D01*
X68934427Y-59591894D01*
X68972172Y-59533144D01*
X68972200Y-59533119D01*
X68972199Y-59533119D01*
X68973541Y-59531956D01*
X69028420Y-59504477D01*
X69035979Y-59502833D01*
X69062332Y-59500000D01*
X69283171Y-59500000D01*
X69318106Y-59505023D01*
X69333104Y-59509427D01*
X69391855Y-59547172D01*
X69391879Y-59547200D01*
X69391882Y-59547202D01*
X69391883Y-59547204D01*
X69393042Y-59548541D01*
X69420518Y-59603402D01*
X69422163Y-59610960D01*
X69425000Y-59637331D01*
X69425000Y-60474999D01*
X69431580Y-60474999D01*
X69431581Y-60474999D01*
X69449185Y-60473399D01*
X69502094Y-60468592D01*
X69502095Y-60468591D01*
X69502102Y-60468591D01*
X69502107Y-60468590D01*
X69664396Y-60418018D01*
X69741424Y-60371453D01*
X69809871Y-60330076D01*
X69809872Y-60330075D01*
X69809871Y-60330075D01*
X69809877Y-60330072D01*
X69930071Y-60209878D01*
X69930074Y-60209874D01*
X70002288Y-60090416D01*
X70024652Y-60063128D01*
X70034893Y-60053749D01*
X70097625Y-60022992D01*
X70167015Y-60031025D01*
X70171988Y-60033133D01*
X70222872Y-60072993D01*
X70267455Y-60132547D01*
X70382664Y-60218793D01*
X70382671Y-60218797D01*
X70427618Y-60235561D01*
X70517517Y-60269091D01*
X70577127Y-60275500D01*
X71072872Y-60275499D01*
X71132483Y-60269091D01*
X71267331Y-60218796D01*
X71382546Y-60132546D01*
X71468796Y-60017331D01*
X71519091Y-59882483D01*
X71525500Y-59822873D01*
X71525499Y-59505789D01*
X71530522Y-59470856D01*
X71537932Y-59445619D01*
X71569226Y-59392874D01*
X73057679Y-57904423D01*
X73085929Y-57883275D01*
X73109021Y-57870667D01*
X73168446Y-57855500D01*
X80649205Y-57855500D01*
X80684137Y-57860521D01*
G37*
%TD.AperFunction*%
%TA.AperFunction,Conductor*%
G36*
X69392128Y-51448349D02*
G01*
X69423790Y-51495742D01*
X69424208Y-51496863D01*
X69424209Y-51496866D01*
X69426679Y-51503489D01*
X69427490Y-51507980D01*
X69427766Y-51508446D01*
X69427734Y-51509333D01*
X69434500Y-51546828D01*
X69434500Y-55392782D01*
X69429476Y-55427719D01*
X69422064Y-55452960D01*
X69390769Y-55505704D01*
X69220899Y-55675573D01*
X69204908Y-55687544D01*
X69192648Y-55696722D01*
X69169560Y-55709330D01*
X69110130Y-55724500D01*
X68927130Y-55724500D01*
X68927128Y-55724500D01*
X68926423Y-55724550D01*
X68924979Y-55724731D01*
X68867516Y-55730907D01*
X68732665Y-55781204D01*
X68732663Y-55781206D01*
X68732661Y-55781207D01*
X68636799Y-55852971D01*
X68617459Y-55867450D01*
X68617456Y-55867452D01*
X68617446Y-55867460D01*
X68603915Y-55885536D01*
X68603915Y-55885538D01*
X68578958Y-55910495D01*
X68560756Y-55924121D01*
X68508483Y-55946880D01*
X68504906Y-55947526D01*
X68495824Y-55948339D01*
X68495292Y-55948538D01*
X68494800Y-55948431D01*
X68482868Y-55949500D01*
X62417523Y-55949500D01*
X62268699Y-55989376D01*
X62250850Y-56002409D01*
X62151991Y-56059485D01*
X62151979Y-56059493D01*
X61359788Y-56851686D01*
X61331538Y-56872835D01*
X61321611Y-56878256D01*
X61253338Y-56893110D01*
X61187873Y-56868696D01*
X61146000Y-56812764D01*
X61143313Y-56805558D01*
X61135500Y-56762238D01*
X61135500Y-55634500D01*
X61155185Y-55567461D01*
X61207989Y-55521706D01*
X61259500Y-55510500D01*
X62260990Y-55510500D01*
X62261000Y-55510500D01*
X62325941Y-55503518D01*
X62377452Y-55492312D01*
X62415658Y-55481354D01*
X62512571Y-55424675D01*
X62565375Y-55378920D01*
X62565382Y-55378912D01*
X62565387Y-55378908D01*
X62607548Y-55334192D01*
X62607553Y-55334187D01*
X62658439Y-55234111D01*
X62678124Y-55167072D01*
X62690500Y-55081000D01*
X62701706Y-55132511D01*
X62747461Y-55185315D01*
X62814500Y-55205000D01*
X66861000Y-55205000D01*
X66912511Y-55193794D01*
X66965315Y-55148039D01*
X66985000Y-55081000D01*
X66985000Y-53261700D01*
X66987288Y-53257916D01*
X67009652Y-53230628D01*
X67019893Y-53221249D01*
X67082625Y-53190492D01*
X67152015Y-53198525D01*
X67156988Y-53200633D01*
X67207872Y-53240493D01*
X67220919Y-53257921D01*
X67252455Y-53300047D01*
X67367664Y-53386293D01*
X67367671Y-53386297D01*
X67412618Y-53403061D01*
X67502517Y-53436591D01*
X67562127Y-53443000D01*
X68057872Y-53442999D01*
X68117483Y-53436591D01*
X68252331Y-53386296D01*
X68367546Y-53300046D01*
X68453796Y-53184831D01*
X68504091Y-53049983D01*
X68510500Y-52990373D01*
X68510499Y-52814711D01*
X68515522Y-52779777D01*
X68522932Y-52754540D01*
X68554225Y-52701796D01*
X69025510Y-52230514D01*
X69097984Y-52104985D01*
X69101374Y-52092334D01*
X69113945Y-52045422D01*
X69121834Y-52015976D01*
X69135500Y-51964975D01*
X69135500Y-51591343D01*
X69136396Y-51576461D01*
X69136760Y-51573450D01*
X69138918Y-51568428D01*
X69140950Y-51556556D01*
X69140517Y-51556429D01*
X69140848Y-51555301D01*
X69141150Y-51555389D01*
X69142219Y-51549146D01*
X69145947Y-51537953D01*
X69147229Y-51533585D01*
X69184997Y-51474806D01*
X69191895Y-51469247D01*
X69217546Y-51450046D01*
X69217546Y-51450045D01*
X69222753Y-51446148D01*
X69223442Y-51445157D01*
X69253792Y-51427159D01*
X69259091Y-51424966D01*
X69259099Y-51424961D01*
X69260185Y-51424512D01*
X69329656Y-51417059D01*
X69392128Y-51448349D01*
G37*
%TD.AperFunction*%
%TA.AperFunction,Conductor*%
G36*
X67730331Y-51160524D02*
G01*
X67740847Y-51163612D01*
X67740435Y-51165012D01*
X67748466Y-51168905D01*
X67763852Y-51171277D01*
X67789121Y-51188345D01*
X67789433Y-51187930D01*
X67790773Y-51188933D01*
X67791334Y-51189683D01*
X67793348Y-51190659D01*
X67794722Y-51191874D01*
X67794760Y-51191918D01*
X67794834Y-51191973D01*
X67798619Y-51195321D01*
X67798906Y-51195778D01*
X67799613Y-51196436D01*
X67799437Y-51196624D01*
X67814623Y-51220790D01*
X67832647Y-51244864D01*
X67832650Y-51244871D01*
X67866218Y-51334872D01*
X67866802Y-51335798D01*
X67867749Y-51337333D01*
X67868596Y-51338552D01*
X67868608Y-51338571D01*
X67871516Y-51341927D01*
X67910135Y-51393516D01*
X67918588Y-51416181D01*
X67947555Y-51445148D01*
X67950620Y-51447596D01*
X67952452Y-51450043D01*
X67952451Y-51450043D01*
X67952452Y-51450044D01*
X67952454Y-51450046D01*
X67972102Y-51464755D01*
X67973614Y-51465962D01*
X67975249Y-51468295D01*
X67975273Y-51468319D01*
X67975414Y-51468145D01*
X67977989Y-51470220D01*
X67985194Y-51478241D01*
X67995496Y-51488544D01*
X67996880Y-51490393D01*
X67996419Y-51490737D01*
X68004499Y-51499733D01*
X68008292Y-51505636D01*
X68008294Y-51505638D01*
X68009679Y-51507488D01*
X68015377Y-51521234D01*
X68023182Y-51530233D01*
X68033142Y-51564093D01*
X68033229Y-51564696D01*
X68034500Y-51582403D01*
X68034500Y-51595282D01*
X68029476Y-51630219D01*
X68022064Y-51655460D01*
X67990769Y-51708205D01*
X67855898Y-51843075D01*
X67850461Y-51847145D01*
X67827646Y-51864224D01*
X67804559Y-51876831D01*
X67745130Y-51892000D01*
X67562130Y-51892000D01*
X67562128Y-51892000D01*
X67561423Y-51892050D01*
X67559979Y-51892231D01*
X67502516Y-51898407D01*
X67367666Y-51948704D01*
X67367655Y-51948712D01*
X67252458Y-52034949D01*
X67252451Y-52034955D01*
X67212576Y-52088220D01*
X67212576Y-52088222D01*
X67187619Y-52113178D01*
X67176509Y-52121495D01*
X67111045Y-52145913D01*
X67042775Y-52131062D01*
X67038026Y-52128469D01*
X66991344Y-52083791D01*
X66985000Y-52073296D01*
X66985000Y-51729000D01*
X66973794Y-51677489D01*
X66928039Y-51624685D01*
X66861000Y-51605000D01*
X66709986Y-51605000D01*
X66725165Y-51586477D01*
X66728714Y-51584055D01*
X66773579Y-51565040D01*
X66786864Y-51562303D01*
X66792150Y-51557776D01*
X66802047Y-51553827D01*
X66853485Y-51535828D01*
X66897882Y-51520293D01*
X67007150Y-51439650D01*
X67087793Y-51330382D01*
X67107667Y-51273582D01*
X67114043Y-51255362D01*
X67114046Y-51255358D01*
X67130313Y-51224066D01*
X67139433Y-51211350D01*
X67153485Y-51200377D01*
X67154767Y-51198591D01*
X67156809Y-51197781D01*
X67194493Y-51168354D01*
X67204915Y-51164222D01*
X67250601Y-51155500D01*
X67695394Y-51155500D01*
X67730331Y-51160524D01*
G37*
%TD.AperFunction*%
%TA.AperFunction,Conductor*%
G36*
X64400307Y-51565147D02*
G01*
X64408426Y-51565908D01*
X64400303Y-51565147D01*
X64400299Y-51565146D01*
X64400304Y-51565146D01*
X64400307Y-51565147D01*
G37*
%TD.AperFunction*%
%TA.AperFunction,Conductor*%
G36*
X64080140Y-51324477D02*
G01*
X64080422Y-51325285D01*
X64075636Y-51311605D01*
X64080140Y-51324477D01*
G37*
%TD.AperFunction*%
%TA.AperFunction,Conductor*%
G36*
X63980130Y-51174563D02*
G01*
X63997231Y-51179584D01*
X64023906Y-51202696D01*
X63965134Y-51164927D01*
X63980130Y-51174563D01*
G37*
%TD.AperFunction*%
%TA.AperFunction,Conductor*%
G36*
X69246953Y-45719032D02*
G01*
X69251646Y-45718358D01*
X69266088Y-45721320D01*
X69283096Y-45725877D01*
X69313003Y-45738265D01*
X69351997Y-45760778D01*
X69377678Y-45780484D01*
X69409514Y-45812320D01*
X69429219Y-45837999D01*
X69433062Y-45844655D01*
X69433065Y-45844660D01*
X69451734Y-45876998D01*
X69464119Y-45906898D01*
X69475774Y-45950390D01*
X69480000Y-45982487D01*
X69480000Y-46027511D01*
X69475775Y-46059605D01*
X69464121Y-46103097D01*
X69451733Y-46133003D01*
X69429219Y-46171998D01*
X69409513Y-46197679D01*
X69377679Y-46229513D01*
X69351998Y-46249219D01*
X69313003Y-46271733D01*
X69283096Y-46284121D01*
X69218072Y-46301544D01*
X69206225Y-46304105D01*
X69204188Y-46304442D01*
X69185983Y-46306839D01*
X69167522Y-46310510D01*
X69165554Y-46310836D01*
X69164059Y-46310653D01*
X69145308Y-46312500D01*
X68878213Y-46312500D01*
X68826778Y-46317023D01*
X68815916Y-46317500D01*
X68301830Y-46317500D01*
X68301825Y-46317499D01*
X68301823Y-46317500D01*
X68266889Y-46312475D01*
X68251890Y-46308070D01*
X68193144Y-46270327D01*
X68193115Y-46270293D01*
X68193114Y-46270293D01*
X68193113Y-46270291D01*
X68191957Y-46268958D01*
X68164477Y-46214083D01*
X68162832Y-46206521D01*
X68160000Y-46180168D01*
X68160000Y-45959329D01*
X68165023Y-45924393D01*
X68169427Y-45909395D01*
X68207172Y-45850644D01*
X68207200Y-45850619D01*
X68207199Y-45850619D01*
X68208541Y-45849456D01*
X68263420Y-45821977D01*
X68270979Y-45820333D01*
X68297332Y-45817500D01*
X69109999Y-45817500D01*
X69117945Y-45809553D01*
X69120010Y-45792285D01*
X69126716Y-45784161D01*
X69129684Y-45774057D01*
X69148575Y-45757687D01*
X69164495Y-45738406D01*
X69174529Y-45735198D01*
X69182488Y-45728302D01*
X69207231Y-45724744D01*
X69231047Y-45717131D01*
X69246953Y-45719032D01*
G37*
%TD.AperFunction*%
%TA.AperFunction,Conductor*%
G36*
X72998834Y-31037889D02*
G01*
X73054767Y-31079761D01*
X73079184Y-31145225D01*
X73079500Y-31154071D01*
X73079500Y-40375500D01*
X73059815Y-40442539D01*
X73007011Y-40488294D01*
X72955500Y-40499500D01*
X65502939Y-40499500D01*
X65445501Y-40504952D01*
X65445497Y-40504952D01*
X65445492Y-40504953D01*
X65428999Y-40508111D01*
X65399664Y-40513729D01*
X65368483Y-40521420D01*
X65368479Y-40521421D01*
X65268864Y-40573187D01*
X65268853Y-40573194D01*
X65213843Y-40616244D01*
X65213829Y-40616256D01*
X65169477Y-40658823D01*
X65113658Y-40756230D01*
X65090647Y-40822212D01*
X65073990Y-40907549D01*
X64900197Y-44383415D01*
X64877189Y-44449388D01*
X64822166Y-44492449D01*
X64758705Y-44499960D01*
X64755500Y-44499500D01*
X64755498Y-44499500D01*
X63434106Y-44499500D01*
X63367067Y-44479815D01*
X63321312Y-44427011D01*
X63311368Y-44357853D01*
X63340393Y-44294297D01*
X63369009Y-44269962D01*
X63373159Y-44267401D01*
X63437728Y-44227575D01*
X63437732Y-44227572D01*
X63551432Y-44113873D01*
X63557572Y-44107732D01*
X63557575Y-44107728D01*
X63646542Y-43963492D01*
X63646547Y-43963481D01*
X63699855Y-43802606D01*
X63709999Y-43703322D01*
X63710000Y-43703309D01*
X63710000Y-43655000D01*
X62901830Y-43655000D01*
X62901825Y-43654999D01*
X62901823Y-43655000D01*
X62866889Y-43649975D01*
X62851890Y-43645570D01*
X62793144Y-43607827D01*
X62793115Y-43607793D01*
X62793114Y-43607793D01*
X62793113Y-43607791D01*
X62791957Y-43606458D01*
X62764477Y-43551583D01*
X62762832Y-43544021D01*
X62760000Y-43517668D01*
X62760000Y-43405000D01*
X62651830Y-43405000D01*
X62651825Y-43404999D01*
X62651823Y-43405000D01*
X62616889Y-43399975D01*
X62601890Y-43395570D01*
X62543144Y-43357827D01*
X62543115Y-43357793D01*
X62543114Y-43357793D01*
X62543113Y-43357791D01*
X62541957Y-43356458D01*
X62514477Y-43301583D01*
X62512832Y-43294021D01*
X62510000Y-43267668D01*
X62510000Y-43155000D01*
X63010000Y-43155000D01*
X63709999Y-43155000D01*
X63709999Y-43106692D01*
X63709998Y-43106677D01*
X63699855Y-43007392D01*
X63646547Y-42846518D01*
X63646542Y-42846507D01*
X63601516Y-42773509D01*
X63557585Y-42702286D01*
X63557580Y-42702279D01*
X63557575Y-42702271D01*
X63557572Y-42702267D01*
X63557569Y-42702264D01*
X63557567Y-42702261D01*
X63437737Y-42582431D01*
X63437734Y-42582429D01*
X63437732Y-42582427D01*
X63437728Y-42582424D01*
X63437722Y-42582420D01*
X63437712Y-42582413D01*
X63314610Y-42506483D01*
X63293492Y-42493457D01*
X63293488Y-42493455D01*
X63293476Y-42493449D01*
X63132604Y-42440143D01*
X63033327Y-42430000D01*
X63033322Y-42430000D01*
X63010000Y-42430000D01*
X63010000Y-43155000D01*
X62510000Y-43155000D01*
X62510000Y-42429999D01*
X62486705Y-42429999D01*
X62486686Y-42430000D01*
X62486685Y-42430000D01*
X62486661Y-42430002D01*
X62387394Y-42440143D01*
X62387393Y-42440143D01*
X62226522Y-42493449D01*
X62226510Y-42493455D01*
X62226503Y-42493459D01*
X62155919Y-42536996D01*
X62088526Y-42555436D01*
X62034622Y-42541990D01*
X62014109Y-42531560D01*
X62014110Y-42531560D01*
X61947078Y-42511877D01*
X61947072Y-42511876D01*
X61861000Y-42499500D01*
X61860997Y-42499500D01*
X60309010Y-42499500D01*
X60309000Y-42499500D01*
X60308991Y-42499500D01*
X60308990Y-42499501D01*
X60244064Y-42506481D01*
X60244052Y-42506483D01*
X60192546Y-42517688D01*
X60154345Y-42528644D01*
X60154341Y-42528646D01*
X60057431Y-42585323D01*
X60057428Y-42585325D01*
X60004623Y-42631081D01*
X60004612Y-42631091D01*
X59962451Y-42675807D01*
X59962445Y-42675816D01*
X59911560Y-42775890D01*
X59891877Y-42842920D01*
X59889451Y-42859789D01*
X59882239Y-42909957D01*
X59882238Y-42909961D01*
X59853212Y-42973516D01*
X59794433Y-43011290D01*
X59724564Y-43011289D01*
X59665786Y-42973514D01*
X59636762Y-42909957D01*
X59635500Y-42892312D01*
X59635500Y-37224218D01*
X59640522Y-37189285D01*
X59647934Y-37164040D01*
X59679228Y-37111298D01*
X60986104Y-35804423D01*
X61014354Y-35783275D01*
X61037446Y-35770667D01*
X61096871Y-35755500D01*
X70051414Y-35755500D01*
X70051415Y-35755500D01*
X70141779Y-35731286D01*
X70165993Y-35724799D01*
X70268720Y-35665489D01*
X72445489Y-33488721D01*
X72504798Y-33385994D01*
X72504799Y-33385993D01*
X72535500Y-33271416D01*
X72535500Y-31467900D01*
X72540522Y-31432967D01*
X72547934Y-31407722D01*
X72579228Y-31354980D01*
X72867819Y-31066390D01*
X72929142Y-31032905D01*
X72998834Y-31037889D01*
G37*
%TD.AperFunction*%
%TA.AperFunction,Conductor*%
G36*
X75148714Y-22036706D02*
G01*
X75192978Y-22088532D01*
X75195439Y-22093920D01*
X75205121Y-22126040D01*
X75227829Y-22269413D01*
X75283762Y-22441563D01*
X75283788Y-22441639D01*
X75318475Y-22509714D01*
X75318475Y-22509715D01*
X75350856Y-22573265D01*
X75363741Y-22598553D01*
X75366000Y-22602986D01*
X75366006Y-22602997D01*
X75472433Y-22749483D01*
X75472444Y-22749498D01*
X75472452Y-22749507D01*
X75600493Y-22877548D01*
X75600497Y-22877551D01*
X75600500Y-22877554D01*
X75600505Y-22877558D01*
X75628526Y-22897916D01*
X75739042Y-22978211D01*
X75747001Y-22983993D01*
X75747003Y-22983994D01*
X75747006Y-22983996D01*
X75747011Y-22983998D01*
X75747027Y-22984008D01*
X75747290Y-22984140D01*
X75815910Y-23019104D01*
X75839068Y-23035430D01*
X75844757Y-23039440D01*
X75845696Y-23040327D01*
X75857167Y-23051161D01*
X75891720Y-23108924D01*
X75895197Y-23121777D01*
X75899500Y-23154157D01*
X75899500Y-25984203D01*
X75894476Y-26019140D01*
X75887064Y-26044381D01*
X75855769Y-26097125D01*
X75461949Y-26490943D01*
X75461948Y-26490946D01*
X75433694Y-26512097D01*
X75421512Y-26518749D01*
X75353239Y-26533601D01*
X75287776Y-26509185D01*
X75284099Y-26506433D01*
X75242230Y-26450500D01*
X75236930Y-26436290D01*
X75218798Y-26387673D01*
X75218793Y-26387664D01*
X75171497Y-26324485D01*
X75132555Y-26272465D01*
X75132545Y-26272453D01*
X75132542Y-26272450D01*
X75056816Y-26215762D01*
X75017335Y-26186206D01*
X75017330Y-26186203D01*
X75017327Y-26186201D01*
X75017325Y-26186200D01*
X74892654Y-26139702D01*
X74892651Y-26139701D01*
X74882486Y-26135910D01*
X74882485Y-26135909D01*
X74882483Y-26135909D01*
X74869021Y-26134461D01*
X74869014Y-26134460D01*
X74822883Y-26129501D01*
X74822881Y-26129500D01*
X74822873Y-26129500D01*
X74822865Y-26129500D01*
X74177123Y-26129500D01*
X74173872Y-26129768D01*
X74173545Y-26129885D01*
X74117516Y-26135908D01*
X73982677Y-26186200D01*
X73982666Y-26186204D01*
X73982657Y-26186210D01*
X73943181Y-26215762D01*
X73912205Y-26232677D01*
X73890169Y-26240896D01*
X73835086Y-26248156D01*
X73832848Y-26247943D01*
X73821139Y-26245832D01*
X73820477Y-26245880D01*
X73820021Y-26245631D01*
X73812503Y-26244276D01*
X73807565Y-26242953D01*
X73745968Y-26226448D01*
X73745968Y-26226447D01*
X73681366Y-26209137D01*
X73664057Y-26204500D01*
X73664056Y-26204500D01*
X73505943Y-26204500D01*
X73353218Y-26245422D01*
X73353211Y-26245424D01*
X73353210Y-26245425D01*
X73353200Y-26245430D01*
X73216298Y-26324470D01*
X73216294Y-26324472D01*
X73216290Y-26324475D01*
X73216282Y-26324481D01*
X73216278Y-26324484D01*
X73216276Y-26324485D01*
X73104485Y-26436276D01*
X73104484Y-26436278D01*
X73104481Y-26436281D01*
X73104481Y-26436282D01*
X73104475Y-26436290D01*
X73104472Y-26436294D01*
X73104470Y-26436298D01*
X73025430Y-26573200D01*
X73025425Y-26573210D01*
X73025424Y-26573211D01*
X73025423Y-26573216D01*
X72984500Y-26725943D01*
X72984500Y-26884057D01*
X73013259Y-26991385D01*
X73013258Y-26991385D01*
X73013259Y-26991386D01*
X73025423Y-27036783D01*
X73025424Y-27036786D01*
X73025427Y-27036791D01*
X73051644Y-27082201D01*
X73055855Y-27098837D01*
X73064159Y-27112584D01*
X73064762Y-27114967D01*
X73067428Y-27125957D01*
X73066682Y-27141611D01*
X73068209Y-27147644D01*
X73067931Y-27157648D01*
X73065571Y-27164929D01*
X73064103Y-27195748D01*
X73048471Y-27217698D01*
X73046392Y-27224115D01*
X73040417Y-27229007D01*
X73023573Y-27252662D01*
X73000026Y-27262088D01*
X72992337Y-27268386D01*
X72981032Y-27269691D01*
X72958708Y-27278629D01*
X72958679Y-27278631D01*
X72958406Y-27278657D01*
X72932993Y-27275241D01*
X72922929Y-27276404D01*
X72915869Y-27272939D01*
X72902716Y-27271172D01*
X72900045Y-27270160D01*
X72880859Y-27260937D01*
X72860197Y-27248718D01*
X72860194Y-27248716D01*
X72795619Y-27229955D01*
X72770420Y-27213861D01*
X72757871Y-27207268D01*
X72700000Y-27202703D01*
X72700000Y-28187500D01*
X73250000Y-28187500D01*
X73250000Y-27784365D01*
X73249999Y-27784350D01*
X73247100Y-27747510D01*
X73247099Y-27747504D01*
X73231331Y-27693232D01*
X73201291Y-27589833D01*
X73201289Y-27589828D01*
X73201283Y-27589806D01*
X73201282Y-27589803D01*
X73169929Y-27536788D01*
X73165544Y-27520199D01*
X73157102Y-27506553D01*
X73156471Y-27504165D01*
X73153689Y-27493201D01*
X73154269Y-27477551D01*
X73152680Y-27471537D01*
X73152852Y-27461529D01*
X73155136Y-27454217D01*
X73156281Y-27423380D01*
X73171675Y-27401274D01*
X73173686Y-27394838D01*
X73179609Y-27389880D01*
X73196210Y-27366043D01*
X73219704Y-27356326D01*
X73227268Y-27349997D01*
X73238411Y-27348589D01*
X73260586Y-27339418D01*
X73260862Y-27339389D01*
X73286427Y-27342526D01*
X73296588Y-27341244D01*
X73303716Y-27344648D01*
X73316854Y-27346260D01*
X73319549Y-27347249D01*
X73338829Y-27356270D01*
X73353216Y-27364577D01*
X73505943Y-27405500D01*
X73505945Y-27405500D01*
X73664055Y-27405500D01*
X73664057Y-27405500D01*
X73731402Y-27387455D01*
X73731402Y-27387456D01*
X73731410Y-27387452D01*
X73733774Y-27386819D01*
X73749637Y-27383665D01*
X73765635Y-27381559D01*
X73781810Y-27380500D01*
X73798939Y-27380500D01*
X73833871Y-27385521D01*
X73863213Y-27394137D01*
X73902585Y-27413845D01*
X73980470Y-27472150D01*
X73982668Y-27473795D01*
X73982671Y-27473797D01*
X74027618Y-27490561D01*
X74117517Y-27524091D01*
X74136169Y-27526096D01*
X74148594Y-27530175D01*
X74150931Y-27531783D01*
X74157361Y-27533424D01*
X74168469Y-27538025D01*
X74222873Y-27581864D01*
X74244940Y-27648157D01*
X74228776Y-27713943D01*
X74223586Y-27723058D01*
X74203510Y-27749383D01*
X73314321Y-28638573D01*
X73297722Y-28650999D01*
X73286070Y-28659722D01*
X73262982Y-28672330D01*
X73203552Y-28687500D01*
X71650000Y-28687500D01*
X71650000Y-29090654D01*
X71652899Y-29127487D01*
X71652900Y-29127495D01*
X71652902Y-29127505D01*
X71698707Y-29285165D01*
X71698717Y-29285196D01*
X71698718Y-29285199D01*
X71782310Y-29426546D01*
X71782313Y-29426551D01*
X71782322Y-29426562D01*
X71898436Y-29542676D01*
X71898447Y-29542685D01*
X71898452Y-29542688D01*
X72039799Y-29626280D01*
X72039803Y-29626282D01*
X72043571Y-29627376D01*
X72043574Y-29627378D01*
X72043575Y-29627378D01*
X72043582Y-29627380D01*
X72075724Y-29641949D01*
X72087422Y-29649420D01*
X72133327Y-29702093D01*
X72143468Y-29771213D01*
X72143146Y-29773500D01*
X72122317Y-29826782D01*
X72120152Y-29829910D01*
X72105873Y-29847021D01*
X71333204Y-30619691D01*
X71333203Y-30619692D01*
X71304948Y-30640843D01*
X71291227Y-30648335D01*
X71222964Y-30663187D01*
X71220095Y-30662982D01*
X71154629Y-30638569D01*
X71139298Y-30623238D01*
X71138814Y-30623723D01*
X71132547Y-30617456D01*
X71132546Y-30617454D01*
X71132542Y-30617451D01*
X71132539Y-30617448D01*
X71010411Y-30526022D01*
X70987000Y-30503087D01*
X70985471Y-30501129D01*
X70983524Y-30498420D01*
X70982749Y-30497645D01*
X70979849Y-30493932D01*
X70975970Y-30484151D01*
X70957420Y-30448258D01*
X70954349Y-30436222D01*
X70950500Y-30405565D01*
X70950500Y-29480457D01*
X70955522Y-29445524D01*
X70959347Y-29432498D01*
X70961867Y-29423913D01*
X70968397Y-29412492D01*
X70970149Y-29402969D01*
X70990373Y-29374050D01*
X70993137Y-29371101D01*
X71009965Y-29356142D01*
X71022150Y-29347150D01*
X71102793Y-29237882D01*
X71141419Y-29127495D01*
X71147646Y-29109701D01*
X71147646Y-29109699D01*
X71150500Y-29079269D01*
X71150500Y-27795730D01*
X71150500Y-27795727D01*
X71146942Y-27757792D01*
X71147136Y-27757773D01*
X71146233Y-27751037D01*
X71145228Y-27731338D01*
X71161472Y-27663385D01*
X71211874Y-27615002D01*
X71215934Y-27612891D01*
X71284497Y-27599446D01*
X71295734Y-27600500D01*
X71513221Y-27600500D01*
X71548153Y-27605521D01*
X71561472Y-27609432D01*
X71620250Y-27647206D01*
X71649276Y-27710761D01*
X71649276Y-27710764D01*
X71651525Y-27726407D01*
X71652405Y-27753779D01*
X71650000Y-27784337D01*
X71650000Y-27784350D01*
X71650000Y-28187500D01*
X72200000Y-28187500D01*
X72200000Y-27202703D01*
X72186144Y-27189900D01*
X72186143Y-27189899D01*
X72172843Y-27183037D01*
X72172329Y-27182947D01*
X72171901Y-27182552D01*
X72171198Y-27182189D01*
X72171298Y-27181994D01*
X72157821Y-27169538D01*
X72140414Y-27160204D01*
X72132066Y-27145735D01*
X72121018Y-27135524D01*
X72107392Y-27102966D01*
X72104465Y-27091671D01*
X72100500Y-27060565D01*
X72100500Y-25920738D01*
X72100500Y-25920736D01*
X72100500Y-25920730D01*
X72097646Y-25890302D01*
X72097645Y-25890300D01*
X72097645Y-25890296D01*
X72060912Y-25785320D01*
X72055706Y-25765142D01*
X72052250Y-25744799D01*
X72050500Y-25724037D01*
X72050500Y-22915745D01*
X72055522Y-22880812D01*
X72056474Y-22877570D01*
X72062934Y-22855567D01*
X72094229Y-22802824D01*
X72147553Y-22749501D01*
X72253996Y-22602994D01*
X72336211Y-22441639D01*
X72392171Y-22269409D01*
X72407977Y-22169615D01*
X72412471Y-22141241D01*
X72413092Y-22137316D01*
X72414737Y-22126932D01*
X72420559Y-22114648D01*
X72425163Y-22093210D01*
X72428143Y-22086925D01*
X72440004Y-22073627D01*
X72444663Y-22063799D01*
X72453901Y-22058045D01*
X72474649Y-22034785D01*
X72541964Y-22016063D01*
X72608714Y-22036706D01*
X72635097Y-22067597D01*
X72645629Y-22076367D01*
X72647406Y-22082008D01*
X72652978Y-22088532D01*
X72655439Y-22093920D01*
X72665121Y-22126040D01*
X72687829Y-22269413D01*
X72743762Y-22441563D01*
X72743788Y-22441639D01*
X72778475Y-22509714D01*
X72778475Y-22509715D01*
X72810856Y-22573265D01*
X72823741Y-22598553D01*
X72826000Y-22602986D01*
X72826006Y-22602997D01*
X72932433Y-22749483D01*
X72932444Y-22749498D01*
X73060504Y-22877558D01*
X73193954Y-22974514D01*
X73193955Y-22974514D01*
X73193958Y-22974516D01*
X73219268Y-22999112D01*
X73232870Y-23016750D01*
X73256545Y-23069580D01*
X73257368Y-23073961D01*
X73258066Y-23081457D01*
X73258222Y-23081858D01*
X73258140Y-23082259D01*
X73259500Y-23096855D01*
X73259500Y-24417526D01*
X73259500Y-24562474D01*
X73287637Y-24667482D01*
X73297016Y-24702486D01*
X73297017Y-24702487D01*
X73369485Y-24828008D01*
X73369487Y-24828010D01*
X73369491Y-24828016D01*
X73369495Y-24828021D01*
X73675569Y-25134094D01*
X73675574Y-25134099D01*
X73696723Y-25162350D01*
X73709331Y-25185439D01*
X73724500Y-25244868D01*
X73724500Y-25427867D01*
X73724550Y-25428574D01*
X73724731Y-25430019D01*
X73730907Y-25487482D01*
X73758690Y-25561971D01*
X73781202Y-25622328D01*
X73781203Y-25622330D01*
X73781204Y-25622332D01*
X73781205Y-25622333D01*
X73867450Y-25737542D01*
X73867456Y-25737548D01*
X73877158Y-25744811D01*
X73982664Y-25823793D01*
X73982671Y-25823797D01*
X74010255Y-25834085D01*
X74117517Y-25874091D01*
X74177127Y-25880500D01*
X74822872Y-25880499D01*
X74882483Y-25874091D01*
X75017331Y-25823796D01*
X75132546Y-25737546D01*
X75218796Y-25622331D01*
X75269091Y-25487483D01*
X75275500Y-25427873D01*
X75275499Y-24932128D01*
X75269091Y-24872517D01*
X75258068Y-24842964D01*
X75225368Y-24755288D01*
X75218798Y-24737673D01*
X75218797Y-24737671D01*
X75218793Y-24737664D01*
X75138557Y-24630483D01*
X75132548Y-24622456D01*
X75132542Y-24622450D01*
X75040916Y-24553859D01*
X75017335Y-24536206D01*
X75017332Y-24536204D01*
X75017330Y-24536203D01*
X75017328Y-24536202D01*
X74882482Y-24485908D01*
X74882483Y-24485908D01*
X74822883Y-24479501D01*
X74822881Y-24479500D01*
X74822873Y-24479500D01*
X74822865Y-24479500D01*
X74821841Y-24479500D01*
X74647217Y-24479500D01*
X74612279Y-24474476D01*
X74599959Y-24470858D01*
X74599951Y-24470856D01*
X74598394Y-24470517D01*
X74596460Y-24470096D01*
X74535137Y-24436612D01*
X74409426Y-24310901D01*
X74409421Y-24310896D01*
X74388274Y-24282645D01*
X74375667Y-24259556D01*
X74360500Y-24200131D01*
X74360500Y-23103145D01*
X74365523Y-23068211D01*
X74371798Y-23046840D01*
X74400615Y-22996644D01*
X74403684Y-22993394D01*
X74420942Y-22978221D01*
X74559501Y-22877553D01*
X74687553Y-22749501D01*
X74793996Y-22602994D01*
X74876211Y-22441639D01*
X74932171Y-22269409D01*
X74947977Y-22169615D01*
X74952471Y-22141241D01*
X74953092Y-22137316D01*
X74954737Y-22126929D01*
X74965162Y-22093213D01*
X74968143Y-22086925D01*
X75014649Y-22034785D01*
X75081964Y-22016063D01*
X75148714Y-22036706D01*
G37*
%TD.AperFunction*%
%TD*%
%TA.AperFunction,Conductor*%
%TO.N,+5V*%
G36*
X61928039Y-42824685D02*
G01*
X61973794Y-42877489D01*
X61985000Y-42929000D01*
X61985000Y-44081000D01*
X61965315Y-44148039D01*
X61912511Y-44193794D01*
X61861000Y-44205000D01*
X61585000Y-44205000D01*
X61585000Y-48005000D01*
X62261000Y-48005000D01*
X62269685Y-48007550D01*
X62278647Y-48006262D01*
X62302687Y-48017240D01*
X62328039Y-48024685D01*
X62333966Y-48031525D01*
X62342203Y-48035287D01*
X62356492Y-48057521D01*
X62373794Y-48077489D01*
X62376081Y-48088003D01*
X62379977Y-48094065D01*
X62385000Y-48129000D01*
X62385000Y-48217652D01*
X62365315Y-48284691D01*
X62359804Y-48292578D01*
X62272635Y-48407525D01*
X62219640Y-48541911D01*
X62214065Y-48588341D01*
X62209500Y-48626356D01*
X62209500Y-49158644D01*
X62214825Y-49202994D01*
X62219640Y-49243088D01*
X62272636Y-49377476D01*
X62293876Y-49405484D01*
X62359803Y-49492422D01*
X62367803Y-49513467D01*
X62379977Y-49532411D01*
X62383003Y-49553459D01*
X62384627Y-49557731D01*
X62385000Y-49567346D01*
X62385000Y-49767652D01*
X62365315Y-49834691D01*
X62359804Y-49842578D01*
X62272635Y-49957525D01*
X62219640Y-50091911D01*
X62214065Y-50138341D01*
X62209500Y-50176356D01*
X62209500Y-50708644D01*
X62214825Y-50752994D01*
X62219640Y-50793088D01*
X62272636Y-50927476D01*
X62284420Y-50943015D01*
X62359803Y-51042422D01*
X62384627Y-51107731D01*
X62385000Y-51117346D01*
X62385000Y-55081000D01*
X62365315Y-55148039D01*
X62312511Y-55193794D01*
X62261000Y-55205000D01*
X60309000Y-55205000D01*
X60241961Y-55185315D01*
X60196206Y-55132511D01*
X60185000Y-55081000D01*
X60185000Y-42929000D01*
X60204685Y-42861961D01*
X60257489Y-42816206D01*
X60309000Y-42805000D01*
X61861000Y-42805000D01*
X61928039Y-42824685D01*
G37*
%TD.AperFunction*%
%TD*%
%TA.AperFunction,Conductor*%
%TO.N,GND*%
G36*
X65858011Y-49812181D02*
G01*
X65883298Y-49815415D01*
X65890976Y-49821861D01*
X65900593Y-49824685D01*
X65917283Y-49843947D01*
X65936810Y-49860340D01*
X65939784Y-49869914D01*
X65946348Y-49877489D01*
X65949975Y-49902718D01*
X65957539Y-49927064D01*
X65955626Y-49942018D01*
X65956292Y-49946647D01*
X65953654Y-49957436D01*
X65953062Y-49962073D01*
X65951960Y-49966053D01*
X65937353Y-50007798D01*
X65937353Y-50007800D01*
X65935788Y-50024490D01*
X65935788Y-50024491D01*
X65934500Y-50038233D01*
X65934500Y-51171765D01*
X65935539Y-51182858D01*
X65937353Y-51202199D01*
X65937353Y-51202201D01*
X65978692Y-51320339D01*
X65979283Y-51322216D01*
X65979360Y-51326242D01*
X65985000Y-51359433D01*
X65985000Y-51605000D01*
X66861000Y-51605000D01*
X66928039Y-51624685D01*
X66973794Y-51677489D01*
X66985000Y-51729000D01*
X66985000Y-55081000D01*
X66965315Y-55148039D01*
X66912511Y-55193794D01*
X66861000Y-55205000D01*
X62814500Y-55205000D01*
X62747461Y-55185315D01*
X62701706Y-55132511D01*
X62690500Y-55081000D01*
X62690500Y-51317000D01*
X62710185Y-51249961D01*
X62762989Y-51204206D01*
X62814500Y-51193000D01*
X63276145Y-51193000D01*
X63290218Y-51191309D01*
X63360590Y-51182859D01*
X63397183Y-51168427D01*
X63419509Y-51161965D01*
X63442067Y-51157678D01*
X63465212Y-51155500D01*
X63915200Y-51155500D01*
X63950136Y-51160523D01*
X63965134Y-51164927D01*
X64023906Y-51202696D01*
X64031241Y-51211160D01*
X64054573Y-51251411D01*
X64059780Y-51266290D01*
X64082206Y-51330381D01*
X64103332Y-51359006D01*
X64162850Y-51439650D01*
X64272117Y-51520292D01*
X64272118Y-51520293D01*
X64400299Y-51565146D01*
X64400303Y-51565147D01*
X64418742Y-51566875D01*
X64430730Y-51568000D01*
X64430734Y-51568000D01*
X64430739Y-51568000D01*
X64839270Y-51568000D01*
X64839271Y-51568000D01*
X64840576Y-51567877D01*
X64869699Y-51565146D01*
X64869701Y-51565146D01*
X64933790Y-51542719D01*
X64997882Y-51520293D01*
X65107150Y-51439650D01*
X65187793Y-51330382D01*
X65210219Y-51266290D01*
X65232646Y-51202201D01*
X65232646Y-51202199D01*
X65235500Y-51171769D01*
X65235500Y-50038230D01*
X65234211Y-50024491D01*
X65233188Y-50013579D01*
X65233020Y-50010002D01*
X65232646Y-50007797D01*
X65219404Y-49969956D01*
X65215841Y-49900178D01*
X65250569Y-49839550D01*
X65312562Y-49807322D01*
X65336445Y-49805000D01*
X65833554Y-49805000D01*
X65858011Y-49812181D01*
G37*
%TD.AperFunction*%
%TD*%
%TA.AperFunction,Conductor*%
%TO.N,Net-(U2-SW)*%
G36*
X64822539Y-44824685D02*
G01*
X64868294Y-44877489D01*
X64879500Y-44929000D01*
X64879500Y-47575574D01*
X64883816Y-47626739D01*
X64890774Y-47667689D01*
X64890775Y-47667694D01*
X64903603Y-47717426D01*
X64923041Y-47772973D01*
X64930000Y-47813928D01*
X64930000Y-48881000D01*
X64910315Y-48948039D01*
X64857511Y-48993794D01*
X64806000Y-49005000D01*
X64126830Y-49005000D01*
X64126825Y-49004999D01*
X64126823Y-49005000D01*
X64091889Y-48999975D01*
X64076890Y-48995570D01*
X64018144Y-48957827D01*
X64018115Y-48957793D01*
X64018114Y-48957793D01*
X64018113Y-48957791D01*
X64016957Y-48956458D01*
X63989477Y-48901583D01*
X63987832Y-48894021D01*
X63985000Y-48867668D01*
X63985000Y-47605000D01*
X62726830Y-47605000D01*
X62726825Y-47604999D01*
X62726823Y-47605000D01*
X62691889Y-47599975D01*
X62676890Y-47595570D01*
X62618144Y-47557827D01*
X62618115Y-47557793D01*
X62618114Y-47557793D01*
X62618113Y-47557791D01*
X62616957Y-47556458D01*
X62589477Y-47501583D01*
X62587832Y-47494021D01*
X62585000Y-47467668D01*
X62585000Y-44946829D01*
X62590023Y-44911893D01*
X62594427Y-44896895D01*
X62632172Y-44838144D01*
X62632200Y-44838119D01*
X62632199Y-44838119D01*
X62633541Y-44836956D01*
X62688420Y-44809477D01*
X62695979Y-44807833D01*
X62722332Y-44805000D01*
X64755500Y-44805000D01*
X64822539Y-44824685D01*
G37*
%TD.AperFunction*%
%TD*%
M02*
