M48
; DRILL file KiCad 10.0.4 date 2026-09-20T11:36:49
; FORMAT={-:-/ absolute / metric / decimal}
; #@! TF.CreationDate,2026-09-20T11:36:49+02:00
; #@! TF.GenerationSoftware,Kicad,Pcbnew,10.0.4
; #@! TF.FileFunction,Plated,1,2,PTH
FMAT,2
METRIC
; #@! TA.AperFunction,Plated,PTH,ViaDrill
T1C0.300
; #@! TA.AperFunction,Plated,PTH,ComponentDrill
T2C1.000
; #@! TA.AperFunction,Plated,PTH,ComponentDrill
T3C1.200
; #@! TA.AperFunction,Plated,PTH,ComponentDrill
T4C1.300
%
G90
G05
T1
X55.385Y-67.205
X57.035Y-51.805
X57.385Y-52.605
X58.035Y-53.405
X58.185Y-64.605
X58.385Y-56.005
X59.185Y-56.005
X59.785Y-76.805
X60.385Y-44.205
X60.585Y-48.405
X60.585Y-48.405
X61.985Y-70.205
X62.385Y-26.605
X62.585Y-81.805
X62.785Y-42.005
X63.385Y-72.405
X63.985Y-43.405
X64.185Y-63.805
X64.985Y-52.605
X64.985Y-84.205
X66.274Y-85.255
X66.985Y-61.605
X67.385Y-26.605
X68.585Y-48.405
X69.185Y-46.005
X69.185Y-60.605
X69.985Y-50.005
X72.385Y-26.605
X73.585Y-26.805
X73.585Y-26.805
X76.585Y-27.005
X82.185Y-61.405
T2
X58.57Y-22.0
X61.11Y-22.0
X63.65Y-22.0
X66.19Y-22.0
X68.73Y-22.0
X71.27Y-22.0
X73.81Y-22.0
X76.35Y-22.0
X78.89Y-22.0
X81.43Y-22.0
T3
X71.085Y-65.78
X71.085Y-81.02
X73.625Y-65.78
X73.625Y-81.02
X76.165Y-65.78
X76.165Y-81.02
X78.705Y-65.78
X78.705Y-81.02
X81.245Y-65.78
X81.245Y-81.02
X83.785Y-65.78
X83.785Y-81.02
X86.325Y-65.78
X86.325Y-81.02
X88.865Y-65.78
X88.865Y-81.02
T4
X82.5Y-30.032
X87.5Y-30.032
T2
G00X77.8Y-47.75
M15
G01X77.8Y-45.25
M16
G05
G00X78.4Y-59.9
M15
G01X78.4Y-60.9
M16
G05
G00X82.0Y-41.8
M15
G01X80.0Y-41.8
M16
G05
G00X83.9Y-59.9
M15
G01X83.9Y-60.9
M16
G05
G00X84.0Y-47.5
M15
G01X84.0Y-45.5
M16
G05
G00X86.3Y-57.9
M15
G01X86.3Y-58.9
M16
G05
M30
